<svg version="1.1" viewBox="0.0 0.0 960.0 540.0" fill="none" stroke="none" stroke-linecap="square" stroke-miterlimit="10" xmlns:xlink="http://www.w3.org/1999/xlink" xmlns="http://www.w3.org/2000/svg"><clipPath id="g440aa4315e_0_60.0"><path d="m0 0l960.0 0l0 540.0l-960.0 0l0 -540.0z" clip-rule="nonzero"/></clipPath><g clip-path="url(#g440aa4315e_0_60.0)"><path fill="#ffffff" d="m0 0l960.0 0l0 540.0l-960.0 0z" fill-rule="evenodd"/><path fill="#000000" fill-opacity="0.0" d="m58.757214 183.99808l0 0c0 -3.1050262 2.517128 -5.6221466 5.622158 -5.6221466l230.236 0c1.4910889 0 2.921112 0.59233093 3.9754944 1.6466827c1.0543518 1.0543671 1.6466675 2.484375 1.6466675 3.9754639l0 22.487976c0 3.1050262 -2.5171204 5.6221466 -5.622162 5.6221466l-230.236 0c-3.10503 0 -5.622158 -2.5171204 -5.622158 -5.6221466z" fill-rule="evenodd"/><path stroke="#000000" stroke-width="3.0" stroke-linejoin="round" stroke-linecap="butt" d="m58.757214 183.99808l0 0c0 -3.1050262 2.517128 -5.6221466 5.622158 -5.6221466l230.236 0c1.4910889 0 2.921112 0.59233093 3.9754944 1.6466827c1.0543518 1.0543671 1.6466675 2.484375 1.6466675 3.9754639l0 22.487976c0 3.1050262 -2.5171204 5.6221466 -5.622162 5.6221466l-230.236 0c-3.10503 0 -5.622158 -2.5171204 -5.622158 -5.6221466z" fill-rule="evenodd"/><path fill="#000000" d="m164.84114 199.48894q0.15625 0 0.28125 0.125l0.765625 0.828125q-0.875 1.015625 -2.140625 1.59375q-1.25 0.5625 -3.015625 0.5625q-1.546875 0 -2.8125 -0.53125q-1.265625 -0.53125 -2.15625 -1.5q-0.890625 -0.96875 -1.375 -2.3125q-0.484375 -1.359375 -0.484375 -2.96875q0 -1.625 0.515625 -2.96875q0.53125 -1.359375 1.46875 -2.328125q0.953125 -0.96875 2.28125 -1.5q1.328125 -0.53125 2.921875 -0.53125q1.59375 0 2.734375 0.484375q1.140625 0.484375 2.03125 1.328125l-0.625 0.890625q-0.078125 0.09375 -0.171875 0.171875q-0.078125 0.0625 -0.25 0.0625q-0.125 0 -0.28125 -0.09375q-0.140625 -0.09375 -0.34375 -0.234375q-0.203125 -0.140625 -0.46875 -0.296875q-0.265625 -0.171875 -0.640625 -0.3125q-0.375 -0.140625 -0.859375 -0.234375q-0.484375 -0.09375 -1.125 -0.09375q-1.15625 0 -2.109375 0.40625q-0.953125 0.390625 -1.640625 1.125q-0.6875 0.71875 -1.078125 1.78125q-0.390625 1.046875 -0.390625 2.34375q0 1.34375 0.390625 2.390625q0.390625 1.046875 1.046875 1.78125q0.671875 0.71875 1.578125 1.09375q0.90625 0.375 1.953125 0.375q0.640625 0 1.15625 -0.0625q0.515625 -0.078125 0.9375 -0.234375q0.4375 -0.171875 0.8125 -0.40625q0.375 -0.25 0.765625 -0.59375q0.171875 -0.140625 0.328125 -0.140625zm5.2937317 -11.78125l0 14.734375l-1.78125 0l0 -14.734375l1.78125 0zm5.119995 4.609375l0 10.125l-1.78125 0l0 -10.125l1.78125 0zm0.40625 -3.1875q0 0.265625 -0.109375 0.5q-0.109375 0.21875 -0.28125 0.390625q-0.171875 0.171875 -0.40625 0.28125q-0.234375 0.09375 -0.484375 0.09375q-0.265625 0 -0.5 -0.09375q-0.21875 -0.109375 -0.390625 -0.28125q-0.171875 -0.171875 -0.28125 -0.390625q-0.09375 -0.234375 -0.09375 -0.5q0 -0.25 0.09375 -0.484375q0.109375 -0.25 0.28125 -0.421875q0.171875 -0.171875 0.390625 -0.265625q0.234375 -0.109375 0.5 -0.109375q0.25 0 0.484375 0.109375q0.234375 0.09375 0.40625 0.265625q0.171875 0.171875 0.28125 0.421875q0.109375 0.234375 0.109375 0.484375zm6.744995 3.015625q0.90625 0 1.671875 0.3125q0.78125 0.296875 1.34375 0.875q0.5625 0.578125 0.875 1.421875q0.3125 0.84375 0.3125 1.921875q0 0.421875 -0.09375 0.5625q-0.09375 0.140625 -0.34375 0.140625l-6.734375 0q0.015625 0.96875 0.25 1.671875q0.25 0.703125 0.671875 1.1875q0.421875 0.46875 1.0 0.703125q0.578125 0.234375 1.296875 0.234375q0.671875 0 1.15625 -0.140625q0.484375 -0.15625 0.828125 -0.34375q0.359375 -0.1875 0.59375 -0.328125q0.234375 -0.15625 0.40625 -0.15625q0.21875 0 0.34375 0.171875l0.5 0.640625q-0.34375 0.40625 -0.796875 0.703125q-0.453125 0.28125 -0.984375 0.484375q-0.53125 0.1875 -1.09375 0.28125q-0.546875 0.09375 -1.109375 0.09375q-1.046875 0 -1.9375 -0.34375q-0.875 -0.359375 -1.53125 -1.046875q-0.640625 -0.6875 -1.0 -1.6875q-0.359375 -1.015625 -0.359375 -2.328125q0 -1.0625 0.328125 -1.984375q0.328125 -0.921875 0.9375 -1.59375q0.609375 -0.671875 1.484375 -1.0625q0.890625 -0.390625 1.984375 -0.390625zm0.046875 1.3125q-1.296875 0 -2.046875 0.75q-0.734375 0.75 -0.90625 2.0625l5.5 0q0 -0.625 -0.171875 -1.125q-0.15625 -0.515625 -0.5 -0.890625q-0.328125 -0.375 -0.796875 -0.578125q-0.46875 -0.21875 -1.078125 -0.21875zm6.4174957 8.984375l0 -10.125l1.0625 0q0.390625 0 0.484375 0.359375l0.140625 1.109375q0.65625 -0.734375 1.46875 -1.1875q0.828125 -0.453125 1.890625 -0.453125q0.828125 0 1.453125 0.28125q0.640625 0.28125 1.0625 0.78125q0.4375 0.5 0.65625 1.21875q0.21875 0.703125 0.21875 1.5625l0 6.453125l-1.78125 0l0 -6.453125q0 -1.140625 -0.53125 -1.78125q-0.515625 -0.640625 -1.59375 -0.640625q-0.796875 0 -1.484375 0.390625q-0.6875 0.375 -1.265625 1.03125l0 7.453125l-1.78125 0zm14.19812 0.15625q-1.203125 0 -1.84375 -0.671875q-0.640625 -0.671875 -0.640625 -1.921875l0 -6.203125l-1.234375 0q-0.15625 0 -0.265625 -0.09375q-0.109375 -0.09375 -0.109375 -0.296875l0 -0.703125l1.65625 -0.21875l0.421875 -3.125q0.015625 -0.15625 0.125 -0.25q0.109375 -0.09375 0.28125 -0.09375l0.890625 0l0 3.484375l2.90625 0l0 1.296875l-2.90625 0l0 6.078125q0 0.640625 0.3125 0.953125q0.3125 0.3125 0.8125 0.3125q0.265625 0 0.46875 -0.078125q0.21875 -0.078125 0.359375 -0.15625q0.15625 -0.09375 0.25 -0.171875q0.109375 -0.078125 0.1875 -0.078125q0.140625 0 0.25 0.171875l0.53125 0.84375q-0.46875 0.4375 -1.125 0.6875q-0.640625 0.234375 -1.328125 0.234375z" fill-rule="nonzero"/><path fill="#000000" fill-opacity="0.0" d="m179.49738 212.1082l0 180.00002" fill-rule="evenodd"/><path stroke="#000000" stroke-width="3.0" stroke-linejoin="round" stroke-linecap="butt" d="m179.49738 212.1082l0 180.00002" fill-rule="evenodd"/><path fill="#000000" fill-opacity="0.0" d="m712.5501 183.99759l0 0c0 -3.1050262 2.5171509 -5.622162 5.6221313 -5.622162l210.17303 0c1.4910889 0 2.9210815 0.59233093 3.9754639 1.646698c1.0543823 1.0543518 1.6466675 2.484375 1.6466675 3.9754639l0 22.48796c0 3.1050415 -2.5170898 5.622162 -5.6221313 5.622162l-210.17303 0c-3.1049805 0 -5.6221313 -2.5171204 -5.6221313 -5.622162z" fill-rule="evenodd"/><path stroke="#000000" stroke-width="3.0" stroke-linejoin="round" stroke-linecap="butt" d="m712.5501 183.99759l0 0c0 -3.1050262 2.5171509 -5.622162 5.6221313 -5.622162l210.17303 0c1.4910889 0 2.9210815 0.59233093 3.9754639 1.646698c1.0543823 1.0543518 1.6466675 2.484375 1.6466675 3.9754639l0 22.48796c0 3.1050415 -2.5170898 5.622162 -5.6221313 5.622162l-210.17303 0c-3.1049805 0 -5.6221313 -2.5171204 -5.6221313 -5.622162z" fill-rule="evenodd"/><path fill="#000000" d="m814.61255 199.48845q0.15625 0 0.28125 0.125l0.765625 0.828125q-0.875 1.015625 -2.140625 1.59375q-1.25 0.5625 -3.015625 0.5625q-1.546875 0 -2.8125 -0.53125q-1.265625 -0.53125 -2.15625 -1.5q-0.890625 -0.96875 -1.375 -2.3125q-0.484375 -1.359375 -0.484375 -2.96875q0 -1.625 0.515625 -2.96875q0.53125 -1.359375 1.46875 -2.328125q0.953125 -0.96875 2.28125 -1.5q1.328125 -0.53125 2.921875 -0.53125q1.59375 0 2.734375 0.484375q1.140625 0.484375 2.03125 1.328125l-0.625 0.890625q-0.078125 0.09375 -0.171875 0.171875q-0.078125 0.0625 -0.25 0.0625q-0.125 0 -0.28125 -0.09375q-0.140625 -0.09375 -0.34375 -0.234375q-0.203125 -0.140625 -0.46875 -0.296875q-0.265625 -0.171875 -0.640625 -0.3125q-0.375 -0.140625 -0.859375 -0.234375q-0.484375 -0.09375 -1.125 -0.09375q-1.15625 0 -2.109375 0.40625q-0.953125 0.390625 -1.640625 1.125q-0.6875 0.71875 -1.078125 1.78125q-0.390625 1.046875 -0.390625 2.34375q0 1.34375 0.390625 2.390625q0.390625 1.046875 1.046875 1.78125q0.671875 0.71875 1.578125 1.09375q0.90625 0.375 1.953125 0.375q0.640625 0 1.15625 -0.0625q0.515625 -0.078125 0.9375 -0.234375q0.4375 -0.171875 0.8125 -0.40625q0.375 -0.25 0.765625 -0.59375q0.171875 -0.140625 0.328125 -0.140625zm16.012451 -4.203125q0 1.609375 -0.515625 2.9375q-0.5 1.3125 -1.4375 2.25q-0.921875 0.9375 -2.21875 1.453125q-1.296875 0.515625 -2.890625 0.515625l-5.359375 0l0 -14.328125l5.359375 0q1.59375 0 2.890625 0.515625q1.296875 0.515625 2.21875 1.46875q0.9375 0.9375 1.4375 2.265625q0.515625 1.3125 0.515625 2.921875zm-1.984375 0q0 -1.328125 -0.359375 -2.359375q-0.359375 -1.046875 -1.03125 -1.765625q-0.65625 -0.71875 -1.59375 -1.09375q-0.9375 -0.390625 -2.09375 -0.390625l-3.40625 0l0 11.203125l3.40625 0q1.15625 0 2.09375 -0.375q0.9375 -0.390625 1.59375 -1.109375q0.671875 -0.71875 1.03125 -1.75q0.359375 -1.046875 0.359375 -2.359375zm6.7631226 1.796875l0 5.359375l-1.9375 0l0 -14.328125l4.234375 0q1.359375 0 2.359375 0.3125q1.015625 0.3125 1.671875 0.890625q0.65625 0.578125 0.984375 1.40625q0.328125 0.8125 0.328125 1.828125q0 1.0 -0.359375 1.828125q-0.34375 0.828125 -1.03125 1.4375q-0.671875 0.59375 -1.671875 0.9375q-1.0 0.328125 -2.28125 0.328125l-2.296875 0zm0 -1.546875l2.296875 0q0.828125 0 1.453125 -0.21875q0.640625 -0.21875 1.0625 -0.609375q0.4375 -0.390625 0.65625 -0.9375q0.21875 -0.5625 0.21875 -1.21875q0 -1.375 -0.84375 -2.140625q-0.84375 -0.765625 -2.546875 -0.765625l-2.296875 0l0 5.890625z" fill-rule="nonzero"/><path fill="#000000" fill-opacity="0.0" d="m823.2588 212.10771l0 177.00789" fill-rule="evenodd"/><path stroke="#000000" stroke-width="3.0" stroke-linejoin="round" stroke-linecap="butt" d="m823.2588 212.10771l0 177.00789" fill-rule="evenodd"/><path fill="#000000" fill-opacity="0.0" d="m181.52007 267.0347l641.31696 0" fill-rule="evenodd"/><path stroke="#434343" stroke-width="1.0" stroke-linejoin="round" stroke-linecap="butt" d="m181.52008 267.0347l635.31696 0" fill-rule="evenodd"/><path fill="#434343" stroke="#434343" stroke-width="1.0" stroke-linecap="butt" d="m816.83704 268.68643l4.538086 -1.6517334l-4.538086 -1.6517334z" fill-rule="evenodd"/><path fill="#000000" fill-opacity="0.0" d="m204.38846 233.28609l476.56693 0l0 33.732285l-476.56693 0z" fill-rule="evenodd"/><path fill="#000000" d="m214.48221 250.86484l0 4.78125l-1.546875 0l0 -11.46875l3.25 0q1.078125 0 1.875 0.21875q0.796875 0.21875 1.3125 0.640625q0.515625 0.421875 0.75 1.015625q0.25 0.578125 0.25 1.3125q0 0.59375 -0.1875 1.125q-0.1875 0.53125 -0.5625 0.953125q-0.359375 0.421875 -0.890625 0.71875q-0.515625 0.296875 -1.171875 0.4375q0.28125 0.171875 0.515625 0.5l3.34375 4.546875l-1.390625 0q-0.421875 0 -0.609375 -0.328125l-2.984375 -4.09375q-0.140625 -0.1875 -0.296875 -0.265625q-0.15625 -0.09375 -0.484375 -0.09375l-1.171875 0zm0 -1.125l1.625 0q0.6875 0 1.203125 -0.15625q0.515625 -0.171875 0.859375 -0.46875q0.34375 -0.3125 0.515625 -0.71875q0.1875 -0.421875 0.1875 -0.921875q0 -1.03125 -0.6875 -1.546875q-0.671875 -0.515625 -2.0 -0.515625l-1.703125 0l0 4.328125zm11.585114 -2.328125q0.734375 0 1.34375 0.25q0.609375 0.234375 1.0625 0.703125q0.453125 0.453125 0.703125 1.140625q0.25 0.671875 0.25 1.53125q0 0.34375 -0.078125 0.453125q-0.0625 0.109375 -0.265625 0.109375l-5.390625 0q0.015625 0.765625 0.203125 1.34375q0.203125 0.5625 0.53125 0.9375q0.34375 0.375 0.796875 0.5625q0.46875 0.1875 1.046875 0.1875q0.53125 0 0.921875 -0.109375q0.390625 -0.125 0.671875 -0.265625q0.28125 -0.15625 0.46875 -0.28125q0.1875 -0.125 0.3125 -0.125q0.1875 0 0.28125 0.140625l0.390625 0.515625q-0.25 0.328125 -0.625 0.5625q-0.375 0.234375 -0.796875 0.390625q-0.40625 0.140625 -0.859375 0.21875q-0.453125 0.078125 -0.890625 0.078125q-0.84375 0 -1.546875 -0.28125q-0.703125 -0.28125 -1.21875 -0.828125q-0.515625 -0.546875 -0.8125 -1.359375q-0.28125 -0.8125 -0.28125 -1.859375q0 -0.84375 0.25 -1.578125q0.265625 -0.734375 0.75 -1.265625q0.5 -0.546875 1.203125 -0.859375q0.703125 -0.3125 1.578125 -0.3125zm0.03125 1.046875q-1.03125 0 -1.625 0.609375q-0.59375 0.59375 -0.734375 1.640625l4.40625 0q0 -0.5 -0.140625 -0.90625q-0.125 -0.40625 -0.390625 -0.703125q-0.265625 -0.3125 -0.65625 -0.46875q-0.375 -0.171875 -0.859375 -0.171875zm11.696396 -0.921875l0 10.859375l-1.421875 0l0 -3.953125q-0.515625 0.59375 -1.171875 0.953125q-0.640625 0.359375 -1.484375 0.359375q-0.703125 0 -1.265625 -0.265625q-0.5625 -0.265625 -0.96875 -0.78125q-0.390625 -0.53125 -0.609375 -1.296875q-0.21875 -0.78125 -0.21875 -1.796875q0 -0.890625 0.234375 -1.65625q0.25 -0.78125 0.6875 -1.34375q0.453125 -0.5625 1.09375 -0.890625q0.65625 -0.328125 1.484375 -0.328125q0.78125 0 1.328125 0.28125q0.546875 0.28125 0.984375 0.796875l0.09375 -0.640625q0.078125 -0.296875 0.390625 -0.296875l0.84375 0zm-3.609375 7.0625q0.703125 0 1.21875 -0.3125q0.53125 -0.328125 0.96875 -0.90625l0 -3.921875q-0.390625 -0.515625 -0.859375 -0.734375q-0.46875 -0.21875 -1.03125 -0.21875q-1.140625 0 -1.75 0.8125q-0.609375 0.8125 -0.609375 2.296875q0 0.796875 0.125 1.359375q0.140625 0.5625 0.40625 0.9375q0.265625 0.359375 0.640625 0.53125q0.390625 0.15625 0.890625 0.15625zm7.240753 -7.0625l0 5.171875q0 0.921875 0.421875 1.421875q0.421875 0.5 1.28125 0.5q0.625 0 1.171875 -0.28125q0.546875 -0.296875 1.015625 -0.828125l0 -5.984375l1.421875 0l0 8.109375l-0.84375 0q-0.3125 0 -0.390625 -0.296875l-0.109375 -0.875q-0.53125 0.59375 -1.1875 0.953125q-0.65625 0.34375 -1.5 0.34375q-0.65625 0 -1.171875 -0.21875q-0.5 -0.21875 -0.859375 -0.609375q-0.34375 -0.40625 -0.515625 -0.96875q-0.171875 -0.578125 -0.171875 -1.265625l0 -5.171875l1.4375 0zm10.864639 -0.125q0.734375 0 1.34375 0.25q0.609375 0.234375 1.0625 0.703125q0.453125 0.453125 0.703125 1.140625q0.25 0.671875 0.25 1.53125q0 0.34375 -0.078125 0.453125q-0.0625 0.109375 -0.265625 0.109375l-5.390625 0q0.015625 0.765625 0.203125 1.34375q0.203125 0.5625 0.53125 0.9375q0.34375 0.375 0.796875 0.5625q0.46875 0.1875 1.046875 0.1875q0.53125 0 0.921875 -0.109375q0.390625 -0.125 0.671875 -0.265625q0.28125 -0.15625 0.46875 -0.28125q0.1875 -0.125 0.3125 -0.125q0.1875 0 0.28125 0.140625l0.390625 0.515625q-0.25 0.328125 -0.625 0.5625q-0.375 0.234375 -0.796875 0.390625q-0.40625 0.140625 -0.859375 0.21875q-0.453125 0.078125 -0.890625 0.078125q-0.84375 0 -1.546875 -0.28125q-0.703125 -0.28125 -1.21875 -0.828125q-0.515625 -0.546875 -0.8125 -1.359375q-0.28125 -0.8125 -0.28125 -1.859375q0 -0.84375 0.25 -1.578125q0.265625 -0.734375 0.75 -1.265625q0.5 -0.546875 1.203125 -0.859375q0.703125 -0.3125 1.578125 -0.3125zm0.03125 1.046875q-1.03125 0 -1.625 0.609375q-0.59375 0.59375 -0.734375 1.640625l4.40625 0q0 -0.5 -0.140625 -0.90625q-0.125 -0.40625 -0.390625 -0.703125q-0.265625 -0.3125 -0.65625 -0.46875q-0.375 -0.171875 -0.859375 -0.171875zm9.790131 0.421875q-0.09375 0.171875 -0.296875 0.171875q-0.125 0 -0.28125 -0.078125q-0.140625 -0.09375 -0.375 -0.203125q-0.21875 -0.109375 -0.515625 -0.203125q-0.296875 -0.09375 -0.71875 -0.09375q-0.359375 0 -0.65625 0.09375q-0.28125 0.09375 -0.484375 0.265625q-0.203125 0.15625 -0.3125 0.375q-0.109375 0.203125 -0.109375 0.453125q0 0.296875 0.171875 0.515625q0.1875 0.203125 0.484375 0.359375q0.296875 0.15625 0.671875 0.265625q0.375 0.109375 0.765625 0.25q0.40625 0.125 0.78125 0.296875q0.375 0.15625 0.671875 0.40625q0.296875 0.234375 0.46875 0.578125q0.1875 0.34375 0.1875 0.828125q0 0.5625 -0.203125 1.046875q-0.203125 0.46875 -0.59375 0.828125q-0.390625 0.34375 -0.96875 0.546875q-0.5625 0.1875 -1.296875 0.1875q-0.84375 0 -1.546875 -0.265625q-0.6875 -0.28125 -1.15625 -0.71875l0.328125 -0.546875q0.0625 -0.09375 0.15625 -0.140625q0.09375 -0.0625 0.234375 -0.0625q0.140625 0 0.296875 0.109375q0.171875 0.109375 0.390625 0.25q0.234375 0.125 0.546875 0.25q0.328125 0.109375 0.8125 0.109375q0.421875 0 0.734375 -0.109375q0.3125 -0.109375 0.515625 -0.296875q0.21875 -0.1875 0.3125 -0.421875q0.09375 -0.234375 0.09375 -0.515625q0 -0.328125 -0.1875 -0.546875q-0.171875 -0.234375 -0.46875 -0.375q-0.296875 -0.15625 -0.671875 -0.265625q-0.375 -0.125 -0.78125 -0.25q-0.390625 -0.140625 -0.78125 -0.296875q-0.375 -0.171875 -0.671875 -0.40625q-0.28125 -0.25 -0.46875 -0.609375q-0.171875 -0.375 -0.171875 -0.890625q0 -0.46875 0.1875 -0.890625q0.1875 -0.4375 0.546875 -0.75q0.375 -0.328125 0.90625 -0.515625q0.546875 -0.203125 1.234375 -0.203125q0.796875 0 1.421875 0.25q0.640625 0.25 1.109375 0.703125l-0.3125 0.515625zm4.7564087 6.890625q-0.96875 0 -1.484375 -0.53125q-0.515625 -0.53125 -0.515625 -1.546875l0 -4.953125l-0.96875 0q-0.125 0 -0.21875 -0.078125q-0.078125 -0.078125 -0.078125 -0.234375l0 -0.578125l1.328125 -0.15625l0.328125 -2.515625q0.015625 -0.109375 0.09375 -0.1875q0.09375 -0.078125 0.234375 -0.078125l0.71875 0l0 2.796875l2.3125 0l0 1.03125l-2.3125 0l0 4.859375q0 0.515625 0.234375 0.765625q0.25 0.234375 0.640625 0.234375q0.234375 0 0.390625 -0.046875q0.171875 -0.0625 0.28125 -0.125q0.125 -0.078125 0.203125 -0.140625q0.09375 -0.0625 0.15625 -0.0625q0.109375 0 0.203125 0.140625l0.40625 0.671875q-0.359375 0.34375 -0.890625 0.546875q-0.515625 0.1875 -1.0625 0.1875zm6.602783 2.625l0 -10.859375l0.84375 0q0.296875 0 0.390625 0.296875l0.109375 0.96875q0.53125 -0.640625 1.1875 -1.015625q0.671875 -0.390625 1.546875 -0.390625q0.6875 0 1.25 0.265625q0.578125 0.265625 0.96875 0.796875q0.40625 0.53125 0.625 1.3125q0.21875 0.765625 0.21875 1.765625q0 0.90625 -0.25 1.6875q-0.234375 0.765625 -0.6875 1.328125q-0.4375 0.5625 -1.09375 0.890625q-0.65625 0.3125 -1.46875 0.3125q-0.75 0 -1.28125 -0.25q-0.53125 -0.25 -0.9375 -0.703125l0 3.59375l-1.421875 0zm3.609375 -9.84375q-0.703125 0 -1.234375 0.328125q-0.515625 0.3125 -0.953125 0.890625l0 3.921875q0.390625 0.53125 0.859375 0.75q0.46875 0.21875 1.046875 0.21875q1.125 0 1.734375 -0.8125q0.609375 -0.8125 0.609375 -2.3125q0 -0.78125 -0.140625 -1.34375q-0.140625 -0.578125 -0.40625 -0.9375q-0.265625 -0.375 -0.65625 -0.53125q-0.375 -0.171875 -0.859375 -0.171875zm5.2225037 7.09375l0 -8.109375l0.8125 0q0.234375 0 0.3125 0.09375q0.09375 0.09375 0.125 0.296875l0.09375 1.265625q0.421875 -0.84375 1.03125 -1.3125q0.609375 -0.484375 1.4375 -0.484375q0.328125 0 0.59375 0.078125q0.28125 0.078125 0.515625 0.21875l-0.1875 1.0625q-0.046875 0.1875 -0.25 0.1875q-0.109375 0 -0.34375 -0.0625q-0.21875 -0.078125 -0.640625 -0.078125q-0.75 0 -1.25 0.4375q-0.5 0.421875 -0.828125 1.25l0 5.15625l-1.421875 0zm9.729187 -8.234375q0.875 0 1.59375 0.296875q0.71875 0.296875 1.21875 0.84375q0.5 0.546875 0.765625 1.3125q0.265625 0.765625 0.265625 1.71875q0 0.96875 -0.265625 1.734375q-0.265625 0.765625 -0.765625 1.3125q-0.5 0.546875 -1.21875 0.84375q-0.71875 0.28125 -1.59375 0.28125q-0.890625 0 -1.609375 -0.28125q-0.71875 -0.296875 -1.21875 -0.84375q-0.5 -0.546875 -0.78125 -1.3125q-0.265625 -0.765625 -0.265625 -1.734375q0 -0.953125 0.265625 -1.71875q0.28125 -0.765625 0.78125 -1.3125q0.5 -0.546875 1.21875 -0.84375q0.71875 -0.296875 1.609375 -0.296875zm0 7.234375q1.1875 0 1.78125 -0.796875q0.59375 -0.8125 0.59375 -2.25q0 -1.453125 -0.59375 -2.25q-0.59375 -0.8125 -1.78125 -0.8125q-0.609375 0 -1.0625 0.203125q-0.453125 0.203125 -0.75 0.609375q-0.296875 0.390625 -0.453125 0.96875q-0.140625 0.5625 -0.140625 1.28125q0 0.71875 0.140625 1.296875q0.15625 0.5625 0.453125 0.953125q0.296875 0.375 0.75 0.59375q0.453125 0.203125 1.0625 0.203125zm5.927124 1.0l0 -6.890625l-0.890625 -0.09375q-0.171875 -0.046875 -0.28125 -0.125q-0.109375 -0.09375 -0.109375 -0.25l0 -0.578125l1.28125 0l0 -0.796875q0 -0.6875 0.1875 -1.21875q0.203125 -0.546875 0.5625 -0.921875q0.375 -0.375 0.875 -0.5625q0.515625 -0.1875 1.15625 -0.1875q0.546875 0 1.015625 0.15625l-0.03125 0.703125q-0.015625 0.171875 -0.140625 0.203125q-0.125 0.03125 -0.359375 0.03125l-0.25 0q-0.359375 0 -0.671875 0.09375q-0.296875 0.09375 -0.515625 0.3125q-0.203125 0.21875 -0.328125 0.578125q-0.109375 0.34375 -0.109375 0.859375l0 0.75l2.34375 0l0 1.03125l-2.296875 0l0 6.90625l-1.4375 0zm6.6575623 -8.109375l0 8.109375l-1.421875 0l0 -8.109375l1.421875 0zm0.328125 -2.53125q0 0.203125 -0.09375 0.390625q-0.078125 0.171875 -0.21875 0.3125q-0.140625 0.140625 -0.328125 0.21875q-0.1875 0.078125 -0.390625 0.078125q-0.203125 0 -0.390625 -0.078125q-0.171875 -0.078125 -0.3125 -0.21875q-0.140625 -0.140625 -0.21875 -0.3125q-0.078125 -0.1875 -0.078125 -0.390625q0 -0.21875 0.078125 -0.40625q0.078125 -0.1875 0.21875 -0.328125q0.140625 -0.140625 0.3125 -0.21875q0.1875 -0.078125 0.390625 -0.078125q0.203125 0 0.390625 0.078125q0.1875 0.078125 0.328125 0.21875q0.140625 0.140625 0.21875 0.328125q0.09375 0.1875 0.09375 0.40625zm3.7678223 -1.140625l0 11.78125l-1.421875 0l0 -11.78125l1.421875 0zm5.7209473 3.546875q0.734375 0 1.34375 0.25q0.609375 0.234375 1.0625 0.703125q0.453125 0.453125 0.703125 1.140625q0.25 0.671875 0.25 1.53125q0 0.34375 -0.078125 0.453125q-0.0625 0.109375 -0.265625 0.109375l-5.390625 0q0.015625 0.765625 0.203125 1.34375q0.203125 0.5625 0.53125 0.9375q0.34375 0.375 0.796875 0.5625q0.46875 0.1875 1.046875 0.1875q0.53125 0 0.921875 -0.109375q0.390625 -0.125 0.671875 -0.265625q0.28125 -0.15625 0.46875 -0.28125q0.1875 -0.125 0.3125 -0.125q0.1875 0 0.28125 0.140625l0.390625 0.515625q-0.25 0.328125 -0.625 0.5625q-0.375 0.234375 -0.796875 0.390625q-0.40625 0.140625 -0.859375 0.21875q-0.453125 0.078125 -0.890625 0.078125q-0.84375 0 -1.546875 -0.28125q-0.703125 -0.28125 -1.21875 -0.828125q-0.515625 -0.546875 -0.8125 -1.359375q-0.28125 -0.8125 -0.28125 -1.859375q0 -0.84375 0.25 -1.578125q0.265625 -0.734375 0.75 -1.265625q0.5 -0.546875 1.203125 -0.859375q0.703125 -0.3125 1.578125 -0.3125zm0.03125 1.046875q-1.03125 0 -1.625 0.609375q-0.59375 0.59375 -0.734375 1.640625l4.40625 0q0 -0.5 -0.140625 -0.90625q-0.125 -0.40625 -0.390625 -0.703125q-0.265625 -0.3125 -0.65625 -0.46875q-0.375 -0.171875 -0.859375 -0.171875zm13.768738 0.53125q-0.078125 0.078125 -0.140625 0.125q-0.0625 0.046875 -0.171875 0.046875q-0.125 0 -0.265625 -0.09375q-0.140625 -0.109375 -0.359375 -0.21875q-0.21875 -0.125 -0.53125 -0.21875q-0.296875 -0.109375 -0.75 -0.109375q-0.59375 0 -1.046875 0.21875q-0.453125 0.203125 -0.765625 0.609375q-0.296875 0.40625 -0.453125 0.96875q-0.15625 0.5625 -0.15625 1.265625q0 0.75 0.15625 1.328125q0.171875 0.5625 0.46875 0.953125q0.3125 0.375 0.75 0.59375q0.4375 0.203125 0.984375 0.203125q0.515625 0 0.84375 -0.125q0.34375 -0.125 0.5625 -0.28125q0.234375 -0.15625 0.375 -0.28125q0.140625 -0.125 0.28125 -0.125q0.1875 0 0.28125 0.140625l0.390625 0.515625q-0.53125 0.65625 -1.328125 0.953125q-0.78125 0.296875 -1.65625 0.296875q-0.765625 0 -1.421875 -0.28125q-0.640625 -0.28125 -1.125 -0.8125q-0.484375 -0.53125 -0.765625 -1.296875q-0.265625 -0.78125 -0.265625 -1.78125q0 -0.890625 0.25 -1.65625q0.25 -0.78125 0.734375 -1.328125q0.484375 -0.5625 1.1875 -0.875q0.71875 -0.3125 1.640625 -0.3125q0.84375 0 1.5 0.28125q0.65625 0.265625 1.171875 0.78125l-0.375 0.515625zm5.221924 -1.578125q0.875 0 1.59375 0.296875q0.71875 0.296875 1.21875 0.84375q0.5 0.546875 0.765625 1.3125q0.265625 0.765625 0.265625 1.71875q0 0.96875 -0.265625 1.734375q-0.265625 0.765625 -0.765625 1.3125q-0.5 0.546875 -1.21875 0.84375q-0.71875 0.28125 -1.59375 0.28125q-0.890625 0 -1.609375 -0.28125q-0.71875 -0.296875 -1.21875 -0.84375q-0.5 -0.546875 -0.78125 -1.3125q-0.265625 -0.765625 -0.265625 -1.734375q0 -0.953125 0.265625 -1.71875q0.28125 -0.765625 0.78125 -1.3125q0.5 -0.546875 1.21875 -0.84375q0.71875 -0.296875 1.609375 -0.296875zm0 7.234375q1.1875 0 1.78125 -0.796875q0.59375 -0.8125 0.59375 -2.25q0 -1.453125 -0.59375 -2.25q-0.59375 -0.8125 -1.78125 -0.8125q-0.609375 0 -1.0625 0.203125q-0.453125 0.203125 -0.75 0.609375q-0.296875 0.390625 -0.453125 0.96875q-0.140625 0.5625 -0.140625 1.28125q0 0.71875 0.140625 1.296875q0.15625 0.5625 0.453125 0.953125q0.296875 0.375 0.75 0.59375q0.453125 0.203125 1.0625 0.203125zm5.614624 1.0l0 -8.109375l0.84375 0q0.296875 0 0.390625 0.296875l0.109375 0.890625q0.53125 -0.59375 1.171875 -0.953125q0.65625 -0.359375 1.515625 -0.359375q0.65625 0 1.15625 0.21875q0.515625 0.21875 0.859375 0.625q0.34375 0.40625 0.515625 0.984375q0.171875 0.5625 0.171875 1.25l0 5.15625l-1.421875 0l0 -5.15625q0 -0.921875 -0.421875 -1.421875q-0.421875 -0.515625 -1.28125 -0.515625q-0.625 0 -1.171875 0.3125q-0.546875 0.296875 -1.015625 0.8125l0 5.96875l-1.421875 0zm13.53653 -6.765625q-0.09375 0.171875 -0.296875 0.171875q-0.125 0 -0.28125 -0.078125q-0.140625 -0.09375 -0.375 -0.203125q-0.21875 -0.109375 -0.515625 -0.203125q-0.296875 -0.09375 -0.71875 -0.09375q-0.359375 0 -0.65625 0.09375q-0.28125 0.09375 -0.484375 0.265625q-0.203125 0.15625 -0.3125 0.375q-0.109375 0.203125 -0.109375 0.453125q0 0.296875 0.171875 0.515625q0.1875 0.203125 0.484375 0.359375q0.296875 0.15625 0.671875 0.265625q0.375 0.109375 0.765625 0.25q0.40625 0.125 0.78125 0.296875q0.375 0.15625 0.671875 0.40625q0.296875 0.234375 0.46875 0.578125q0.1875 0.34375 0.1875 0.828125q0 0.5625 -0.203125 1.046875q-0.203125 0.46875 -0.59375 0.828125q-0.390625 0.34375 -0.96875 0.546875q-0.5625 0.1875 -1.296875 0.1875q-0.84375 0 -1.546875 -0.265625q-0.6875 -0.28125 -1.15625 -0.71875l0.328125 -0.546875q0.0625 -0.09375 0.15625 -0.140625q0.09375 -0.0625 0.234375 -0.0625q0.140625 0 0.296875 0.109375q0.171875 0.109375 0.390625 0.25q0.234375 0.125 0.546875 0.25q0.328125 0.109375 0.8125 0.109375q0.421875 0 0.734375 -0.109375q0.3125 -0.109375 0.515625 -0.296875q0.21875 -0.1875 0.3125 -0.421875q0.09375 -0.234375 0.09375 -0.515625q0 -0.328125 -0.1875 -0.546875q-0.171875 -0.234375 -0.46875 -0.375q-0.296875 -0.15625 -0.671875 -0.265625q-0.375 -0.125 -0.78125 -0.25q-0.390625 -0.140625 -0.78125 -0.296875q-0.375 -0.171875 -0.671875 -0.40625q-0.28125 -0.25 -0.46875 -0.609375q-0.171875 -0.375 -0.171875 -0.890625q0 -0.46875 0.1875 -0.890625q0.1875 -0.4375 0.546875 -0.75q0.375 -0.328125 0.90625 -0.515625q0.546875 -0.203125 1.234375 -0.203125q0.796875 0 1.421875 0.25q0.640625 0.25 1.109375 0.703125l-0.3125 0.515625zm5.5064087 -1.46875q0.734375 0 1.34375 0.25q0.609375 0.234375 1.0625 0.703125q0.453125 0.453125 0.703125 1.140625q0.25 0.671875 0.25 1.53125q0 0.34375 -0.078125 0.453125q-0.0625 0.109375 -0.265625 0.109375l-5.390625 0q0.015625 0.765625 0.203125 1.34375q0.203125 0.5625 0.53125 0.9375q0.34375 0.375 0.796875 0.5625q0.46875 0.1875 1.046875 0.1875q0.53125 0 0.921875 -0.109375q0.390625 -0.125 0.671875 -0.265625q0.28125 -0.15625 0.46875 -0.28125q0.1875 -0.125 0.3125 -0.125q0.1875 0 0.28125 0.140625l0.390625 0.515625q-0.25 0.328125 -0.625 0.5625q-0.375 0.234375 -0.796875 0.390625q-0.40625 0.140625 -0.859375 0.21875q-0.453125 0.078125 -0.890625 0.078125q-0.84375 0 -1.546875 -0.28125q-0.703125 -0.28125 -1.21875 -0.828125q-0.515625 -0.546875 -0.8125 -1.359375q-0.28125 -0.8125 -0.28125 -1.859375q0 -0.84375 0.25 -1.578125q0.265625 -0.734375 0.75 -1.265625q0.5 -0.546875 1.203125 -0.859375q0.703125 -0.3125 1.578125 -0.3125zm0.03125 1.046875q-1.03125 0 -1.625 0.609375q-0.59375 0.59375 -0.734375 1.640625l4.40625 0q0 -0.5 -0.140625 -0.90625q-0.125 -0.40625 -0.390625 -0.703125q-0.265625 -0.3125 -0.65625 -0.46875q-0.375 -0.171875 -0.859375 -0.171875zm5.1495056 7.1875l0 -8.109375l0.84375 0q0.296875 0 0.390625 0.296875l0.109375 0.890625q0.53125 -0.59375 1.171875 -0.953125q0.65625 -0.359375 1.515625 -0.359375q0.65625 0 1.15625 0.21875q0.515625 0.21875 0.859375 0.625q0.34375 0.40625 0.515625 0.984375q0.171875 0.5625 0.171875 1.25l0 5.15625l-1.421875 0l0 -5.15625q0 -0.921875 -0.421875 -1.421875q-0.421875 -0.515625 -1.28125 -0.515625q-0.625 0 -1.171875 0.3125q-0.546875 0.296875 -1.015625 0.8125l0 5.96875l-1.421875 0zm11.34903 0.125q-0.96875 0 -1.484375 -0.53125q-0.515625 -0.53125 -0.515625 -1.546875l0 -4.953125l-0.96875 0q-0.125 0 -0.21875 -0.078125q-0.078125 -0.078125 -0.078125 -0.234375l0 -0.578125l1.328125 -0.15625l0.328125 -2.515625q0.015625 -0.109375 0.09375 -0.1875q0.09375 -0.078125 0.234375 -0.078125l0.71875 0l0 2.796875l2.3125 0l0 1.03125l-2.3125 0l0 4.859375q0 0.515625 0.234375 0.765625q0.25 0.234375 0.640625 0.234375q0.234375 0 0.390625 -0.046875q0.171875 -0.0625 0.28125 -0.125q0.125 -0.078125 0.203125 -0.140625q0.09375 -0.0625 0.15625 -0.0625q0.109375 0 0.203125 0.140625l0.40625 0.671875q-0.359375 0.34375 -0.890625 0.546875q-0.515625 0.1875 -1.0625 0.1875zm8.155426 -6.890625q-0.09375 0.171875 -0.296875 0.171875q-0.125 0 -0.28125 -0.078125q-0.140625 -0.09375 -0.375 -0.203125q-0.21875 -0.109375 -0.515625 -0.203125q-0.296875 -0.09375 -0.71875 -0.09375q-0.359375 0 -0.65625 0.09375q-0.28125 0.09375 -0.484375 0.265625q-0.203125 0.15625 -0.3125 0.375q-0.109375 0.203125 -0.109375 0.453125q0 0.296875 0.171875 0.515625q0.1875 0.203125 0.484375 0.359375q0.296875 0.15625 0.671875 0.265625q0.375 0.109375 0.765625 0.25q0.40625 0.125 0.78125 0.296875q0.375 0.15625 0.671875 0.40625q0.296875 0.234375 0.46875 0.578125q0.1875 0.34375 0.1875 0.828125q0 0.5625 -0.203125 1.046875q-0.203125 0.46875 -0.59375 0.828125q-0.390625 0.34375 -0.96875 0.546875q-0.5625 0.1875 -1.296875 0.1875q-0.84375 0 -1.546875 -0.265625q-0.6875 -0.28125 -1.15625 -0.71875l0.328125 -0.546875q0.0625 -0.09375 0.15625 -0.140625q0.09375 -0.0625 0.234375 -0.0625q0.140625 0 0.296875 0.109375q0.171875 0.109375 0.390625 0.25q0.234375 0.125 0.546875 0.25q0.328125 0.109375 0.8125 0.109375q0.421875 0 0.734375 -0.109375q0.3125 -0.109375 0.515625 -0.296875q0.21875 -0.1875 0.3125 -0.421875q0.09375 -0.234375 0.09375 -0.515625q0 -0.328125 -0.1875 -0.546875q-0.171875 -0.234375 -0.46875 -0.375q-0.296875 -0.15625 -0.671875 -0.265625q-0.375 -0.125 -0.78125 -0.25q-0.390625 -0.140625 -0.78125 -0.296875q-0.375 -0.171875 -0.671875 -0.40625q-0.28125 -0.25 -0.46875 -0.609375q-0.171875 -0.375 -0.171875 -0.890625q0 -0.46875 0.1875 -0.890625q0.1875 -0.4375 0.546875 -0.75q0.375 -0.328125 0.90625 -0.515625q0.546875 -0.203125 1.234375 -0.203125q0.796875 0 1.421875 0.25q0.640625 0.25 1.109375 0.703125l-0.3125 0.515625z" fill-rule="nonzero"/><path fill="#000000" fill-opacity="0.0" d="m181.5415 313.56137l641.3228 0" fill-rule="evenodd"/><path stroke="#434343" stroke-width="1.0" stroke-linejoin="round" stroke-linecap="butt" d="m187.5415 313.56137l635.3228 0" fill-rule="evenodd"/><path fill="#434343" stroke="#434343" stroke-width="1.0" stroke-linecap="butt" d="m187.5415 311.90964l-4.538101 1.6517334l4.538101 1.6517334z" fill-rule="evenodd"/><path fill="#000000" fill-opacity="0.0" d="m204.38846 282.88583l543.65356 0l0 33.73227l-543.65356 0z" fill-rule="evenodd"/><path fill="#000000" d="m214.48221 300.96457l0 4.28125l-1.546875 0l0 -11.46875l3.390625 0q1.09375 0 1.890625 0.265625q0.796875 0.25 1.328125 0.71875q0.53125 0.453125 0.78125 1.109375q0.265625 0.65625 0.265625 1.46875q0 0.796875 -0.28125 1.46875q-0.28125 0.65625 -0.828125 1.140625q-0.53125 0.46875 -1.328125 0.75q-0.796875 0.265625 -1.828125 0.265625l-1.84375 0zm0 -1.234375l1.84375 0q0.65625 0 1.15625 -0.171875q0.515625 -0.1875 0.859375 -0.5q0.34375 -0.3125 0.515625 -0.75q0.1875 -0.453125 0.1875 -0.96875q0 -1.109375 -0.6875 -1.71875q-0.671875 -0.609375 -2.03125 -0.609375l-1.84375 0l0 4.71875zm7.854004 5.515625l0 -8.109375l0.8125 0q0.234375 0 0.3125 0.09375q0.09375 0.09375 0.125 0.296875l0.09375 1.265625q0.421875 -0.84375 1.03125 -1.3125q0.609375 -0.484375 1.4375 -0.484375q0.328125 0 0.59375 0.078125q0.28125 0.078125 0.515625 0.21875l-0.1875 1.0625q-0.046875 0.1875 -0.25 0.1875q-0.109375 0 -0.34375 -0.0625q-0.21875 -0.078125 -0.640625 -0.078125q-0.75 0 -1.25 0.4375q-0.5 0.421875 -0.828125 1.25l0 5.15625l-1.421875 0zm9.729172 -8.234375q0.875 0 1.59375 0.296875q0.71875 0.296875 1.21875 0.84375q0.5 0.546875 0.765625 1.3125q0.265625 0.765625 0.265625 1.71875q0 0.96875 -0.265625 1.734375q-0.265625 0.765625 -0.765625 1.3125q-0.5 0.546875 -1.21875 0.84375q-0.71875 0.28125 -1.59375 0.28125q-0.890625 0 -1.609375 -0.28125q-0.71875 -0.296875 -1.21875 -0.84375q-0.5 -0.546875 -0.78125 -1.3125q-0.265625 -0.765625 -0.265625 -1.734375q0 -0.953125 0.265625 -1.71875q0.28125 -0.765625 0.78125 -1.3125q0.5 -0.546875 1.21875 -0.84375q0.71875 -0.296875 1.609375 -0.296875zm0 7.234375q1.1875 0 1.78125 -0.796875q0.59375 -0.8125 0.59375 -2.25q0 -1.453125 -0.59375 -2.25q-0.59375 -0.8125 -1.78125 -0.8125q-0.609375 0 -1.0625 0.203125q-0.453125 0.203125 -0.75 0.609375q-0.296875 0.390625 -0.453125 0.96875q-0.140625 0.5625 -0.140625 1.28125q0 0.71875 0.140625 1.296875q0.15625 0.5625 0.453125 0.953125q0.296875 0.375 0.75 0.59375q0.453125 0.203125 1.0625 0.203125zm5.9271393 1.0l0 -6.890625l-0.890625 -0.09375q-0.171875 -0.046875 -0.28125 -0.125q-0.109375 -0.09375 -0.109375 -0.25l0 -0.578125l1.28125 0l0 -0.796875q0 -0.6875 0.1875 -1.21875q0.203125 -0.546875 0.5625 -0.921875q0.375 -0.375 0.875 -0.5625q0.515625 -0.1875 1.15625 -0.1875q0.546875 0 1.015625 0.15625l-0.03125 0.703125q-0.015625 0.171875 -0.140625 0.203125q-0.125 0.03125 -0.359375 0.03125l-0.25 0q-0.359375 0 -0.671875 0.09375q-0.296875 0.09375 -0.515625 0.3125q-0.203125 0.21875 -0.328125 0.578125q-0.109375 0.34375 -0.109375 0.859375l0 0.75l2.34375 0l0 1.03125l-2.296875 0l0 6.90625l-1.4375 0zm6.6575623 -8.109375l0 8.109375l-1.421875 0l0 -8.109375l1.421875 0zm0.328125 -2.53125q0 0.203125 -0.09375 0.390625q-0.078125 0.171875 -0.21875 0.3125q-0.140625 0.140625 -0.328125 0.21875q-0.1875 0.078125 -0.390625 0.078125q-0.203125 0 -0.390625 -0.078125q-0.171875 -0.078125 -0.3125 -0.21875q-0.140625 -0.140625 -0.21875 -0.3125q-0.078125 -0.1875 -0.078125 -0.390625q0 -0.21875 0.078125 -0.40625q0.078125 -0.1875 0.21875 -0.328125q0.140625 -0.140625 0.3125 -0.21875q0.1875 -0.078125 0.390625 -0.078125q0.203125 0 0.390625 0.078125q0.1875 0.078125 0.328125 0.21875q0.140625 0.140625 0.21875 0.328125q0.09375 0.1875 0.09375 0.40625zm3.7678223 -1.140625l0 11.78125l-1.421875 0l0 -11.78125l1.421875 0zm5.7209473 3.546875q0.734375 0 1.34375 0.25q0.609375 0.234375 1.0625 0.703125q0.453125 0.453125 0.703125 1.140625q0.25 0.671875 0.25 1.53125q0 0.34375 -0.078125 0.453125q-0.0625 0.109375 -0.265625 0.109375l-5.390625 0q0.015625 0.765625 0.203125 1.34375q0.203125 0.5625 0.53125 0.9375q0.34375 0.375 0.796875 0.5625q0.46875 0.1875 1.046875 0.1875q0.53125 0 0.921875 -0.109375q0.390625 -0.125 0.671875 -0.265625q0.28125 -0.15625 0.46875 -0.28125q0.1875 -0.125 0.3125 -0.125q0.1875 0 0.28125 0.140625l0.390625 0.515625q-0.25 0.328125 -0.625 0.5625q-0.375 0.234375 -0.796875 0.390625q-0.40625 0.140625 -0.859375 0.21875q-0.453125 0.078125 -0.890625 0.078125q-0.84375 0 -1.546875 -0.28125q-0.703125 -0.28125 -1.21875 -0.828125q-0.515625 -0.546875 -0.8125 -1.359375q-0.28125 -0.8125 -0.28125 -1.859375q0 -0.84375 0.25 -1.578125q0.265625 -0.734375 0.75 -1.265625q0.5 -0.546875 1.203125 -0.859375q0.703125 -0.3125 1.578125 -0.3125zm0.03125 1.046875q-1.03125 0 -1.625 0.609375q-0.59375 0.59375 -0.734375 1.640625l4.40625 0q0 -0.5 -0.140625 -0.90625q-0.125 -0.40625 -0.390625 -0.703125q-0.265625 -0.3125 -0.65625 -0.46875q-0.375 -0.171875 -0.859375 -0.171875zm13.768738 0.53125q-0.078125 0.078125 -0.140625 0.125q-0.0625 0.046875 -0.171875 0.046875q-0.125 0 -0.265625 -0.09375q-0.140625 -0.109375 -0.359375 -0.21875q-0.21875 -0.125 -0.53125 -0.21875q-0.296875 -0.109375 -0.75 -0.109375q-0.59375 0 -1.046875 0.21875q-0.453125 0.203125 -0.765625 0.609375q-0.296875 0.40625 -0.453125 0.96875q-0.15625 0.5625 -0.15625 1.265625q0 0.75 0.15625 1.328125q0.171875 0.5625 0.46875 0.953125q0.3125 0.375 0.75 0.59375q0.4375 0.203125 0.984375 0.203125q0.515625 0 0.84375 -0.125q0.34375 -0.125 0.5625 -0.28125q0.234375 -0.15625 0.375 -0.28125q0.140625 -0.125 0.28125 -0.125q0.1875 0 0.28125 0.140625l0.390625 0.515625q-0.53125 0.65625 -1.328125 0.953125q-0.78125 0.296875 -1.65625 0.296875q-0.765625 0 -1.421875 -0.28125q-0.640625 -0.28125 -1.125 -0.8125q-0.484375 -0.53125 -0.765625 -1.296875q-0.265625 -0.78125 -0.265625 -1.78125q0 -0.890625 0.25 -1.65625q0.25 -0.78125 0.734375 -1.328125q0.484375 -0.5625 1.1875 -0.875q0.71875 -0.3125 1.640625 -0.3125q0.84375 0 1.5 0.28125q0.65625 0.265625 1.171875 0.78125l-0.375 0.515625zm5.2218933 -1.578125q0.875 0 1.59375 0.296875q0.71875 0.296875 1.21875 0.84375q0.5 0.546875 0.765625 1.3125q0.265625 0.765625 0.265625 1.71875q0 0.96875 -0.265625 1.734375q-0.265625 0.765625 -0.765625 1.3125q-0.5 0.546875 -1.21875 0.84375q-0.71875 0.28125 -1.59375 0.28125q-0.890625 0 -1.609375 -0.28125q-0.71875 -0.296875 -1.21875 -0.84375q-0.5 -0.546875 -0.78125 -1.3125q-0.265625 -0.765625 -0.265625 -1.734375q0 -0.953125 0.265625 -1.71875q0.28125 -0.765625 0.78125 -1.3125q0.5 -0.546875 1.21875 -0.84375q0.71875 -0.296875 1.609375 -0.296875zm0 7.234375q1.1875 0 1.78125 -0.796875q0.59375 -0.8125 0.59375 -2.25q0 -1.453125 -0.59375 -2.25q-0.59375 -0.8125 -1.78125 -0.8125q-0.609375 0 -1.0625 0.203125q-0.453125 0.203125 -0.75 0.609375q-0.296875 0.390625 -0.453125 0.96875q-0.140625 0.5625 -0.140625 1.28125q0 0.71875 0.140625 1.296875q0.15625 0.5625 0.453125 0.953125q0.296875 0.375 0.75 0.59375q0.453125 0.203125 1.0625 0.203125zm5.6146545 1.0l0 -8.109375l0.84375 0q0.296875 0 0.390625 0.296875l0.109375 0.890625q0.53125 -0.59375 1.171875 -0.953125q0.65625 -0.359375 1.515625 -0.359375q0.65625 0 1.15625 0.21875q0.515625 0.21875 0.859375 0.625q0.34375 0.40625 0.515625 0.984375q0.171875 0.5625 0.171875 1.25l0 5.15625l-1.421875 0l0 -5.15625q0 -0.921875 -0.421875 -1.421875q-0.421875 -0.515625 -1.28125 -0.515625q-0.625 0 -1.171875 0.3125q-0.546875 0.296875 -1.015625 0.8125l0 5.96875l-1.421875 0zm13.536499 -6.765625q-0.09375 0.171875 -0.296875 0.171875q-0.125 0 -0.28125 -0.078125q-0.140625 -0.09375 -0.375 -0.203125q-0.21875 -0.109375 -0.515625 -0.203125q-0.296875 -0.09375 -0.71875 -0.09375q-0.359375 0 -0.65625 0.09375q-0.28125 0.09375 -0.484375 0.265625q-0.203125 0.15625 -0.3125 0.375q-0.109375 0.203125 -0.109375 0.453125q0 0.296875 0.171875 0.515625q0.1875 0.203125 0.484375 0.359375q0.296875 0.15625 0.671875 0.265625q0.375 0.109375 0.765625 0.25q0.40625 0.125 0.78125 0.296875q0.375 0.15625 0.671875 0.40625q0.296875 0.234375 0.46875 0.578125q0.1875 0.34375 0.1875 0.828125q0 0.5625 -0.203125 1.046875q-0.203125 0.46875 -0.59375 0.828125q-0.390625 0.34375 -0.96875 0.546875q-0.5625 0.1875 -1.296875 0.1875q-0.84375 0 -1.546875 -0.265625q-0.6875 -0.28125 -1.15625 -0.71875l0.328125 -0.546875q0.0625 -0.09375 0.15625 -0.140625q0.09375 -0.0625 0.234375 -0.0625q0.140625 0 0.296875 0.109375q0.171875 0.109375 0.390625 0.25q0.234375 0.125 0.546875 0.25q0.328125 0.109375 0.8125 0.109375q0.421875 0 0.734375 -0.109375q0.3125 -0.109375 0.515625 -0.296875q0.21875 -0.1875 0.3125 -0.421875q0.09375 -0.234375 0.09375 -0.515625q0 -0.328125 -0.1875 -0.546875q-0.171875 -0.234375 -0.46875 -0.375q-0.296875 -0.15625 -0.671875 -0.265625q-0.375 -0.125 -0.78125 -0.25q-0.390625 -0.140625 -0.78125 -0.296875q-0.375 -0.171875 -0.671875 -0.40625q-0.28125 -0.25 -0.46875 -0.609375q-0.171875 -0.375 -0.171875 -0.890625q0 -0.46875 0.1875 -0.890625q0.1875 -0.4375 0.546875 -0.75q0.375 -0.328125 0.90625 -0.515625q0.546875 -0.203125 1.234375 -0.203125q0.796875 0 1.421875 0.25q0.640625 0.25 1.109375 0.703125l-0.3125 0.515625zm5.5064087 -1.46875q0.734375 0 1.34375 0.25q0.609375 0.234375 1.0625 0.703125q0.453125 0.453125 0.703125 1.140625q0.25 0.671875 0.25 1.53125q0 0.34375 -0.078125 0.453125q-0.0625 0.109375 -0.265625 0.109375l-5.390625 0q0.015625 0.765625 0.203125 1.34375q0.203125 0.5625 0.53125 0.9375q0.34375 0.375 0.796875 0.5625q0.46875 0.1875 1.046875 0.1875q0.53125 0 0.921875 -0.109375q0.390625 -0.125 0.671875 -0.265625q0.28125 -0.15625 0.46875 -0.28125q0.1875 -0.125 0.3125 -0.125q0.1875 0 0.28125 0.140625l0.390625 0.515625q-0.25 0.328125 -0.625 0.5625q-0.375 0.234375 -0.796875 0.390625q-0.40625 0.140625 -0.859375 0.21875q-0.453125 0.078125 -0.890625 0.078125q-0.84375 0 -1.546875 -0.28125q-0.703125 -0.28125 -1.21875 -0.828125q-0.515625 -0.546875 -0.8125 -1.359375q-0.28125 -0.8125 -0.28125 -1.859375q0 -0.84375 0.25 -1.578125q0.265625 -0.734375 0.75 -1.265625q0.5 -0.546875 1.203125 -0.859375q0.703125 -0.3125 1.578125 -0.3125zm0.03125 1.046875q-1.03125 0 -1.625 0.609375q-0.59375 0.59375 -0.734375 1.640625l4.40625 0q0 -0.5 -0.140625 -0.90625q-0.125 -0.40625 -0.390625 -0.703125q-0.265625 -0.3125 -0.65625 -0.46875q-0.375 -0.171875 -0.859375 -0.171875zm5.149536 7.1875l0 -8.109375l0.84375 0q0.296875 0 0.390625 0.296875l0.109375 0.890625q0.53125 -0.59375 1.171875 -0.953125q0.65625 -0.359375 1.515625 -0.359375q0.65625 0 1.15625 0.21875q0.515625 0.21875 0.859375 0.625q0.34375 0.40625 0.515625 0.984375q0.171875 0.5625 0.171875 1.25l0 5.15625l-1.421875 0l0 -5.15625q0 -0.921875 -0.421875 -1.421875q-0.421875 -0.515625 -1.28125 -0.515625q-0.625 0 -1.171875 0.3125q-0.546875 0.296875 -1.015625 0.8125l0 5.96875l-1.421875 0zm11.348999 0.125q-0.96875 0 -1.484375 -0.53125q-0.515625 -0.53125 -0.515625 -1.546875l0 -4.953125l-0.96875 0q-0.125 0 -0.21875 -0.078125q-0.078125 -0.078125 -0.078125 -0.234375l0 -0.578125l1.328125 -0.15625l0.328125 -2.515625q0.015625 -0.109375 0.09375 -0.1875q0.09375 -0.078125 0.234375 -0.078125l0.71875 0l0 2.796875l2.3125 0l0 1.03125l-2.3125 0l0 4.859375q0 0.515625 0.234375 0.765625q0.25 0.234375 0.640625 0.234375q0.234375 0 0.390625 -0.046875q0.171875 -0.0625 0.28125 -0.125q0.125 -0.078125 0.203125 -0.140625q0.09375 -0.0625 0.15625 -0.0625q0.109375 0 0.203125 0.140625l0.40625 0.671875q-0.359375 0.34375 -0.890625 0.546875q-0.515625 0.1875 -1.0625 0.1875zm8.155426 -6.890625q-0.09375 0.171875 -0.296875 0.171875q-0.125 0 -0.28125 -0.078125q-0.140625 -0.09375 -0.375 -0.203125q-0.21875 -0.109375 -0.515625 -0.203125q-0.296875 -0.09375 -0.71875 -0.09375q-0.359375 0 -0.65625 0.09375q-0.28125 0.09375 -0.484375 0.265625q-0.203125 0.15625 -0.3125 0.375q-0.109375 0.203125 -0.109375 0.453125q0 0.296875 0.171875 0.515625q0.1875 0.203125 0.484375 0.359375q0.296875 0.15625 0.671875 0.265625q0.375 0.109375 0.765625 0.25q0.40625 0.125 0.78125 0.296875q0.375 0.15625 0.671875 0.40625q0.296875 0.234375 0.46875 0.578125q0.1875 0.34375 0.1875 0.828125q0 0.5625 -0.203125 1.046875q-0.203125 0.46875 -0.59375 0.828125q-0.390625 0.34375 -0.96875 0.546875q-0.5625 0.1875 -1.296875 0.1875q-0.84375 0 -1.546875 -0.265625q-0.6875 -0.28125 -1.15625 -0.71875l0.328125 -0.546875q0.0625 -0.09375 0.15625 -0.140625q0.09375 -0.0625 0.234375 -0.0625q0.140625 0 0.296875 0.109375q0.171875 0.109375 0.390625 0.25q0.234375 0.125 0.546875 0.25q0.328125 0.109375 0.8125 0.109375q0.421875 0 0.734375 -0.109375q0.3125 -0.109375 0.515625 -0.296875q0.21875 -0.1875 0.3125 -0.421875q0.09375 -0.234375 0.09375 -0.515625q0 -0.328125 -0.1875 -0.546875q-0.171875 -0.234375 -0.46875 -0.375q-0.296875 -0.15625 -0.671875 -0.265625q-0.375 -0.125 -0.78125 -0.25q-0.390625 -0.140625 -0.78125 -0.296875q-0.375 -0.171875 -0.671875 -0.40625q-0.28125 -0.25 -0.46875 -0.609375q-0.171875 -0.375 -0.171875 -0.890625q0 -0.46875 0.1875 -0.890625q0.1875 -0.4375 0.546875 -0.75q0.375 -0.328125 0.90625 -0.515625q0.546875 -0.203125 1.234375 -0.203125q0.796875 0 1.421875 0.25q0.640625 0.25 1.109375 0.703125l-0.3125 0.515625z" fill-rule="nonzero"/><path fill="#000000" fill-opacity="0.0" d="m180.5123 311.97638c-7.8263245 4.737091 -46.75197 20.390625 -46.958008 28.422577c-0.20602417 8.031921 38.1015 16.474182 45.721786 19.769012" fill-rule="evenodd"/><path stroke="#595959" stroke-width="1.0" stroke-linejoin="round" stroke-linecap="butt" d="m180.5123 311.97638c-7.8263397 4.737091 -46.75197 20.390656 -46.958008 28.422577c-0.103012085 4.015991 9.422363 8.1345215 19.926025 11.660919c5.251831 1.7632141 10.74823 3.378418 15.407944 4.7586975c1.1649475 0.34506226 2.2775726 0.67544556 3.3210144 0.98983765l1.3882904 0.42193604" fill-rule="evenodd"/><path fill="#595959" stroke="#595959" stroke-width="1.0" stroke-linecap="butt" d="m173.06415 359.7936l4.828354 -0.097717285l-3.7615356 -3.0287476z" fill-rule="evenodd"/><path fill="#000000" fill-opacity="0.0" d="m26.047245 314.44882l107.49606 0l0 38.614166l-107.49606 0z" fill-rule="evenodd"/><path fill="#000000" d="m67.677 333.6888l2.921875 -7.625l1.09375 0l3.125 7.625l-1.15625 0l-0.890625 -2.3125l-3.1875 0l-0.828125 2.3125l-1.078125 0zm2.203125 -3.125l2.578125 0l-0.796875 -2.125q-0.359375 -0.953125 -0.53125 -1.578125q-0.15625 0.734375 -0.421875 1.453125l-0.828125 2.25zm5.2482605 1.46875l0.921875 -0.140625q0.078125 0.5625 0.4375 0.859375q0.359375 0.296875 1.0 0.296875q0.640625 0 0.953125 -0.265625q0.3125 -0.265625 0.3125 -0.625q0 -0.3125 -0.28125 -0.5q-0.1875 -0.125 -0.953125 -0.3125q-1.03125 -0.265625 -1.4375 -0.453125q-0.390625 -0.1875 -0.59375 -0.515625q-0.203125 -0.34375 -0.203125 -0.75q0 -0.359375 0.171875 -0.671875q0.171875 -0.328125 0.453125 -0.53125q0.21875 -0.15625 0.59375 -0.265625q0.390625 -0.125 0.8125 -0.125q0.65625 0 1.140625 0.1875q0.5 0.1875 0.734375 0.515625q0.234375 0.3125 0.3125 0.859375l-0.90625 0.125q-0.0625 -0.4375 -0.375 -0.671875q-0.296875 -0.234375 -0.828125 -0.234375q-0.65625 0 -0.9375 0.21875q-0.265625 0.203125 -0.265625 0.484375q0 0.1875 0.109375 0.328125q0.125 0.15625 0.359375 0.25q0.140625 0.0625 0.828125 0.25q1.0 0.265625 1.390625 0.4375q0.390625 0.15625 0.609375 0.484375q0.234375 0.3125 0.234375 0.796875q0 0.46875 -0.28125 0.890625q-0.265625 0.40625 -0.78125 0.640625q-0.515625 0.21875 -1.171875 0.21875q-1.078125 0 -1.640625 -0.4375q-0.5625 -0.453125 -0.71875 -1.34375zm5.703125 1.65625l0 -7.625l0.9375 0l0 4.34375l2.21875 -2.25l1.21875 0l-2.125 2.0625l2.328125 3.46875l-1.15625 0l-1.8125 -2.828125l-0.671875 0.640625l0 2.1875l-0.9375 0zm11.913773 0l0 -0.8125q-0.65625 0.9375 -1.75 0.9375q-0.5 0 -0.921875 -0.1875q-0.421875 -0.1875 -0.625 -0.46875q-0.203125 -0.28125 -0.296875 -0.703125q-0.046875 -0.265625 -0.046875 -0.875l0 -3.421875l0.9375 0l0 3.0625q0 0.734375 0.046875 1.0q0.09375 0.359375 0.375 0.578125q0.296875 0.203125 0.703125 0.203125q0.421875 0 0.796875 -0.203125q0.375 -0.21875 0.515625 -0.59375q0.15625 -0.375 0.15625 -1.078125l0 -2.96875l0.9375 0l0 5.53125l-0.828125 0zm1.9264984 -1.65625l0.921875 -0.140625q0.078125 0.5625 0.4375 0.859375q0.359375 0.296875 1.0 0.296875q0.640625 0 0.953125 -0.265625q0.3125 -0.265625 0.3125 -0.625q0 -0.3125 -0.28125 -0.5q-0.1875 -0.125 -0.953125 -0.3125q-1.03125 -0.265625 -1.4375 -0.453125q-0.390625 -0.1875 -0.59375 -0.515625q-0.203125 -0.34375 -0.203125 -0.75q0 -0.359375 0.171875 -0.671875q0.171875 -0.328125 0.453125 -0.53125q0.21875 -0.15625 0.59375 -0.265625q0.390625 -0.125 0.8125 -0.125q0.65625 0 1.140625 0.1875q0.5 0.1875 0.734375 0.515625q0.234375 0.3125 0.3125 0.859375l-0.90625 0.125q-0.0625 -0.4375 -0.375 -0.671875q-0.296875 -0.234375 -0.828125 -0.234375q-0.65625 0 -0.9375 0.21875q-0.265625 0.203125 -0.265625 0.484375q0 0.1875 0.109375 0.328125q0.125 0.15625 0.359375 0.25q0.140625 0.0625 0.828125 0.25q1.0 0.265625 1.390625 0.4375q0.390625 0.15625 0.609375 0.484375q0.234375 0.3125 0.234375 0.796875q0 0.46875 -0.28125 0.890625q-0.265625 0.40625 -0.78125 0.640625q-0.515625 0.21875 -1.171875 0.21875q-1.078125 0 -1.640625 -0.4375q-0.5625 -0.453125 -0.71875 -1.34375zm9.484375 -0.125l0.96875 0.125q-0.234375 0.84375 -0.859375 1.3125q-0.609375 0.46875 -1.578125 0.46875q-1.203125 0 -1.921875 -0.75q-0.703125 -0.75 -0.703125 -2.09375q0 -1.390625 0.71875 -2.15625q0.71875 -0.78125 1.859375 -0.78125q1.109375 0 1.8125 0.765625q0.703125 0.75 0.703125 2.125q0 0.078125 0 0.234375l-4.125 0q0.046875 0.921875 0.515625 1.40625q0.46875 0.484375 1.15625 0.484375q0.515625 0 0.875 -0.265625q0.359375 -0.28125 0.578125 -0.875zm-3.078125 -1.515625l3.09375 0q-0.0625 -0.6875 -0.359375 -1.046875q-0.453125 -0.53125 -1.15625 -0.53125q-0.640625 0 -1.09375 0.4375q-0.4375 0.421875 -0.484375 1.140625zm5.2077484 3.296875l0 -5.53125l0.84375 0l0 0.84375q0.328125 -0.59375 0.59375 -0.78125q0.28125 -0.1875 0.609375 -0.1875q0.46875 0 0.953125 0.3125l-0.3125 0.859375q-0.34375 -0.203125 -0.6875 -0.203125q-0.3125 0 -0.5625 0.1875q-0.234375 0.1875 -0.34375 0.515625q-0.15625 0.5 -0.15625 1.09375l0 2.890625l-0.9375 0zm6.743637 0l0 -4.796875l-0.828125 0l0 -0.734375l0.828125 0l0 -0.578125q0 -0.5625 0.109375 -0.828125q0.125 -0.375 0.46875 -0.59375q0.34375 -0.234375 0.953125 -0.234375q0.390625 0 0.875 0.09375l-0.140625 0.828125q-0.296875 -0.0625 -0.546875 -0.0625q-0.421875 0 -0.609375 0.1875q-0.171875 0.1875 -0.171875 0.6875l0 0.5l1.078125 0l0 0.734375l-1.078125 0l0 4.796875l-0.9375 0zm2.3981476 -2.765625q0 -1.53125 0.84375 -2.265625q0.71875 -0.625 1.734375 -0.625q1.140625 0 1.859375 0.75q0.734375 0.75 0.734375 2.0625q0 1.0625 -0.328125 1.6875q-0.3125 0.609375 -0.921875 0.953125q-0.609375 0.328125 -1.34375 0.328125q-1.15625 0 -1.875 -0.734375q-0.703125 -0.75 -0.703125 -2.15625zm0.953125 0q0 1.0625 0.46875 1.59375q0.46875 0.53125 1.15625 0.53125q0.703125 0 1.15625 -0.53125q0.46875 -0.53125 0.46875 -1.625q0 -1.015625 -0.46875 -1.546875q-0.453125 -0.53125 -1.15625 -0.53125q-0.6875 0 -1.15625 0.53125q-0.46875 0.515625 -0.46875 1.578125zm5.3014984 2.765625l0 -5.53125l0.84375 0l0 0.84375q0.328125 -0.59375 0.59375 -0.78125q0.28125 -0.1875 0.609375 -0.1875q0.46875 0 0.953125 0.3125l-0.3125 0.859375q-0.34375 -0.203125 -0.6875 -0.203125q-0.3125 0 -0.5625 0.1875q-0.234375 0.1875 -0.34375 0.515625q-0.15625 0.5 -0.15625 1.09375l0 2.890625l-0.9375 0z" fill-rule="nonzero"/><path fill="#000000" d="m86.20479 344.65756l0.921875 0.125q-0.15625 0.953125 -0.78125 1.5q-0.625 0.53125 -1.53125 0.53125q-1.125 0 -1.8125 -0.734375q-0.6875 -0.75 -0.6875 -2.125q0 -0.90625 0.296875 -1.578125q0.296875 -0.671875 0.890625 -1.0q0.609375 -0.34375 1.328125 -0.34375q0.890625 0 1.46875 0.46875q0.578125 0.453125 0.734375 1.28125l-0.90625 0.140625q-0.140625 -0.546875 -0.46875 -0.828125q-0.328125 -0.28125 -0.796875 -0.28125q-0.703125 0 -1.15625 0.515625q-0.4375 0.5 -0.4375 1.59375q0 1.109375 0.421875 1.625q0.4375 0.5 1.125 0.5q0.546875 0 0.90625 -0.34375q0.375 -0.34375 0.484375 -1.046875zm1.375 -0.734375q0 -1.53125 0.84375 -2.265625q0.71875 -0.625 1.734375 -0.625q1.140625 0 1.859375 0.75q0.734375 0.75 0.734375 2.0625q0 1.0625 -0.328125 1.6875q-0.3125 0.609375 -0.921875 0.953125q-0.609375 0.328125 -1.34375 0.328125q-1.15625 0 -1.875 -0.734375q-0.703125 -0.75 -0.703125 -2.15625zm0.953125 0q0 1.0625 0.46875 1.59375q0.46875 0.53125 1.15625 0.53125q0.703125 0 1.15625 -0.53125q0.46875 -0.53125 0.46875 -1.625q0 -1.015625 -0.46875 -1.546875q-0.453125 -0.53125 -1.15625 -0.53125q-0.6875 0 -1.15625 0.53125q-0.46875 0.515625 -0.46875 1.578125zm5.3171234 2.765625l0 -5.53125l0.84375 0l0 0.796875q0.609375 -0.921875 1.75 -0.921875q0.5 0 0.921875 0.1875q0.421875 0.171875 0.625 0.46875q0.21875 0.296875 0.296875 0.6875q0.046875 0.265625 0.046875 0.921875l0 3.390625l-0.9375 0l0 -3.359375q0 -0.578125 -0.109375 -0.859375q-0.109375 -0.28125 -0.390625 -0.453125q-0.265625 -0.171875 -0.640625 -0.171875q-0.59375 0 -1.03125 0.390625q-0.4375 0.375 -0.4375 1.4375l0 3.015625l-0.9375 0zm5.5514984 -1.65625l0.921875 -0.140625q0.078125 0.5625 0.4375 0.859375q0.359375 0.296875 1.0 0.296875q0.640625 0 0.953125 -0.265625q0.3125 -0.265625 0.3125 -0.625q0 -0.3125 -0.28125 -0.5q-0.1875 -0.125 -0.953125 -0.3125q-1.03125 -0.265625 -1.4375 -0.453125q-0.390625 -0.1875 -0.59375 -0.515625q-0.203125 -0.34375 -0.203125 -0.75q0 -0.359375 0.171875 -0.671875q0.171875 -0.328125 0.453125 -0.53125q0.21875 -0.15625 0.59375 -0.265625q0.390625 -0.125 0.8125 -0.125q0.65625 0 1.140625 0.1875q0.5 0.1875 0.734375 0.515625q0.234375 0.3125 0.3125 0.859375l-0.90625 0.125q-0.0625 -0.4375 -0.375 -0.671875q-0.296875 -0.234375 -0.828125 -0.234375q-0.65625 0 -0.9375 0.21875q-0.265625 0.203125 -0.265625 0.484375q0 0.1875 0.109375 0.328125q0.125 0.15625 0.359375 0.25q0.140625 0.0625 0.828125 0.25q1.0 0.265625 1.390625 0.4375q0.390625 0.15625 0.609375 0.484375q0.234375 0.3125 0.234375 0.796875q0 0.46875 -0.28125 0.890625q-0.265625 0.40625 -0.78125 0.640625q-0.515625 0.21875 -1.171875 0.21875q-1.078125 0 -1.640625 -0.4375q-0.5625 -0.453125 -0.71875 -1.34375zm9.484375 -0.125l0.96875 0.125q-0.234375 0.84375 -0.859375 1.3125q-0.609375 0.46875 -1.578125 0.46875q-1.203125 0 -1.921875 -0.75q-0.703125 -0.75 -0.703125 -2.09375q0 -1.390625 0.71875 -2.15625q0.71875 -0.78125 1.859375 -0.78125q1.109375 0 1.8125 0.765625q0.703125 0.75 0.703125 2.125q0 0.078125 0 0.234375l-4.125 0q0.046875 0.921875 0.515625 1.40625q0.46875 0.484375 1.15625 0.484375q0.515625 0 0.875 -0.265625q0.359375 -0.28125 0.578125 -0.875zm-3.078125 -1.515625l3.09375 0q-0.0625 -0.6875 -0.359375 -1.046875q-0.453125 -0.53125 -1.15625 -0.53125q-0.640625 0 -1.09375 0.4375q-0.4375 0.421875 -0.484375 1.140625zm5.2233734 3.296875l0 -5.53125l0.84375 0l0 0.796875q0.609375 -0.921875 1.75 -0.921875q0.5 0 0.921875 0.1875q0.421875 0.171875 0.625 0.46875q0.21875 0.296875 0.296875 0.6875q0.046875 0.265625 0.046875 0.921875l0 3.390625l-0.9375 0l0 -3.359375q0 -0.578125 -0.109375 -0.859375q-0.109375 -0.28125 -0.390625 -0.453125q-0.265625 -0.171875 -0.640625 -0.171875q-0.59375 0 -1.03125 0.390625q-0.4375 0.375 -0.4375 1.4375l0 3.015625l-0.9375 0zm7.9733734 -0.84375l0.125 0.828125q-0.390625 0.09375 -0.703125 0.09375q-0.5 0 -0.78125 -0.15625q-0.28125 -0.171875 -0.40625 -0.4375q-0.109375 -0.265625 -0.109375 -1.109375l0 -3.171875l-0.6875 0l0 -0.734375l0.6875 0l0 -1.359375l0.9375 -0.5625l0 1.921875l0.9375 0l0 0.734375l-0.9375 0l0 3.234375q0 0.390625 0.046875 0.515625q0.046875 0.109375 0.15625 0.1875q0.109375 0.0625 0.328125 0.0625q0.15625 0 0.40625 -0.046875zm0.5387726 -0.8125l0.921875 -0.140625q0.078125 0.5625 0.4375 0.859375q0.359375 0.296875 1.0 0.296875q0.640625 0 0.953125 -0.265625q0.3125 -0.265625 0.3125 -0.625q0 -0.3125 -0.28125 -0.5q-0.1875 -0.125 -0.953125 -0.3125q-1.03125 -0.265625 -1.4375 -0.453125q-0.390625 -0.1875 -0.59375 -0.515625q-0.203125 -0.34375 -0.203125 -0.75q0 -0.359375 0.171875 -0.671875q0.171875 -0.328125 0.453125 -0.53125q0.21875 -0.15625 0.59375 -0.265625q0.390625 -0.125 0.8125 -0.125q0.65625 0 1.140625 0.1875q0.5 0.1875 0.734375 0.515625q0.234375 0.3125 0.3125 0.859375l-0.90625 0.125q-0.0625 -0.4375 -0.375 -0.671875q-0.296875 -0.234375 -0.828125 -0.234375q-0.65625 0 -0.9375 0.21875q-0.265625 0.203125 -0.265625 0.484375q0 0.1875 0.109375 0.328125q0.125 0.15625 0.359375 0.25q0.140625 0.0625 0.828125 0.25q1.0 0.265625 1.390625 0.4375q0.390625 0.15625 0.609375 0.484375q0.234375 0.3125 0.234375 0.796875q0 0.46875 -0.28125 0.890625q-0.265625 0.40625 -0.78125 0.640625q-0.515625 0.21875 -1.171875 0.21875q-1.078125 0 -1.640625 -0.4375q-0.5625 -0.453125 -0.71875 -1.34375z" fill-rule="nonzero"/><path fill="#000000" fill-opacity="0.0" d="m181.53844 366.22104l641.3228 0" fill-rule="evenodd"/><path stroke="#434343" stroke-width="1.0" stroke-linejoin="round" stroke-linecap="butt" d="m181.53845 366.22104l635.3229 0" fill-rule="evenodd"/><path fill="#434343" stroke="#434343" stroke-width="1.0" stroke-linecap="butt" d="m816.8613 367.87277l4.538086 -1.6517334l-4.538086 -1.6517334z" fill-rule="evenodd"/><path fill="#000000" fill-opacity="0.0" d="m204.40683 332.47244l476.56693 0l0 33.73227l-476.56693 0z" fill-rule="evenodd"/><path fill="#000000" d="m217.25058 353.59805q0.71875 0 1.28125 -0.234375q0.5625 -0.25 0.9375 -0.671875q0.390625 -0.4375 0.59375 -1.03125q0.203125 -0.609375 0.203125 -1.328125l0 -6.96875l1.546875 0l0 6.96875q0 1.0 -0.3125 1.84375q-0.3125 0.84375 -0.90625 1.46875q-0.59375 0.625 -1.4375 0.984375q-0.84375 0.34375 -1.90625 0.34375q-1.046875 0 -1.90625 -0.34375q-0.84375 -0.359375 -1.4375 -0.984375q-0.59375 -0.625 -0.90625 -1.46875q-0.3125 -0.84375 -0.3125 -1.84375l0 -6.96875l1.546875 0l0 6.96875q0 0.71875 0.203125 1.328125q0.203125 0.59375 0.59375 1.03125q0.390625 0.421875 0.953125 0.671875q0.5625 0.234375 1.265625 0.234375zm7.0079803 3.984375l0 -10.859375l0.84375 0q0.296875 0 0.390625 0.296875l0.109375 0.96875q0.53125 -0.640625 1.1875 -1.015625q0.671875 -0.390625 1.546875 -0.390625q0.6875 0 1.25 0.265625q0.578125 0.265625 0.96875 0.796875q0.40625 0.53125 0.625 1.3125q0.21875 0.765625 0.21875 1.765625q0 0.90625 -0.25 1.6875q-0.234375 0.765625 -0.6875 1.328125q-0.4375 0.5625 -1.09375 0.890625q-0.65625 0.3125 -1.46875 0.3125q-0.75 0 -1.28125 -0.25q-0.53125 -0.25 -0.9375 -0.703125l0 3.59375l-1.421875 0zm3.609375 -9.84375q-0.703125 0 -1.234375 0.328125q-0.515625 0.3125 -0.953125 0.890625l0 3.921875q0.390625 0.53125 0.859375 0.75q0.46875 0.21875 1.046875 0.21875q1.125 0 1.734375 -0.8125q0.609375 -0.8125 0.609375 -2.3125q0 -0.78125 -0.140625 -1.34375q-0.140625 -0.578125 -0.40625 -0.9375q-0.265625 -0.375 -0.65625 -0.53125q-0.375 -0.171875 -0.859375 -0.171875zm10.925644 7.09375q-0.3125 0 -0.390625 -0.296875l-0.125 -0.984375q-0.515625 0.640625 -1.1875 1.015625q-0.671875 0.375 -1.53125 0.375q-0.703125 0 -1.265625 -0.265625q-0.5625 -0.265625 -0.96875 -0.78125q-0.390625 -0.53125 -0.609375 -1.296875q-0.21875 -0.78125 -0.21875 -1.796875q0 -0.890625 0.234375 -1.65625q0.25 -0.78125 0.6875 -1.34375q0.453125 -0.5625 1.09375 -0.890625q0.65625 -0.328125 1.484375 -0.328125q0.75 0 1.265625 0.25q0.53125 0.25 0.953125 0.71875l0 -4.5l1.421875 0l0 11.78125l-0.84375 0zm-2.765625 -1.046875q0.703125 0 1.21875 -0.3125q0.53125 -0.328125 0.96875 -0.90625l0 -3.921875q-0.390625 -0.53125 -0.859375 -0.734375q-0.46875 -0.21875 -1.03125 -0.21875q-1.140625 0 -1.75 0.8125q-0.609375 0.8125 -0.609375 2.296875q0 0.796875 0.125 1.359375q0.140625 0.5625 0.40625 0.9375q0.265625 0.359375 0.640625 0.53125q0.390625 0.15625 0.890625 0.15625zm11.959503 1.046875l-0.640625 0q-0.203125 0 -0.328125 -0.0625q-0.125 -0.0625 -0.171875 -0.28125l-0.15625 -0.75q-0.328125 0.296875 -0.640625 0.53125q-0.296875 0.21875 -0.640625 0.375q-0.328125 0.15625 -0.703125 0.234375q-0.375 0.078125 -0.84375 0.078125q-0.46875 0 -0.890625 -0.125q-0.40625 -0.140625 -0.71875 -0.390625q-0.296875 -0.265625 -0.484375 -0.671875q-0.171875 -0.40625 -0.171875 -0.96875q0 -0.46875 0.265625 -0.90625q0.265625 -0.453125 0.84375 -0.796875q0.59375 -0.34375 1.546875 -0.5625q0.953125 -0.21875 2.328125 -0.25l0 -0.640625q0 -0.9375 -0.40625 -1.421875q-0.40625 -0.484375 -1.1875 -0.484375q-0.53125 0 -0.890625 0.140625q-0.34375 0.125 -0.609375 0.296875q-0.25 0.15625 -0.453125 0.296875q-0.1875 0.125 -0.359375 0.125q-0.15625 0 -0.265625 -0.078125q-0.09375 -0.078125 -0.15625 -0.1875l-0.265625 -0.453125q0.671875 -0.65625 1.453125 -0.96875q0.78125 -0.328125 1.71875 -0.328125q0.671875 0 1.203125 0.234375q0.53125 0.21875 0.890625 0.625q0.359375 0.390625 0.546875 0.96875q0.1875 0.5625 0.1875 1.234375l0 5.1875zm-3.703125 -0.875q0.375 0 0.6875 -0.078125q0.3125 -0.078125 0.578125 -0.203125q0.28125 -0.140625 0.53125 -0.34375q0.265625 -0.203125 0.5 -0.453125l0 -1.6875q-0.984375 0.03125 -1.671875 0.15625q-0.6875 0.109375 -1.125 0.3125q-0.421875 0.203125 -0.625 0.484375q-0.1875 0.265625 -0.1875 0.59375q0 0.328125 0.09375 0.5625q0.109375 0.234375 0.28125 0.375q0.171875 0.140625 0.40625 0.21875q0.25 0.0625 0.53125 0.0625zm8.315018 1.0q-0.96875 0 -1.484375 -0.53125q-0.515625 -0.53125 -0.515625 -1.546875l0 -4.953125l-0.96875 0q-0.125 0 -0.21875 -0.078125q-0.078125 -0.078125 -0.078125 -0.234375l0 -0.578125l1.328125 -0.15625l0.328125 -2.515625q0.015625 -0.109375 0.09375 -0.1875q0.09375 -0.078125 0.234375 -0.078125l0.71875 0l0 2.796875l2.3125 0l0 1.03125l-2.3125 0l0 4.859375q0 0.515625 0.234375 0.765625q0.25 0.234375 0.640625 0.234375q0.234375 0 0.390625 -0.046875q0.171875 -0.0625 0.28125 -0.125q0.125 -0.078125 0.203125 -0.140625q0.09375 -0.0625 0.15625 -0.0625q0.109375 0 0.203125 0.140625l0.40625 0.671875q-0.359375 0.34375 -0.890625 0.546875q-0.515625 0.1875 -1.0625 0.1875zm6.717911 -8.359375q0.734375 0 1.34375 0.25q0.609375 0.234375 1.0625 0.703125q0.453125 0.453125 0.703125 1.140625q0.25 0.671875 0.25 1.53125q0 0.34375 -0.078125 0.453125q-0.0625 0.109375 -0.265625 0.109375l-5.390625 0q0.015625 0.765625 0.203125 1.34375q0.203125 0.5625 0.53125 0.9375q0.34375 0.375 0.796875 0.5625q0.46875 0.1875 1.046875 0.1875q0.53125 0 0.921875 -0.109375q0.390625 -0.125 0.671875 -0.265625q0.28125 -0.15625 0.46875 -0.28125q0.1875 -0.125 0.3125 -0.125q0.1875 0 0.28125 0.140625l0.390625 0.515625q-0.25 0.328125 -0.625 0.5625q-0.375 0.234375 -0.796875 0.390625q-0.40625 0.140625 -0.859375 0.21875q-0.453125 0.078125 -0.890625 0.078125q-0.84375 0 -1.546875 -0.28125q-0.703125 -0.28125 -1.21875 -0.828125q-0.515625 -0.546875 -0.81248474 -1.359375q-0.28125 -0.8125 -0.28125 -1.859375q0 -0.84375 0.25 -1.578125q0.26560974 -0.734375 0.74998474 -1.265625q0.5 -0.546875 1.203125 -0.859375q0.703125 -0.3125 1.578125 -0.3125zm0.03125 1.046875q-1.03125 0 -1.625 0.609375q-0.59375 0.59375 -0.734375 1.640625l4.40625 0q0 -0.5 -0.140625 -0.90625q-0.125 -0.40625 -0.390625 -0.703125q-0.265625 -0.3125 -0.65625 -0.46875q-0.375 -0.171875 -0.859375 -0.171875zm8.237488 9.9375l0 -10.859375l0.84375 0q0.296875 0 0.390625 0.296875l0.109375 0.96875q0.53125 -0.640625 1.1875 -1.015625q0.671875 -0.390625 1.546875 -0.390625q0.6875 0 1.25 0.265625q0.578125 0.265625 0.96875 0.796875q0.40625 0.53125 0.625 1.3125q0.21875 0.765625 0.21875 1.765625q0 0.90625 -0.25 1.6875q-0.234375 0.765625 -0.6875 1.328125q-0.4375 0.5625 -1.09375 0.890625q-0.65625 0.3125 -1.46875 0.3125q-0.75 0 -1.28125 -0.25q-0.53125 -0.25 -0.9375 -0.703125l0 3.59375l-1.421875 0zm3.609375 -9.84375q-0.703125 0 -1.234375 0.328125q-0.515625 0.3125 -0.953125 0.890625l0 3.921875q0.390625 0.53125 0.859375 0.75q0.46875 0.21875 1.046875 0.21875q1.125 0 1.734375 -0.8125q0.609375 -0.8125 0.609375 -2.3125q0 -0.78125 -0.140625 -1.34375q-0.140625 -0.578125 -0.40625 -0.9375q-0.265625 -0.375 -0.65625 -0.53125q-0.375 -0.171875 -0.859375 -0.171875zm5.222534 7.09375l0 -8.109375l0.8125 0q0.234375 0 0.3125 0.09375q0.09375 0.09375 0.125 0.296875l0.09375 1.265625q0.421875 -0.84375 1.03125 -1.3125q0.609375 -0.484375 1.4375 -0.484375q0.328125 0 0.59375 0.078125q0.28125 0.078125 0.515625 0.21875l-0.1875 1.0625q-0.046875 0.1875 -0.25 0.1875q-0.109375 0 -0.34375 -0.0625q-0.21875 -0.078125 -0.640625 -0.078125q-0.75 0 -1.25 0.4375q-0.5 0.421875 -0.828125 1.25l0 5.15625l-1.421875 0zm9.7291565 -8.234375q0.875 0 1.59375 0.296875q0.71875 0.296875 1.21875 0.84375q0.5 0.546875 0.765625 1.3125q0.265625 0.765625 0.265625 1.71875q0 0.96875 -0.265625 1.734375q-0.265625 0.765625 -0.765625 1.3125q-0.5 0.546875 -1.21875 0.84375q-0.71875 0.28125 -1.59375 0.28125q-0.890625 0 -1.609375 -0.28125q-0.71875 -0.296875 -1.21875 -0.84375q-0.5 -0.546875 -0.78125 -1.3125q-0.265625 -0.765625 -0.265625 -1.734375q0 -0.953125 0.265625 -1.71875q0.28125 -0.765625 0.78125 -1.3125q0.5 -0.546875 1.21875 -0.84375q0.71875 -0.296875 1.609375 -0.296875zm0 7.234375q1.1875 0 1.78125 -0.796875q0.59375 -0.8125 0.59375 -2.25q0 -1.453125 -0.59375 -2.25q-0.59375 -0.8125 -1.78125 -0.8125q-0.609375 0 -1.0625 0.203125q-0.453125 0.203125 -0.75 0.609375q-0.296875 0.390625 -0.453125 0.96875q-0.140625 0.5625 -0.140625 1.28125q0 0.71875 0.140625 1.296875q0.15625 0.5625 0.453125 0.953125q0.296875 0.375 0.75 0.59375q0.453125 0.203125 1.0625 0.203125zm5.9271545 1.0l0 -6.890625l-0.890625 -0.09375q-0.171875 -0.046875 -0.28125 -0.125q-0.109375 -0.09375 -0.109375 -0.25l0 -0.578125l1.28125 0l0 -0.796875q0 -0.6875 0.1875 -1.21875q0.203125 -0.546875 0.5625 -0.921875q0.375 -0.375 0.875 -0.5625q0.515625 -0.1875 1.15625 -0.1875q0.546875 0 1.015625 0.15625l-0.03125 0.703125q-0.015625 0.171875 -0.140625 0.203125q-0.125 0.03125 -0.359375 0.03125l-0.25 0q-0.359375 0 -0.671875 0.09375q-0.296875 0.09375 -0.515625 0.3125q-0.203125 0.21875 -0.328125 0.578125q-0.109375 0.34375 -0.109375 0.859375l0 0.75l2.34375 0l0 1.03125l-2.296875 0l0 6.90625l-1.4375 0zm6.6575623 -8.109375l0 8.109375l-1.421875 0l0 -8.109375l1.421875 0zm0.328125 -2.53125q0 0.203125 -0.09375 0.390625q-0.078125 0.171875 -0.21875 0.3125q-0.140625 0.140625 -0.328125 0.21875q-0.1875 0.078125 -0.390625 0.078125q-0.203125 0 -0.390625 -0.078125q-0.171875 -0.078125 -0.3125 -0.21875q-0.140625 -0.140625 -0.21875 -0.3125q-0.078125 -0.1875 -0.078125 -0.390625q0 -0.21875 0.078125 -0.40625q0.078125 -0.1875 0.21875 -0.328125q0.140625 -0.140625 0.3125 -0.21875q0.1875 -0.078125 0.390625 -0.078125q0.203125 0 0.390625 0.078125q0.1875 0.078125 0.328125 0.21875q0.140625 0.140625 0.21875 0.328125q0.09375 0.1875 0.09375 0.40625zm3.7678223 -1.140625l0 11.78125l-1.421875 0l0 -11.78125l1.421875 0zm5.7209473 3.546875q0.734375 0 1.34375 0.25q0.609375 0.234375 1.0625 0.703125q0.453125 0.453125 0.703125 1.140625q0.25 0.671875 0.25 1.53125q0 0.34375 -0.078125 0.453125q-0.0625 0.109375 -0.265625 0.109375l-5.390625 0q0.015625 0.765625 0.203125 1.34375q0.203125 0.5625 0.53125 0.9375q0.34375 0.375 0.796875 0.5625q0.46875 0.1875 1.046875 0.1875q0.53125 0 0.921875 -0.109375q0.390625 -0.125 0.671875 -0.265625q0.28125 -0.15625 0.46875 -0.28125q0.1875 -0.125 0.3125 -0.125q0.1875 0 0.28125 0.140625l0.390625 0.515625q-0.25 0.328125 -0.625 0.5625q-0.375 0.234375 -0.796875 0.390625q-0.40625 0.140625 -0.859375 0.21875q-0.453125 0.078125 -0.890625 0.078125q-0.84375 0 -1.546875 -0.28125q-0.703125 -0.28125 -1.21875 -0.828125q-0.515625 -0.546875 -0.8125 -1.359375q-0.28125 -0.8125 -0.28125 -1.859375q0 -0.84375 0.25 -1.578125q0.265625 -0.734375 0.75 -1.265625q0.5 -0.546875 1.203125 -0.859375q0.703125 -0.3125 1.578125 -0.3125zm0.03125 1.046875q-1.03125 0 -1.625 0.609375q-0.59375 0.59375 -0.734375 1.640625l4.40625 0q0 -0.5 -0.140625 -0.90625q-0.125 -0.40625 -0.390625 -0.703125q-0.265625 -0.3125 -0.65625 -0.46875q-0.375 -0.171875 -0.859375 -0.171875zm13.768738 0.53125q-0.078125 0.078125 -0.140625 0.125q-0.0625 0.046875 -0.171875 0.046875q-0.125 0 -0.265625 -0.09375q-0.140625 -0.109375 -0.359375 -0.21875q-0.21875 -0.125 -0.53125 -0.21875q-0.296875 -0.109375 -0.75 -0.109375q-0.59375 0 -1.046875 0.21875q-0.453125 0.203125 -0.765625 0.609375q-0.296875 0.40625 -0.453125 0.96875q-0.15625 0.5625 -0.15625 1.265625q0 0.75 0.15625 1.328125q0.171875 0.5625 0.46875 0.953125q0.3125 0.375 0.75 0.59375q0.4375 0.203125 0.984375 0.203125q0.515625 0 0.84375 -0.125q0.34375 -0.125 0.5625 -0.28125q0.234375 -0.15625 0.375 -0.28125q0.140625 -0.125 0.28125 -0.125q0.1875 0 0.28125 0.140625l0.390625 0.515625q-0.53125 0.65625 -1.328125 0.953125q-0.78125 0.296875 -1.65625 0.296875q-0.765625 0 -1.421875 -0.28125q-0.640625 -0.28125 -1.125 -0.8125q-0.484375 -0.53125 -0.765625 -1.296875q-0.265625 -0.78125 -0.265625 -1.78125q0 -0.890625 0.25 -1.65625q0.25 -0.78125 0.734375 -1.328125q0.484375 -0.5625 1.1875 -0.875q0.71875 -0.3125 1.640625 -0.3125q0.84375 0 1.5 0.28125q0.65625 0.265625 1.171875 0.78125l-0.375 0.515625zm5.2218933 -1.578125q0.875 0 1.59375 0.296875q0.71875 0.296875 1.21875 0.84375q0.5 0.546875 0.765625 1.3125q0.265625 0.765625 0.265625 1.71875q0 0.96875 -0.265625 1.734375q-0.265625 0.765625 -0.765625 1.3125q-0.5 0.546875 -1.21875 0.84375q-0.71875 0.28125 -1.59375 0.28125q-0.890625 0 -1.609375 -0.28125q-0.71875 -0.296875 -1.21875 -0.84375q-0.5 -0.546875 -0.78125 -1.3125q-0.265625 -0.765625 -0.265625 -1.734375q0 -0.953125 0.265625 -1.71875q0.28125 -0.765625 0.78125 -1.3125q0.5 -0.546875 1.21875 -0.84375q0.71875 -0.296875 1.609375 -0.296875zm0 7.234375q1.1875 0 1.78125 -0.796875q0.59375 -0.8125 0.59375 -2.25q0 -1.453125 -0.59375 -2.25q-0.59375 -0.8125 -1.78125 -0.8125q-0.609375 0 -1.0625 0.203125q-0.453125 0.203125 -0.75 0.609375q-0.296875 0.390625 -0.453125 0.96875q-0.140625 0.5625 -0.140625 1.28125q0 0.71875 0.140625 1.296875q0.15625 0.5625 0.453125 0.953125q0.296875 0.375 0.75 0.59375q0.453125 0.203125 1.0625 0.203125zm5.6146545 1.0l0 -8.109375l0.84375 0q0.296875 0 0.390625 0.296875l0.109375 0.890625q0.53125 -0.59375 1.171875 -0.953125q0.65625 -0.359375 1.515625 -0.359375q0.65625 0 1.15625 0.21875q0.515625 0.21875 0.859375 0.625q0.34375 0.40625 0.515625 0.984375q0.171875 0.5625 0.171875 1.25l0 5.15625l-1.421875 0l0 -5.15625q0 -0.921875 -0.421875 -1.421875q-0.421875 -0.515625 -1.28125 -0.515625q-0.625 0 -1.171875 0.3125q-0.546875 0.296875 -1.015625 0.8125l0 5.96875l-1.421875 0zm13.536499 -6.765625q-0.09375 0.171875 -0.296875 0.171875q-0.125 0 -0.28125 -0.078125q-0.140625 -0.09375 -0.375 -0.203125q-0.21875 -0.109375 -0.515625 -0.203125q-0.296875 -0.09375 -0.71875 -0.09375q-0.359375 0 -0.65625 0.09375q-0.28125 0.09375 -0.484375 0.265625q-0.203125 0.15625 -0.3125 0.375q-0.109375 0.203125 -0.109375 0.453125q0 0.296875 0.171875 0.515625q0.1875 0.203125 0.484375 0.359375q0.296875 0.15625 0.671875 0.265625q0.375 0.109375 0.765625 0.25q0.40625 0.125 0.78125 0.296875q0.375 0.15625 0.671875 0.40625q0.296875 0.234375 0.46875 0.578125q0.1875 0.34375 0.1875 0.828125q0 0.5625 -0.203125 1.046875q-0.203125 0.46875 -0.59375 0.828125q-0.390625 0.34375 -0.96875 0.546875q-0.5625 0.1875 -1.296875 0.1875q-0.84375 0 -1.546875 -0.265625q-0.6875 -0.28125 -1.15625 -0.71875l0.328125 -0.546875q0.0625 -0.09375 0.15625 -0.140625q0.09375 -0.0625 0.234375 -0.0625q0.140625 0 0.296875 0.109375q0.171875 0.109375 0.390625 0.25q0.234375 0.125 0.546875 0.25q0.328125 0.109375 0.8125 0.109375q0.421875 0 0.734375 -0.109375q0.3125 -0.109375 0.515625 -0.296875q0.21875 -0.1875 0.3125 -0.421875q0.09375 -0.234375 0.09375 -0.515625q0 -0.328125 -0.1875 -0.546875q-0.171875 -0.234375 -0.46875 -0.375q-0.296875 -0.15625 -0.671875 -0.265625q-0.375 -0.125 -0.78125 -0.25q-0.390625 -0.140625 -0.78125 -0.296875q-0.375 -0.171875 -0.671875 -0.40625q-0.28125 -0.25 -0.46875 -0.609375q-0.171875 -0.375 -0.171875 -0.890625q0 -0.46875 0.1875 -0.890625q0.1875 -0.4375 0.546875 -0.75q0.375 -0.328125 0.90625 -0.515625q0.546875 -0.203125 1.234375 -0.203125q0.796875 0 1.421875 0.25q0.640625 0.25 1.109375 0.703125l-0.3125 0.515625zm5.5064087 -1.46875q0.734375 0 1.34375 0.25q0.609375 0.234375 1.0625 0.703125q0.453125 0.453125 0.703125 1.140625q0.25 0.671875 0.25 1.53125q0 0.34375 -0.078125 0.453125q-0.0625 0.109375 -0.265625 0.109375l-5.390625 0q0.015625 0.765625 0.203125 1.34375q0.203125 0.5625 0.53125 0.9375q0.34375 0.375 0.796875 0.5625q0.46875 0.1875 1.046875 0.1875q0.53125 0 0.921875 -0.109375q0.390625 -0.125 0.671875 -0.265625q0.28125 -0.15625 0.46875 -0.28125q0.1875 -0.125 0.3125 -0.125q0.1875 0 0.28125 0.140625l0.390625 0.515625q-0.25 0.328125 -0.625 0.5625q-0.375 0.234375 -0.796875 0.390625q-0.40625 0.140625 -0.859375 0.21875q-0.453125 0.078125 -0.890625 0.078125q-0.84375 0 -1.546875 -0.28125q-0.703125 -0.28125 -1.21875 -0.828125q-0.515625 -0.546875 -0.8125 -1.359375q-0.28125 -0.8125 -0.28125 -1.859375q0 -0.84375 0.25 -1.578125q0.265625 -0.734375 0.75 -1.265625q0.5 -0.546875 1.203125 -0.859375q0.703125 -0.3125 1.578125 -0.3125zm0.03125 1.046875q-1.03125 0 -1.625 0.609375q-0.59375 0.59375 -0.734375 1.640625l4.40625 0q0 -0.5 -0.140625 -0.90625q-0.125 -0.40625 -0.390625 -0.703125q-0.265625 -0.3125 -0.65625 -0.46875q-0.375 -0.171875 -0.859375 -0.171875zm5.149536 7.1875l0 -8.109375l0.84375 0q0.296875 0 0.390625 0.296875l0.109375 0.890625q0.53125 -0.59375 1.171875 -0.953125q0.65625 -0.359375 1.515625 -0.359375q0.65625 0 1.15625 0.21875q0.515625 0.21875 0.859375 0.625q0.34375 0.40625 0.515625 0.984375q0.171875 0.5625 0.171875 1.25l0 5.15625l-1.421875 0l0 -5.15625q0 -0.921875 -0.421875 -1.421875q-0.421875 -0.515625 -1.28125 -0.515625q-0.625 0 -1.171875 0.3125q-0.546875 0.296875 -1.015625 0.8125l0 5.96875l-1.421875 0zm11.348999 0.125q-0.96875 0 -1.484375 -0.53125q-0.515625 -0.53125 -0.515625 -1.546875l0 -4.953125l-0.96875 0q-0.125 0 -0.21875 -0.078125q-0.078125 -0.078125 -0.078125 -0.234375l0 -0.578125l1.328125 -0.15625l0.328125 -2.515625q0.015625 -0.109375 0.09375 -0.1875q0.09375 -0.078125 0.234375 -0.078125l0.71875 0l0 2.796875l2.3125 0l0 1.03125l-2.3125 0l0 4.859375q0 0.515625 0.234375 0.765625q0.25 0.234375 0.640625 0.234375q0.234375 0 0.390625 -0.046875q0.171875 -0.0625 0.28125 -0.125q0.125 -0.078125 0.203125 -0.140625q0.09375 -0.0625 0.15625 -0.0625q0.109375 0 0.203125 0.140625l0.40625 0.671875q-0.359375 0.34375 -0.890625 0.546875q-0.515625 0.1875 -1.0625 0.1875zm8.155426 -6.890625q-0.09375 0.171875 -0.296875 0.171875q-0.125 0 -0.28125 -0.078125q-0.140625 -0.09375 -0.375 -0.203125q-0.21875 -0.109375 -0.515625 -0.203125q-0.296875 -0.09375 -0.71875 -0.09375q-0.359375 0 -0.65625 0.09375q-0.28125 0.09375 -0.484375 0.265625q-0.203125 0.15625 -0.3125 0.375q-0.109375 0.203125 -0.109375 0.453125q0 0.296875 0.171875 0.515625q0.1875 0.203125 0.484375 0.359375q0.296875 0.15625 0.671875 0.265625q0.375 0.109375 0.765625 0.25q0.40625 0.125 0.78125 0.296875q0.375 0.15625 0.671875 0.40625q0.296875 0.234375 0.46875 0.578125q0.1875 0.34375 0.1875 0.828125q0 0.5625 -0.203125 1.046875q-0.203125 0.46875 -0.59375 0.828125q-0.390625 0.34375 -0.96875 0.546875q-0.5625 0.1875 -1.296875 0.1875q-0.84375 0 -1.546875 -0.265625q-0.6875 -0.28125 -1.15625 -0.71875l0.328125 -0.546875q0.0625 -0.09375 0.15625 -0.140625q0.09375 -0.0625 0.234375 -0.0625q0.140625 0 0.296875 0.109375q0.171875 0.109375 0.390625 0.25q0.234375 0.125 0.546875 0.25q0.328125 0.109375 0.8125 0.109375q0.421875 0 0.734375 -0.109375q0.3125 -0.109375 0.515625 -0.296875q0.21875 -0.1875 0.3125 -0.421875q0.09375 -0.234375 0.09375 -0.515625q0 -0.328125 -0.1875 -0.546875q-0.171875 -0.234375 -0.46875 -0.375q-0.296875 -0.15625 -0.671875 -0.265625q-0.375 -0.125 -0.78125 -0.25q-0.390625 -0.140625 -0.78125 -0.296875q-0.375 -0.171875 -0.671875 -0.40625q-0.28125 -0.25 -0.46875 -0.609375q-0.171875 -0.375 -0.171875 -0.890625q0 -0.46875 0.1875 -0.890625q0.1875 -0.4375 0.546875 -0.75q0.375 -0.328125 0.90625 -0.515625q0.546875 -0.203125 1.234375 -0.203125q0.796875 0 1.421875 0.25q0.640625 0.25 1.109375 0.703125l-0.3125 0.515625z" fill-rule="nonzero"/></g></svg>