<svg version="1.1" viewBox="0.0 0.0 960.0 540.0" fill="none" stroke="none" stroke-linecap="square" stroke-miterlimit="10" xmlns:xlink="http://www.w3.org/1999/xlink" xmlns="http://www.w3.org/2000/svg"><clipPath id="g440aa4315e_0_60.0"><path d="m0 0l960.0 0l0 540.0l-960.0 0l0 -540.0z" clip-rule="nonzero"/></clipPath><g clip-path="url(#g440aa4315e_0_60.0)"><path fill="#ffffff" d="m0 0l960.0 0l0 540.0l-960.0 0z" fill-rule="evenodd"/><path fill="#000000" fill-opacity="0.0" d="m42.594486 112.29789l0 0c0 -3.105362 2.5173912 -5.6227493 5.622757 -5.6227493l230.24352 0c1.4912415 0 2.9214172 0.59239197 3.975891 1.6468658c1.0544739 1.0544662 1.6468811 2.484642 1.6468811 3.9758835l0 22.490349c0 3.105362 -2.517395 5.622757 -5.622772 5.622757l-230.24352 0c-3.1053658 0 -5.622757 -2.517395 -5.622757 -5.622757z" fill-rule="evenodd"/><path stroke="#000000" stroke-width="3.0" stroke-linejoin="round" stroke-linecap="butt" d="m42.594486 112.29789l0 0c0 -3.105362 2.5173912 -5.6227493 5.622757 -5.6227493l230.24352 0c1.4912415 0 2.9214172 0.59239197 3.975891 1.6468658c1.0544739 1.0544662 1.6468811 2.484642 1.6468811 3.9758835l0 22.490349c0 3.105362 -2.517395 5.622757 -5.622772 5.622757l-230.24352 0c-3.1053658 0 -5.622757 -2.517395 -5.622757 -5.622757z" fill-rule="evenodd"/><path fill="#000000" d="m127.74339 130.74307l0 -14.328133l4.578125 0q1.3125 0 2.265625 0.265625q0.96875 0.25 1.578125 0.734375q0.609375 0.484375 0.90625 1.1875q0.296875 0.6875 0.296875 1.546875q0 0.53125 -0.171875 1.03125q-0.15625 0.484375 -0.5 0.90625q-0.328125 0.421875 -0.84375 0.75q-0.5 0.328125 -1.171875 0.53125q1.5625 0.3125 2.359375 1.140625q0.8125 0.8125 0.8125 2.15625q0 0.90625 -0.34375 1.6562576q-0.328125 0.75 -0.984375 1.296875q-0.640625 0.53125 -1.578125 0.828125q-0.921875 0.296875 -2.125 0.296875l-5.078125 0zm1.953125 -6.5312576l0 4.9843826l3.09375 0q0.828125 0 1.421875 -0.1875q0.59375 -0.1875 0.96875 -0.53125q0.390625 -0.34375 0.578125 -0.8125076q0.1875 -0.484375 0.1875 -1.046875q0 -1.109375 -0.796875 -1.75q-0.78125 -0.65625 -2.375 -0.65625l-3.078125 0zm0 -1.375l2.546875 0q0.828125 0 1.421875 -0.171875q0.609375 -0.1875 1.0 -0.5q0.390625 -0.328125 0.578125 -0.78125q0.203125 -0.453125 0.203125 -1.0q0 -1.265625 -0.765625 -1.84375q-0.765625 -0.59375 -2.359375 -0.59375l-2.625 0l0 4.890625zm10.705612 7.9062576l0 -10.125008l1.03125 0q0.28125 0 0.390625 0.109375q0.109375 0.109375 0.15625 0.375l0.125 1.578125q0.515625 -1.0625 1.28125 -1.65625q0.765625 -0.59375 1.796875 -0.59375q0.421875 0 0.75 0.09375q0.34375 0.09375 0.640625 0.265625l-0.234375 1.328125q-0.078125 0.25 -0.3125 0.25q-0.140625 0 -0.4375 -0.09375q-0.28125 -0.09375 -0.796875 -0.09375q-0.9375 0 -1.5625 0.546875q-0.625 0.53125 -1.046875 1.5625l0 6.4531326l-1.78125 0zm12.169373 -10.296883q1.109375 0 2.0 0.375q0.890625 0.375 1.515625 1.0625q0.625 0.671875 0.953125 1.640625q0.34375 0.953125 0.34375 2.15625q0 1.1875 -0.34375 2.15625q-0.328125 0.9531326 -0.953125 1.6406326q-0.625 0.671875 -1.515625 1.046875q-0.890625 0.359375 -2.0 0.359375q-1.109375 0 -2.015625 -0.359375q-0.890625 -0.375 -1.515625 -1.046875q-0.625 -0.6875 -0.96875 -1.6406326q-0.34375 -0.96875 -0.34375 -2.15625q0 -1.203125 0.34375 -2.15625q0.34375 -0.96875 0.96875 -1.640625q0.625 -0.6875 1.515625 -1.0625q0.90625 -0.375 2.015625 -0.375zm0 9.046883q1.5 0 2.234375 -1.0q0.75 -1.0156326 0.75 -2.8125076q0 -1.8125 -0.75 -2.8125q-0.734375 -1.015625 -2.234375 -1.015625q-0.765625 0 -1.328125 0.265625q-0.546875 0.25 -0.921875 0.75q-0.375 0.484375 -0.5625 1.203125q-0.1875 0.71875 -0.1875 1.609375q0 0.90625 0.1875 1.625q0.1875 0.7031326 0.5625 1.1875076q0.375 0.484375 0.921875 0.75q0.5625 0.25 1.328125 0.25zm5.69812 -8.875008l1.40625 0q0.21875 0 0.359375 0.109375q0.140625 0.109375 0.1875 0.25l1.9375 6.53125q0.078125 0.359375 0.140625 0.7031326q0.078125 0.328125 0.125 0.65625q0.078125 -0.328125 0.171875 -0.65625q0.109375 -0.34375763 0.21875 -0.7031326l2.140625 -6.5625q0.046875 -0.15625 0.171875 -0.25q0.125 -0.109375 0.3125 -0.109375l0.78125 0q0.203125 0 0.328125 0.109375q0.125 0.09375 0.171875 0.25l2.09375 6.5625q0.109375 0.34375 0.1875 0.6875076q0.09375 0.34375 0.171875 0.671875q0.046875 -0.328125 0.125 -0.6875q0.09375 -0.37500763 0.171875 -0.6718826l1.984375 -6.53125q0.046875 -0.15625 0.1875 -0.25q0.140625 -0.109375 0.328125 -0.109375l1.34375 0l-3.28125 10.125008l-1.40625 0q-0.265625 0 -0.359375 -0.34375l-2.234375 -6.8593826q-0.09375 -0.234375 -0.140625 -0.46875q-0.046875 -0.234375 -0.09375 -0.46875q-0.046875 0.234375 -0.109375 0.46875q-0.046875 0.234375 -0.125 0.46875l-2.265625 6.8593826q-0.109375 0.34375 -0.40625 0.34375l-1.34375 0l-3.28125 -10.125008zm22.444992 1.671875q-0.125 0.21875 -0.375 0.21875q-0.15625 0 -0.34375 -0.109375q-0.1875 -0.109375 -0.46875 -0.25q-0.265625 -0.140625 -0.65625 -0.25q-0.375 -0.109375 -0.890625 -0.109375q-0.453125 0 -0.8125 0.109375q-0.359375 0.109375 -0.625 0.3125q-0.25 0.203125 -0.390625 0.46875q-0.125 0.265625 -0.125 0.578125q0 0.390625 0.21875 0.65625q0.234375 0.25 0.59375 0.4375q0.375 0.1875 0.84375 0.34375q0.46875 0.140625 0.96875 0.3125q0.5 0.15625 0.96875 0.359375q0.46875 0.1875 0.828125 0.5q0.375 0.296875 0.59375 0.734375q0.234375 0.4375 0.234375 1.046875q0 0.6875076 -0.25 1.2968826q-0.25 0.59375 -0.75 1.03125q-0.484375 0.421875 -1.1875 0.671875q-0.703125 0.25 -1.640625 0.25q-1.0625 0 -1.921875 -0.34375q-0.859375 -0.34375 -1.453125 -0.875l0.421875 -0.6875q0.078125 -0.125 0.1875 -0.1875q0.109375 -0.078125 0.28125 -0.078125q0.1875 0 0.375 0.140625q0.203125 0.140625 0.484375 0.3125q0.296875 0.15625 0.703125 0.296875q0.40625 0.140625 1.015625 0.140625q0.515625 0 0.90625 -0.125q0.390625 -0.140625 0.640625 -0.359375q0.265625 -0.234375 0.390625 -0.53125q0.125 -0.3125 0.125 -0.6562576q0 -0.40625 -0.234375 -0.6875q-0.21875 -0.28125 -0.59375 -0.46875q-0.359375 -0.203125 -0.84375 -0.34375q-0.46875 -0.140625 -0.96875 -0.296875q-0.484375 -0.171875 -0.96875 -0.375q-0.46875 -0.203125 -0.84375 -0.515625q-0.359375 -0.3125 -0.59375 -0.765625q-0.21875 -0.453125 -0.21875 -1.09375q0 -0.59375 0.234375 -1.125q0.25 -0.53125 0.703125 -0.9375q0.46875 -0.40625 1.125 -0.640625q0.671875 -0.25 1.53125 -0.25q1.0 0 1.796875 0.328125q0.796875 0.3125 1.375 0.859375l-0.390625 0.65625zm6.8831177 -1.84375q0.90625 0 1.671875 0.3125q0.78125 0.296875 1.34375 0.875q0.5625 0.578125 0.875 1.421875q0.3125 0.84375 0.3125 1.921875q0 0.421875 -0.09375 0.5625q-0.09375 0.140625 -0.34375 0.140625l-6.734375 0q0.015625 0.96875 0.25 1.671875q0.25 0.7031326 0.671875 1.1875076q0.421875 0.46875 1.0 0.703125q0.578125 0.234375 1.296875 0.234375q0.671875 0 1.15625 -0.140625q0.484375 -0.15625 0.828125 -0.34375q0.359375 -0.1875 0.59375 -0.328125q0.234375 -0.15625 0.40625 -0.15625q0.21875 0 0.34375 0.171875l0.5 0.640625q-0.34375 0.40625 -0.796875 0.703125q-0.453125 0.28125 -0.984375 0.484375q-0.53125 0.1875 -1.09375 0.28125q-0.546875 0.09375 -1.109375 0.09375q-1.046875 0 -1.9375 -0.34375q-0.875 -0.359375 -1.53125 -1.046875q-0.640625 -0.6875 -1.0 -1.6875076q-0.359375 -1.015625 -0.359375 -2.328125q0 -1.0625 0.328125 -1.984375q0.328125 -0.921875 0.9375 -1.59375q0.609375 -0.671875 1.484375 -1.0625q0.890625 -0.390625 1.984375 -0.390625zm0.046875 1.3125q-1.296875 0 -2.046875 0.75q-0.734375 0.75 -0.90625 2.0625l5.5 0q0 -0.625 -0.171875 -1.125q-0.15625 -0.515625 -0.5 -0.890625q-0.328125 -0.375 -0.796875 -0.578125q-0.46875 -0.21875 -1.078125 -0.21875zm6.4174957 8.984383l0 -10.125008l1.03125 0q0.28125 0 0.390625 0.109375q0.109375 0.109375 0.15625 0.375l0.125 1.578125q0.515625 -1.0625 1.28125 -1.65625q0.765625 -0.59375 1.796875 -0.59375q0.421875 0 0.75 0.09375q0.34375 0.09375 0.640625 0.265625l-0.234375 1.328125q-0.078125 0.25 -0.3125 0.25q-0.140625 0 -0.4375 -0.09375q-0.28125 -0.09375 -0.796875 -0.09375q-0.9375 0 -1.5625 0.546875q-0.625 0.53125 -1.046875 1.5625l0 6.4531326l-1.78125 0z" fill-rule="nonzero"/><path fill="#000000" fill-opacity="0.0" d="m163.339 140.411l0 302.6772" fill-rule="evenodd"/><path stroke="#000000" stroke-width="3.0" stroke-linejoin="round" stroke-linecap="butt" d="m163.339 140.411l0 302.6772" fill-rule="evenodd"/><path fill="#000000" fill-opacity="0.0" d="m394.9199 112.29789l0 0c0 -3.105362 2.517395 -5.6227493 5.6227417 -5.6227493l230.2435 0c1.491272 0 2.9214478 0.59239197 3.975891 1.6468658c1.0545044 1.0544662 1.6469116 2.484642 1.6469116 3.9758835l0 22.490349c0 3.105362 -2.517395 5.622757 -5.6228027 5.622757l-230.2435 0c-3.1053467 0 -5.6227417 -2.517395 -5.6227417 -5.622757z" fill-rule="evenodd"/><path stroke="#000000" stroke-width="3.0" stroke-linejoin="round" stroke-linecap="butt" d="m394.9199 112.29789l0 0c0 -3.105362 2.517395 -5.6227493 5.6227417 -5.6227493l230.2435 0c1.491272 0 2.9214478 0.59239197 3.975891 1.6468658c1.0545044 1.0544662 1.6469116 2.484642 1.6469116 3.9758835l0 22.490349c0 3.105362 -2.517395 5.622757 -5.6228027 5.622757l-230.2435 0c-3.1053467 0 -5.6227417 -2.517395 -5.6227417 -5.622757z" fill-rule="evenodd"/><path fill="#000000" d="m506.15817 127.78994q0.15625 0 0.28125 0.125l0.765625 0.8281326q-0.875 1.015625 -2.140625 1.59375q-1.25 0.5625 -3.015625 0.5625q-1.546875 0 -2.8125 -0.53125q-1.265625 -0.53125 -2.15625 -1.5q-0.890625 -0.9687576 -1.375 -2.3125076q-0.484375 -1.359375 -0.484375 -2.96875q0 -1.625 0.515625 -2.96875q0.53125 -1.359375 1.46875 -2.328125q0.953125 -0.96875 2.28125 -1.5q1.328125 -0.53125 2.921875 -0.53125q1.59375 0 2.734375 0.484375q1.140625 0.484375 2.03125 1.328125l-0.625 0.890625q-0.078125 0.09375 -0.171875 0.171875q-0.078125 0.0625 -0.25 0.0625q-0.125 0 -0.28125 -0.09375q-0.140625 -0.09375 -0.34375 -0.234375q-0.203125 -0.140625 -0.46875 -0.296875q-0.265625 -0.171875 -0.640625 -0.3125q-0.375 -0.140625 -0.859375 -0.234375q-0.484375 -0.09375 -1.125 -0.09375q-1.15625 0 -2.109375 0.40625q-0.953125 0.390625 -1.640625 1.125q-0.6875 0.71875 -1.078125 1.78125q-0.390625 1.046875 -0.390625 2.34375q0 1.34375 0.390625 2.390625q0.390625 1.046875 1.046875 1.78125q0.671875 0.7187576 1.578125 1.0937576q0.90625 0.375 1.953125 0.375q0.640625 0 1.15625 -0.0625q0.515625 -0.078125 0.9375 -0.234375q0.4375 -0.171875 0.8125 -0.40625q0.375 -0.25 0.765625 -0.5937576q0.171875 -0.140625 0.328125 -0.140625zm10.653107 -2.234375q0.140625 0.25 0.234375 0.515625q0.109375 0.265625 0.203125 0.53125q0.109375 -0.28125 0.21875 -0.53125q0.109375 -0.265625 0.25 -0.515625l4.84375 -8.8125q0.140625 -0.234375 0.265625 -0.28125q0.140625 -0.046875 0.40625 -0.046875l1.4375 0l0 14.328133l-1.703125 0l0 -10.531258q0 -0.203125 0 -0.4375q0.015625 -0.25 0.03125 -0.5l-4.90625 8.953133q-0.25 0.453125 -0.703125 0.453125l-0.28125 0q-0.4375 0 -0.6875 -0.453125l-5.03125 -8.984383q0.03125 0.265625 0.046875 0.515625q0.015625 0.25 0.015625 0.453125l0 10.531258l-1.703125 0l0 -14.328133l1.4375 0q0.265625 0 0.390625 0.046875q0.140625 0.046875 0.28125 0.28125l4.953125 8.8125l0 0zm18.681213 -6.90625q-0.09375 0.15625 -0.1875 0.234375q-0.09375 0.0625 -0.265625 0.0625q-0.171875 0 -0.390625 -0.15625q-0.21875 -0.171875 -0.578125 -0.375q-0.34375 -0.21875 -0.828125 -0.375q-0.484375 -0.171875 -1.171875 -0.171875q-0.640625 0 -1.140625 0.171875q-0.5 0.171875 -0.84375 0.46875q-0.328125 0.296875 -0.5 0.703125q-0.171875 0.40625 -0.171875 0.875q0 0.609375 0.296875 1.0q0.296875 0.390625 0.78125 0.671875q0.484375 0.28125 1.09375 0.484375q0.625 0.203125 1.265625 0.4375q0.640625 0.21875 1.25 0.5q0.625 0.265625 1.109375 0.6875q0.484375 0.421875 0.78125 1.03125q0.296875 0.609375 0.296875 1.5q0 0.9375 -0.328125 1.7656326q-0.3125 0.8125 -0.9375 1.421875q-0.609375 0.609375 -1.515625 0.96875q-0.890625 0.34375 -2.03125 0.34375q-1.375 0 -2.53125 -0.5q-1.140625 -0.5 -1.953125 -1.359375l0.5625 -0.921875q0.078125 -0.109375 0.1875 -0.18750763q0.125 -0.078125 0.265625 -0.078125q0.203125 0 0.46875 0.23438263q0.28125 0.21875 0.6875 0.484375q0.40625 0.265625 0.96875 0.5q0.578125 0.21875 1.40625 0.21875q0.6875 0 1.234375 -0.1875q0.546875 -0.1875 0.921875 -0.53125q0.375 -0.34375 0.5625 -0.8281326q0.203125 -0.484375 0.203125 -1.0625q0 -0.65625 -0.296875 -1.0625q-0.296875 -0.421875 -0.78125 -0.703125q-0.46875 -0.28125 -1.09375 -0.46875q-0.609375 -0.203125 -1.25 -0.40625q-0.640625 -0.203125 -1.265625 -0.46875q-0.609375 -0.28125 -1.09375 -0.703125q-0.46875 -0.4375 -0.765625 -1.078125q-0.296875 -0.640625 -0.296875 -1.59375q0 -0.765625 0.296875 -1.46875q0.296875 -0.71875 0.84375 -1.265625q0.5625 -0.546875 1.390625 -0.875q0.828125 -0.328125 1.890625 -0.328125q1.203125 0 2.1875 0.375q1.0 0.375 1.734375 1.09375l-0.46875 0.921875z" fill-rule="nonzero"/><path fill="#000000" fill-opacity="0.0" d="m515.6644 140.411l0 302.6772" fill-rule="evenodd"/><path stroke="#000000" stroke-width="3.0" stroke-linejoin="round" stroke-linecap="butt" d="m515.6644 140.411l0 302.6772" fill-rule="evenodd"/><path fill="#000000" fill-opacity="0.0" d="m696.3874 112.2974l0 0c0 -3.105362 2.517395 -5.622757 5.6227417 -5.622757l210.15802 0c1.491272 0 2.9213867 0.5923996 3.975891 1.6468658c1.0544434 1.0544739 1.6468506 2.484642 1.6468506 3.975891l0 22.490349c0 3.105362 -2.517395 5.622757 -5.6227417 5.622757l-210.15802 0c-3.1053467 0 -5.6227417 -2.517395 -5.6227417 -5.622757z" fill-rule="evenodd"/><path stroke="#000000" stroke-width="3.0" stroke-linejoin="round" stroke-linecap="butt" d="m696.3874 112.2974l0 0c0 -3.105362 2.517395 -5.622757 5.6227417 -5.622757l210.15802 0c1.491272 0 2.9213867 0.5923996 3.975891 1.6468658c1.0544434 1.0544739 1.6468506 2.484642 1.6468506 3.975891l0 22.490349c0 3.105362 -2.517395 5.622757 -5.6227417 5.622757l-210.15802 0c-3.1053467 0 -5.6227417 -2.517395 -5.6227417 -5.622757z" fill-rule="evenodd"/><path fill="#000000" d="m798.44293 127.78945q0.15625 0 0.28125 0.125l0.765625 0.8281174q-0.875 1.015625 -2.140625 1.59375q-1.25 0.5625 -3.015625 0.5625q-1.546875 0 -2.8125 -0.53125q-1.265625 -0.53125 -2.15625 -1.5q-0.890625 -0.9687424 -1.375 -2.3124924q-0.484375 -1.359375 -0.484375 -2.96875q0 -1.625 0.515625 -2.96875q0.53125 -1.359375 1.46875 -2.328125q0.953125 -0.96875 2.28125 -1.5q1.328125 -0.53125 2.921875 -0.53125q1.59375 0 2.734375 0.484375q1.140625 0.484375 2.03125 1.328125l-0.625 0.890625q-0.078125 0.09375 -0.171875 0.171875q-0.078125 0.0625 -0.25 0.0625q-0.125 0 -0.28125 -0.09375q-0.140625 -0.09375 -0.34375 -0.234375q-0.203125 -0.140625 -0.46875 -0.296875q-0.265625 -0.171875 -0.640625 -0.3125q-0.375 -0.140625 -0.859375 -0.234375q-0.484375 -0.09375 -1.125 -0.09375q-1.15625 0 -2.109375 0.40625q-0.953125 0.390625 -1.640625 1.125q-0.6875 0.71875 -1.078125 1.78125q-0.390625 1.046875 -0.390625 2.34375q0 1.34375 0.390625 2.390625q0.390625 1.046875 1.046875 1.78125q0.671875 0.7187424 1.578125 1.0937424q0.90625 0.375 1.953125 0.375q0.640625 0 1.15625 -0.0625q0.515625 -0.078125 0.9375 -0.234375q0.4375 -0.171875 0.8125 -0.40625q0.375 -0.25 0.765625 -0.5937424q0.171875 -0.140625 0.328125 -0.140625zm16.012451 -4.203125q0 1.609375 -0.515625 2.9375q-0.5 1.3125 -1.4375 2.2499924q-0.921875 0.9375 -2.21875 1.453125q-1.296875 0.515625 -2.890625 0.515625l-5.359375 0l0 -14.328117l5.359375 0q1.59375 0 2.890625 0.515625q1.296875 0.515625 2.21875 1.46875q0.9375 0.9375 1.4375 2.265625q0.515625 1.3125 0.515625 2.921875zm-1.984375 0q0 -1.328125 -0.359375 -2.359375q-0.359375 -1.046875 -1.03125 -1.765625q-0.65625 -0.71875 -1.59375 -1.09375q-0.9375 -0.390625 -2.09375 -0.390625l-3.40625 0l0 11.203117l3.40625 0q1.15625 0 2.09375 -0.375q0.9375 -0.390625 1.59375 -1.1093674q0.671875 -0.71875 1.03125 -1.75q0.359375 -1.046875 0.359375 -2.359375zm6.7631226 1.796875l0 5.3593674l-1.9375 0l0 -14.328117l4.234375 0q1.359375 0 2.359375 0.3125q1.015625 0.3125 1.671875 0.890625q0.65625 0.578125 0.984375 1.40625q0.328125 0.8125 0.328125 1.828125q0 1.0 -0.359375 1.828125q-0.34375 0.828125 -1.03125 1.4375q-0.671875 0.59375 -1.671875 0.9375q-1.0 0.328125 -2.28125 0.328125l-2.296875 0zm0 -1.546875l2.296875 0q0.828125 0 1.453125 -0.21875q0.640625 -0.21875 1.0625 -0.609375q0.4375 -0.390625 0.65625 -0.9375q0.21875 -0.5625 0.21875 -1.21875q0 -1.375 -0.84375 -2.140625q-0.84375 -0.765625 -2.546875 -0.765625l-2.296875 0l0 5.890625z" fill-rule="nonzero"/><path fill="#000000" fill-opacity="0.0" d="m807.0892 140.4105l0 302.6772" fill-rule="evenodd"/><path stroke="#000000" stroke-width="3.0" stroke-linejoin="round" stroke-linecap="butt" d="m807.0892 140.4105l0 302.6772" fill-rule="evenodd"/><path fill="#000000" fill-opacity="0.0" d="m165.36508 193.07178l348.6583 0" fill-rule="evenodd"/><path stroke="#434343" stroke-width="1.0" stroke-linejoin="round" stroke-linecap="butt" d="m165.36508 193.0718l342.65833 0" fill-rule="evenodd"/><path fill="#434343" stroke="#434343" stroke-width="1.0" stroke-linecap="butt" d="m508.0234 194.72353l4.5381165 -1.6517334l-4.5381165 -1.6517334z" fill-rule="evenodd"/><path fill="#000000" fill-opacity="0.0" d="m188.22572 159.35167l287.74805 0l0 33.73227l-287.74805 0z" fill-rule="evenodd"/><path fill="#000000" d="m198.16322 180.4148l4.96875 0l0 1.296875l-6.515625 0l0 -11.46875l1.546875 0l0 10.171875zm9.739517 -6.9375q0.875 0 1.59375 0.296875q0.71875 0.296875 1.21875 0.84375q0.5 0.546875 0.765625 1.3125q0.265625 0.765625 0.265625 1.71875q0 0.96875 -0.265625 1.734375q-0.265625 0.765625 -0.765625 1.3125q-0.5 0.546875 -1.21875 0.84375q-0.71875 0.28125 -1.59375 0.28125q-0.890625 0 -1.609375 -0.28125q-0.71875 -0.296875 -1.21875 -0.84375q-0.5 -0.546875 -0.78125 -1.3125q-0.265625 -0.765625 -0.265625 -1.734375q0 -0.953125 0.265625 -1.71875q0.28125 -0.765625 0.78125 -1.3125q0.5 -0.546875 1.21875 -0.84375q0.71875 -0.296875 1.609375 -0.296875zm0 7.234375q1.1875 0 1.78125 -0.796875q0.59375 -0.8125 0.59375 -2.25q0 -1.453125 -0.59375 -2.25q-0.59375 -0.8125 -1.78125 -0.8125q-0.609375 0 -1.0625 0.203125q-0.453125 0.203125 -0.75 0.609375q-0.296875 0.390625 -0.453125 0.96875q-0.140625 0.5625 -0.140625 1.28125q0 0.71875 0.140625 1.296875q0.15625 0.5625 0.453125 0.953125q0.296875 0.375 0.75 0.59375q0.453125 0.203125 1.0625 0.203125zm11.567764 1.0l-0.640625 0q-0.203125 0 -0.328125 -0.0625q-0.125 -0.0625 -0.171875 -0.28125l-0.15625 -0.75q-0.328125 0.296875 -0.640625 0.53125q-0.296875 0.21875 -0.640625 0.375q-0.328125 0.15625 -0.703125 0.234375q-0.375 0.078125 -0.84375 0.078125q-0.46875 0 -0.890625 -0.125q-0.40625 -0.140625 -0.71875 -0.390625q-0.296875 -0.265625 -0.484375 -0.671875q-0.171875 -0.40625 -0.171875 -0.96875q0 -0.46875 0.265625 -0.90625q0.265625 -0.453125 0.84375 -0.796875q0.59375 -0.34375 1.546875 -0.5625q0.953125 -0.21875 2.328125 -0.25l0 -0.640625q0 -0.9375 -0.40625 -1.421875q-0.40625 -0.484375 -1.1875 -0.484375q-0.53125 0 -0.890625 0.140625q-0.34375 0.125 -0.609375 0.296875q-0.25 0.15625 -0.453125 0.296875q-0.1875 0.125 -0.359375 0.125q-0.15625 0 -0.265625 -0.078125q-0.09375 -0.078125 -0.15625 -0.1875l-0.265625 -0.453125q0.671875 -0.65625 1.453125 -0.96875q0.78125 -0.328125 1.71875 -0.328125q0.671875 0 1.203125 0.234375q0.53125 0.21875 0.890625 0.625q0.359375 0.390625 0.546875 0.96875q0.1875 0.5625 0.1875 1.234375l0 5.1875zm-3.703125 -0.875q0.375 0 0.6875 -0.078125q0.3125 -0.078125 0.578125 -0.203125q0.28125 -0.140625 0.53125 -0.34375q0.265625 -0.203125 0.5 -0.453125l0 -1.6875q-0.984375 0.03125 -1.671875 0.15625q-0.6875 0.109375 -1.125 0.3125q-0.421875 0.203125 -0.625 0.484375q-0.1875 0.265625 -0.1875 0.59375q0 0.328125 0.09375 0.5625q0.109375 0.234375 0.28125 0.375q0.171875 0.140625 0.40625 0.21875q0.25 0.0625 0.53125 0.0625zm11.565018 0.875q-0.3125 0 -0.390625 -0.296875l-0.125 -0.984375q-0.515625 0.640625 -1.1875 1.015625q-0.671875 0.375 -1.53125 0.375q-0.703125 0 -1.265625 -0.265625q-0.5625 -0.265625 -0.96875 -0.78125q-0.390625 -0.53125 -0.609375 -1.296875q-0.21875 -0.78125 -0.21875 -1.796875q0 -0.890625 0.234375 -1.65625q0.25 -0.78125 0.6875 -1.34375q0.453125 -0.5625 1.09375 -0.890625q0.65625 -0.328125 1.484375 -0.328125q0.75 0 1.265625 0.25q0.53125 0.25 0.953125 0.71875l0 -4.5l1.421875 0l0 11.78125l-0.84375 0zm-2.765625 -1.046875q0.703125 0 1.21875 -0.3125q0.53125 -0.328125 0.96875 -0.90625l0 -3.921875q-0.390625 -0.53125 -0.859375 -0.734375q-0.46875 -0.21875 -1.03125 -0.21875q-1.140625 0 -1.75 0.8125q-0.609375 0.8125 -0.609375 2.296875q0 0.796875 0.125 1.359375q0.140625 0.5625 0.40625 0.9375q0.265625 0.359375 0.640625 0.53125q0.390625 0.15625 0.890625 0.15625zm18.60997 1.046875l-1.5625 0l0 -5.21875l-6.171875 0l0 5.21875l-1.5625 0l0 -11.46875l1.5625 0l0 5.109375l6.171875 0l0 -5.109375l1.5625 0l0 11.46875zm10.611465 -11.46875l0 1.3125l-3.703125 0l0 10.15625l-1.5625 0l0 -10.15625l-3.71875 0l0 -1.3125l8.984375 0zm7.2680054 7.328125q0.109375 0.1875 0.1875 0.40625q0.09375 0.203125 0.171875 0.421875q0.078125 -0.21875 0.15625 -0.421875q0.09375 -0.203125 0.21875 -0.421875l3.875 -7.046875q0.109375 -0.1875 0.21875 -0.21875q0.109375 -0.046875 0.3125 -0.046875l1.140625 0l0 11.46875l-1.359375 0l0 -8.421875q0 -0.171875 0 -0.359375q0.015625 -0.1875 0.03125 -0.390625l-3.921875 7.15625q-0.203125 0.375 -0.5625 0.375l-0.21875 0q-0.359375 0 -0.5625 -0.375l-4.015625 -7.1875q0.03125 0.21875 0.03125 0.421875q0.015625 0.1875 0.015625 0.359375l0 8.421875l-1.359375 0l0 -11.46875l1.140625 0q0.21875 0 0.328125 0.046875q0.109375 0.03125 0.21875 0.21875l3.953125 7.0625l0 0zm10.626068 2.84375l4.96875 0l0 1.296875l-6.515625 0l0 -11.46875l1.546875 0l0 10.171875zm11.468109 -2.984375l0 4.28125l-1.546875 0l0 -11.46875l3.390625 0q1.09375 0 1.890625 0.265625q0.796875 0.25 1.328125 0.71875q0.53125 0.453125 0.78125 1.109375q0.265625 0.65625 0.265625 1.46875q0 0.796875 -0.28125 1.46875q-0.28125 0.65625 -0.828125 1.140625q-0.53125 0.46875 -1.328125 0.75q-0.796875 0.265625 -1.828125 0.265625l-1.84375 0zm0 -1.234375l1.84375 0q0.65625 0 1.15625 -0.171875q0.515625 -0.1875 0.859375 -0.5q0.34375 -0.3125 0.515625 -0.75q0.1875 -0.453125 0.1875 -0.96875q0 -1.109375 -0.6875 -1.71875q-0.671875 -0.609375 -2.03125 -0.609375l-1.84375 0l0 4.71875zm13.807129 5.515625l-0.640625 0q-0.203125 0 -0.328125 -0.0625q-0.125 -0.0625 -0.171875 -0.28125l-0.15625 -0.75q-0.328125 0.296875 -0.640625 0.53125q-0.296875 0.21875 -0.640625 0.375q-0.328125 0.15625 -0.703125 0.234375q-0.375 0.078125 -0.84375 0.078125q-0.46875 0 -0.890625 -0.125q-0.40625 -0.140625 -0.71875 -0.390625q-0.296875 -0.265625 -0.484375 -0.671875q-0.171875 -0.40625 -0.171875 -0.96875q0 -0.46875 0.265625 -0.90625q0.265625 -0.453125 0.84375 -0.796875q0.59375 -0.34375 1.546875 -0.5625q0.953125 -0.21875 2.328125 -0.25l0 -0.640625q0 -0.9375 -0.40625 -1.421875q-0.40625 -0.484375 -1.1875 -0.484375q-0.53125 0 -0.890625 0.140625q-0.34375 0.125 -0.609375 0.296875q-0.25 0.15625 -0.453125 0.296875q-0.1875 0.125 -0.359375 0.125q-0.15625 0 -0.265625 -0.078125q-0.09375 -0.078125 -0.15625 -0.1875l-0.265625 -0.453125q0.671875 -0.65625 1.453125 -0.96875q0.78125 -0.328125 1.71875 -0.328125q0.671875 0 1.203125 0.234375q0.53125 0.21875 0.890625 0.625q0.359375 0.390625 0.546875 0.96875q0.1875 0.5625 0.1875 1.234375l0 5.1875zm-3.703125 -0.875q0.375 0 0.6875 -0.078125q0.3125 -0.078125 0.578125 -0.203125q0.28125 -0.140625 0.53125 -0.34375q0.265625 -0.203125 0.5 -0.453125l0 -1.6875q-0.984375 0.03125 -1.671875 0.15625q-0.6875 0.109375 -1.125 0.3125q-0.421875 0.203125 -0.625 0.484375q-0.1875 0.265625 -0.1875 0.59375q0 0.328125 0.09375 0.5625q0.109375 0.234375 0.28125 0.375q0.171875 0.140625 0.40625 0.21875q0.25 0.0625 0.53125 0.0625zm8.580627 -7.359375q0.53125 0 0.984375 0.109375q0.46875 0.109375 0.84375 0.34375l2.203125 0l0 0.53125q0 0.265625 -0.34375 0.328125l-0.921875 0.125q0.28125 0.53125 0.28125 1.171875q0 0.578125 -0.234375 1.0625q-0.21875 0.484375 -0.625 0.828125q-0.40625 0.34375 -0.96875 0.53125q-0.546875 0.1875 -1.21875 0.1875q-0.5625 0 -1.0625 -0.140625q-0.265625 0.171875 -0.40625 0.359375q-0.125 0.171875 -0.125 0.34375q0 0.296875 0.234375 0.453125q0.234375 0.140625 0.609375 0.203125q0.390625 0.0625 0.875 0.078125q0.5 0.015625 1.0 0.0625q0.515625 0.03125 1.0 0.125q0.484375 0.078125 0.859375 0.28125q0.390625 0.1875 0.625 0.546875q0.234375 0.34375 0.234375 0.90625q0 0.53125 -0.265625 1.015625q-0.25 0.484375 -0.75 0.859375q-0.484375 0.390625 -1.1875 0.609375q-0.703125 0.234375 -1.59375 0.234375q-0.875 0 -1.546875 -0.1875q-0.671875 -0.171875 -1.109375 -0.46875q-0.4375 -0.296875 -0.65625 -0.6875q-0.21875 -0.375 -0.21875 -0.796875q0 -0.609375 0.375 -1.015625q0.375 -0.421875 1.046875 -0.671875q-0.34375 -0.171875 -0.546875 -0.4375q-0.203125 -0.265625 -0.203125 -0.71875q0 -0.171875 0.0625 -0.359375q0.0625 -0.1875 0.1875 -0.359375q0.140625 -0.1875 0.328125 -0.359375q0.1875 -0.171875 0.453125 -0.296875q-0.609375 -0.34375 -0.953125 -0.890625q-0.328125 -0.5625 -0.328125 -1.296875q0 -0.59375 0.21875 -1.078125q0.234375 -0.484375 0.640625 -0.828125q0.40625 -0.34375 0.96875 -0.515625q0.5625 -0.1875 1.234375 -0.1875zm2.53125 8.671875q0 -0.296875 -0.171875 -0.484375q-0.15625 -0.1875 -0.453125 -0.28125q-0.28125 -0.109375 -0.65625 -0.15625q-0.375 -0.046875 -0.796875 -0.0625q-0.421875 -0.015625 -0.859375 -0.03125q-0.421875 -0.03125 -0.8125 -0.109375q-0.453125 0.21875 -0.75 0.53125q-0.28125 0.3125 -0.28125 0.75q0 0.265625 0.140625 0.5q0.140625 0.25 0.421875 0.421875q0.296875 0.171875 0.734375 0.265625q0.4375 0.09375 1.03125 0.09375q0.578125 0 1.03125 -0.109375q0.453125 -0.09375 0.765625 -0.296875q0.328125 -0.1875 0.484375 -0.453125q0.171875 -0.25 0.171875 -0.578125zm-2.53125 -4.390625q0.4375 0 0.765625 -0.125q0.328125 -0.125 0.546875 -0.328125q0.234375 -0.21875 0.34375 -0.515625q0.109375 -0.3125 0.109375 -0.671875q0 -0.734375 -0.453125 -1.171875q-0.4375 -0.453125 -1.3125 -0.453125q-0.84375 0 -1.296875 0.453125q-0.453125 0.4375 -0.453125 1.171875q0 0.359375 0.109375 0.671875q0.125 0.296875 0.34375 0.515625q0.21875 0.203125 0.546875 0.328125q0.328125 0.125 0.75 0.125zm8.660278 -4.28125q0.734375 0 1.34375 0.25q0.609375 0.234375 1.0625 0.703125q0.453125 0.453125 0.703125 1.140625q0.25 0.671875 0.25 1.53125q0 0.34375 -0.078125 0.453125q-0.0625 0.109375 -0.265625 0.109375l-5.390625 0q0.015625 0.765625 0.203125 1.34375q0.203125 0.5625 0.53125 0.9375q0.34375 0.375 0.796875 0.5625q0.46875 0.1875 1.046875 0.1875q0.53125 0 0.921875 -0.109375q0.390625 -0.125 0.671875 -0.265625q0.28125 -0.15625 0.46875 -0.28125q0.1875 -0.125 0.3125 -0.125q0.1875 0 0.28125 0.140625l0.390625 0.515625q-0.25 0.328125 -0.625 0.5625q-0.375 0.234375 -0.796875 0.390625q-0.40625 0.140625 -0.859375 0.21875q-0.453125 0.078125 -0.890625 0.078125q-0.84375 0 -1.546875 -0.28125q-0.703125 -0.28125 -1.21875 -0.828125q-0.515625 -0.546875 -0.8125 -1.359375q-0.28125 -0.8125 -0.28125 -1.859375q0 -0.84375 0.25 -1.578125q0.265625 -0.734375 0.75 -1.265625q0.5 -0.546875 1.203125 -0.859375q0.703125 -0.3125 1.578125 -0.3125zm0.03125 1.046875q-1.03125 0 -1.625 0.609375q-0.59375 0.59375 -0.734375 1.640625l4.40625 0q0 -0.5 -0.140625 -0.90625q-0.125 -0.40625 -0.390625 -0.703125q-0.265625 -0.3125 -0.65625 -0.46875q-0.375 -0.171875 -0.859375 -0.171875z" fill-rule="nonzero"/><path fill="#000000" fill-opacity="0.0" d="m518.39215 239.07927l-353.01578 0" fill-rule="evenodd"/><path stroke="#434343" stroke-width="1.0" stroke-linejoin="round" stroke-linecap="butt" d="m518.3922 239.07927l-347.01587 0" fill-rule="evenodd"/><path fill="#434343" stroke="#434343" stroke-width="1.0" stroke-linecap="butt" d="m171.37636 237.42754l-4.538086 1.6517334l4.538086 1.6517334z" fill-rule="evenodd"/><path fill="#000000" fill-opacity="0.0" d="m188.22572 204.3202l330.14172 0l0 33.732285l-330.14172 0z" fill-rule="evenodd"/><path fill="#000000" d="m201.72572 225.5552q0.46875 0 0.859375 -0.046875q0.390625 -0.046875 0.734375 -0.125q0.34375 -0.09375 0.640625 -0.21875q0.3125 -0.125 0.609375 -0.28125l0 -2.53125l-1.78125 0q-0.140625 0 -0.234375 -0.078125q-0.09375 -0.09375 -0.09375 -0.21875l0 -0.890625l3.515625 0l0 4.40625q-0.4375 0.3125 -0.90625 0.546875q-0.453125 0.21875 -1.0 0.375q-0.53125 0.15625 -1.140625 0.234375q-0.59375 0.078125 -1.3125 0.078125q-1.25 0 -2.296875 -0.421875q-1.03125 -0.4375 -1.78125 -1.203125q-0.75 -0.765625 -1.171875 -1.84375q-0.421875 -1.09375 -0.421875 -2.390625q0 -1.3125 0.40625 -2.390625q0.421875 -1.078125 1.1875 -1.84375q0.765625 -0.78125 1.84375 -1.203125q1.078125 -0.421875 2.421875 -0.421875q0.6875 0 1.265625 0.109375q0.59375 0.09375 1.09375 0.28125q0.5 0.1875 0.921875 0.453125q0.421875 0.265625 0.78125 0.609375l-0.4375 0.703125q-0.125 0.21875 -0.34375 0.21875q-0.125 0 -0.28125 -0.09375q-0.203125 -0.109375 -0.453125 -0.265625q-0.25 -0.171875 -0.609375 -0.3125q-0.34375 -0.15625 -0.828125 -0.25q-0.484375 -0.109375 -1.15625 -0.109375q-0.96875 0 -1.75 0.328125q-0.78125 0.3125 -1.34375 0.90625q-0.546875 0.578125 -0.84375 1.421875q-0.296875 0.828125 -0.296875 1.859375q0 1.09375 0.3125 1.953125q0.3125 0.84375 0.875 1.4375q0.5625 0.59375 1.328125 0.90625q0.765625 0.3125 1.6875 0.3125zm9.618851 -7.109375q0.734375 0 1.34375 0.25q0.609375 0.234375 1.0625 0.703125q0.453125 0.453125 0.703125 1.140625q0.25 0.671875 0.25 1.53125q0 0.34375 -0.078125 0.453125q-0.0625 0.109375 -0.265625 0.109375l-5.390625 0q0.015625 0.765625 0.203125 1.34375q0.203125 0.5625 0.53125 0.9375q0.34375 0.375 0.796875 0.5625q0.46875 0.1875 1.046875 0.1875q0.53125 0 0.921875 -0.109375q0.390625 -0.125 0.671875 -0.265625q0.28125 -0.15625 0.46875 -0.28125q0.1875 -0.125 0.3125 -0.125q0.1875 0 0.28125 0.140625l0.390625 0.515625q-0.25 0.328125 -0.625 0.5625q-0.375 0.234375 -0.796875 0.390625q-0.40625 0.140625 -0.859375 0.21875q-0.453125 0.078125 -0.890625 0.078125q-0.84375 0 -1.546875 -0.28125q-0.703125 -0.28125 -1.21875 -0.828125q-0.515625 -0.546875 -0.8125 -1.359375q-0.28125 -0.8125 -0.28125 -1.859375q0 -0.84375 0.25 -1.578125q0.265625 -0.734375 0.75 -1.265625q0.5 -0.546875 1.203125 -0.859375q0.703125 -0.3125 1.578125 -0.3125zm0.03125 1.046875q-1.03125 0 -1.625 0.609375q-0.59375 0.59375 -0.734375 1.640625l4.40625 0q0 -0.5 -0.140625 -0.90625q-0.125 -0.40625 -0.390625 -0.703125q-0.265625 -0.3125 -0.65625 -0.46875q-0.375 -0.171875 -0.859375 -0.171875zm7.602646 7.3125q-0.96875 0 -1.484375 -0.53125q-0.515625 -0.53125 -0.515625 -1.546875l0 -4.953125l-0.96875 0q-0.125 0 -0.21875 -0.078125q-0.078125 -0.078125 -0.078125 -0.234375l0 -0.578125l1.328125 -0.15625l0.328125 -2.515625q0.015625 -0.109375 0.09375 -0.1875q0.09375 -0.078125 0.234375 -0.078125l0.71875 0l0 2.796875l2.3125 0l0 1.03125l-2.3125 0l0 4.859375q0 0.515625 0.234375 0.765625q0.25 0.234375 0.640625 0.234375q0.234375 0 0.390625 -0.046875q0.171875 -0.0625 0.28125 -0.125q0.125 -0.078125 0.203125 -0.140625q0.09375 -0.0625 0.15625 -0.0625q0.109375 0 0.203125 0.140625l0.40625 0.671875q-0.359375 0.34375 -0.890625 0.546875q-0.515625 0.1875 -1.0625 0.1875zm16.118393 -0.125l-1.5625 0l0 -5.21875l-6.171875 0l0 5.21875l-1.5625 0l0 -11.46875l1.5625 0l0 5.109375l6.171875 0l0 -5.109375l1.5625 0l0 11.46875zm10.611465 -11.46875l0 1.3125l-3.703125 0l0 10.15625l-1.5625 0l0 -10.15625l-3.71875 0l0 -1.3125l8.984375 0zm7.2680054 7.328125q0.109375 0.1875 0.1875 0.40625q0.09375 0.203125 0.171875 0.421875q0.078125 -0.21875 0.15625 -0.421875q0.09375 -0.203125 0.21875 -0.421875l3.8749847 -7.046875q0.109375 -0.1875 0.21875 -0.21875q0.109375 -0.046875 0.3125 -0.046875l1.140625 0l0 11.46875l-1.359375 0l0 -8.421875q0 -0.171875 0 -0.359375q0.015625 -0.1875 0.03125 -0.390625l-3.9218597 7.15625q-0.203125 0.375 -0.5625 0.375l-0.21875 0q-0.359375 0 -0.5625 -0.375l-4.015625 -7.1875q0.03125 0.21875 0.03125 0.421875q0.015625 0.1875 0.015625 0.359375l0 8.421875l-1.359375 0l0 -11.46875l1.140625 0q0.21875 0 0.328125 0.046875q0.109375 0.03125 0.21875 0.21875l3.953125 7.0625l0 0zm10.626053 2.84375l4.96875 0l0 1.296875l-6.515625 0l0 -11.46875l1.546875 0l0 10.171875z" fill-rule="nonzero"/><path fill="#000000" fill-opacity="0.0" d="m165.35735 288.6961l641.31696 0" fill-rule="evenodd"/><path stroke="#434343" stroke-width="1.0" stroke-linejoin="round" stroke-linecap="butt" d="m165.35735 288.6961l635.31696 0" fill-rule="evenodd"/><path fill="#434343" stroke="#434343" stroke-width="1.0" stroke-linecap="butt" d="m800.6743 290.34784l4.538086 -1.6517334l-4.538086 -1.6517334z" fill-rule="evenodd"/><path fill="#000000" fill-opacity="0.0" d="m188.22572 254.94751l476.56696 0l0 33.73227l-476.56696 0z" fill-rule="evenodd"/><path fill="#000000" d="m198.31947 272.52625l0 4.78125l-1.546875 0l0 -11.46875l3.25 0q1.078125 0 1.875 0.21875q0.796875 0.21875 1.3125 0.640625q0.515625 0.421875 0.75 1.015625q0.25 0.578125 0.25 1.3125q0 0.59375 -0.1875 1.125q-0.1875 0.53125 -0.5625 0.953125q-0.359375 0.421875 -0.890625 0.71875q-0.515625 0.296875 -1.171875 0.4375q0.28125 0.171875 0.515625 0.5l3.34375 4.546875l-1.390625 0q-0.421875 0 -0.609375 -0.328125l-2.984375 -4.09375q-0.140625 -0.1875 -0.296875 -0.265625q-0.15625 -0.09375 -0.484375 -0.09375l-1.171875 0zm0 -1.125l1.625 0q0.6875 0 1.203125 -0.15625q0.515625 -0.171875 0.859375 -0.46875q0.34375 -0.3125 0.515625 -0.71875q0.1875 -0.421875 0.1875 -0.921875q0 -1.03125 -0.6875 -1.546875q-0.671875 -0.515625 -2.0 -0.515625l-1.703125 0l0 4.328125zm11.585114 -2.328125q0.734375 0 1.34375 0.25q0.609375 0.234375 1.0625 0.703125q0.453125 0.453125 0.703125 1.140625q0.25 0.671875 0.25 1.53125q0 0.34375 -0.078125 0.453125q-0.0625 0.109375 -0.265625 0.109375l-5.390625 0q0.015625 0.765625 0.203125 1.34375q0.203125 0.5625 0.53125 0.9375q0.34375 0.375 0.796875 0.5625q0.46875 0.1875 1.046875 0.1875q0.53125 0 0.921875 -0.109375q0.390625 -0.125 0.671875 -0.265625q0.28125 -0.15625 0.46875 -0.28125q0.1875 -0.125 0.3125 -0.125q0.1875 0 0.28125 0.140625l0.390625 0.515625q-0.25 0.328125 -0.625 0.5625q-0.375 0.234375 -0.796875 0.390625q-0.40625 0.140625 -0.859375 0.21875q-0.453125 0.078125 -0.890625 0.078125q-0.84375 0 -1.546875 -0.28125q-0.703125 -0.28125 -1.21875 -0.828125q-0.515625 -0.546875 -0.8125 -1.359375q-0.28125 -0.8125 -0.28125 -1.859375q0 -0.84375 0.25 -1.578125q0.265625 -0.734375 0.75 -1.265625q0.5 -0.546875 1.203125 -0.859375q0.703125 -0.3125 1.578125 -0.3125zm0.03125 1.046875q-1.03125 0 -1.625 0.609375q-0.59375 0.59375 -0.734375 1.640625l4.40625 0q0 -0.5 -0.140625 -0.90625q-0.125 -0.40625 -0.390625 -0.703125q-0.265625 -0.3125 -0.65625 -0.46875q-0.375 -0.171875 -0.859375 -0.171875zm11.696396 -0.921875l0 10.859375l-1.421875 0l0 -3.953125q-0.515625 0.59375 -1.171875 0.953125q-0.640625 0.359375 -1.484375 0.359375q-0.703125 0 -1.265625 -0.265625q-0.5625 -0.265625 -0.96875 -0.78125q-0.390625 -0.53125 -0.609375 -1.296875q-0.21875 -0.78125 -0.21875 -1.796875q0 -0.890625 0.234375 -1.65625q0.25 -0.78125 0.6875 -1.34375q0.453125 -0.5625 1.09375 -0.890625q0.65625 -0.328125 1.484375 -0.328125q0.78125 0 1.328125 0.28125q0.546875 0.28125 0.984375 0.796875l0.09375 -0.640625q0.078125 -0.296875 0.390625 -0.296875l0.84375 0zm-3.609375 7.0625q0.703125 0 1.21875 -0.3125q0.53125 -0.328125 0.96875 -0.90625l0 -3.921875q-0.390625 -0.515625 -0.859375 -0.734375q-0.46875 -0.21875 -1.03125 -0.21875q-1.140625 0 -1.75 0.8125q-0.609375 0.8125 -0.609375 2.296875q0 0.796875 0.125 1.359375q0.140625 0.5625 0.40625 0.9375q0.265625 0.359375 0.640625 0.53125q0.390625 0.15625 0.890625 0.15625zm7.240753 -7.0625l0 5.171875q0 0.921875 0.421875 1.421875q0.421875 0.5 1.28125 0.5q0.625 0 1.171875 -0.28125q0.546875 -0.296875 1.015625 -0.828125l0 -5.984375l1.421875 0l0 8.109375l-0.84375 0q-0.3125 0 -0.390625 -0.296875l-0.109375 -0.875q-0.53125 0.59375 -1.1875 0.953125q-0.65625 0.34375 -1.5 0.34375q-0.65625 0 -1.171875 -0.21875q-0.5 -0.21875 -0.859375 -0.609375q-0.34375 -0.40625 -0.515625 -0.96875q-0.171875 -0.578125 -0.171875 -1.265625l0 -5.171875l1.4375 0zm10.864639 -0.125q0.734375 0 1.34375 0.25q0.609375 0.234375 1.0625 0.703125q0.453125 0.453125 0.703125 1.140625q0.25 0.671875 0.25 1.53125q0 0.34375 -0.078125 0.453125q-0.0625 0.109375 -0.265625 0.109375l-5.390625 0q0.015625 0.765625 0.203125 1.34375q0.203125 0.5625 0.53125 0.9375q0.34375 0.375 0.796875 0.5625q0.46875 0.1875 1.046875 0.1875q0.53125 0 0.921875 -0.109375q0.390625 -0.125 0.671875 -0.265625q0.28125 -0.15625 0.46875 -0.28125q0.1875 -0.125 0.3125 -0.125q0.1875 0 0.28125 0.140625l0.390625 0.515625q-0.25 0.328125 -0.625 0.5625q-0.375 0.234375 -0.796875 0.390625q-0.40625 0.140625 -0.859375 0.21875q-0.453125 0.078125 -0.890625 0.078125q-0.84375 0 -1.546875 -0.28125q-0.703125 -0.28125 -1.21875 -0.828125q-0.515625 -0.546875 -0.8125 -1.359375q-0.28125 -0.8125 -0.28125 -1.859375q0 -0.84375 0.25 -1.578125q0.265625 -0.734375 0.75 -1.265625q0.5 -0.546875 1.203125 -0.859375q0.703125 -0.3125 1.578125 -0.3125zm0.03125 1.046875q-1.03125 0 -1.625 0.609375q-0.59375 0.59375 -0.734375 1.640625l4.40625 0q0 -0.5 -0.140625 -0.90625q-0.125 -0.40625 -0.390625 -0.703125q-0.265625 -0.3125 -0.65625 -0.46875q-0.375 -0.171875 -0.859375 -0.171875zm9.790146 0.421875q-0.09375 0.171875 -0.296875 0.171875q-0.125 0 -0.28125 -0.078125q-0.140625 -0.09375 -0.375 -0.203125q-0.21875 -0.109375 -0.515625 -0.203125q-0.296875 -0.09375 -0.71875 -0.09375q-0.359375 0 -0.65625 0.09375q-0.28125 0.09375 -0.484375 0.265625q-0.203125 0.15625 -0.3125 0.375q-0.109375 0.203125 -0.109375 0.453125q0 0.296875 0.171875 0.515625q0.1875 0.203125 0.484375 0.359375q0.296875 0.15625 0.671875 0.265625q0.375 0.109375 0.765625 0.25q0.40625 0.125 0.78125 0.296875q0.375 0.15625 0.671875 0.40625q0.296875 0.234375 0.46875 0.578125q0.1875 0.34375 0.1875 0.828125q0 0.5625 -0.203125 1.046875q-0.203125 0.46875 -0.59375 0.828125q-0.390625 0.34375 -0.96875 0.546875q-0.5625 0.1875 -1.296875 0.1875q-0.84375 0 -1.546875 -0.265625q-0.6875 -0.28125 -1.15625 -0.71875l0.328125 -0.546875q0.0625 -0.09375 0.15625 -0.140625q0.09375 -0.0625 0.234375 -0.0625q0.140625 0 0.296875 0.109375q0.171875 0.109375 0.390625 0.25q0.234375 0.125 0.546875 0.25q0.328125 0.109375 0.8125 0.109375q0.421875 0 0.734375 -0.109375q0.3125 -0.109375 0.515625 -0.296875q0.21875 -0.1875 0.3125 -0.421875q0.09375 -0.234375 0.09375 -0.515625q0 -0.328125 -0.1875 -0.546875q-0.171875 -0.234375 -0.46875 -0.375q-0.296875 -0.15625 -0.671875 -0.265625q-0.375 -0.125 -0.78125 -0.25q-0.390625 -0.140625 -0.78125 -0.296875q-0.375 -0.171875 -0.671875 -0.40625q-0.28125 -0.25 -0.46875 -0.609375q-0.171875 -0.375 -0.171875 -0.890625q0 -0.46875 0.1875 -0.890625q0.1875 -0.4375 0.546875 -0.75q0.375 -0.328125 0.90625 -0.515625q0.546875 -0.203125 1.234375 -0.203125q0.796875 0 1.421875 0.25q0.640625 0.25 1.109375 0.703125l-0.3125 0.515625zm4.7564087 6.890625q-0.96875 0 -1.484375 -0.53125q-0.515625 -0.53125 -0.515625 -1.546875l0 -4.953125l-0.96875 0q-0.125 0 -0.21875 -0.078125q-0.078125 -0.078125 -0.078125 -0.234375l0 -0.578125l1.328125 -0.15625l0.328125 -2.515625q0.015625 -0.109375 0.09375 -0.1875q0.09375 -0.078125 0.234375 -0.078125l0.71875 0l0 2.796875l2.3125 0l0 1.03125l-2.3125 0l0 4.859375q0 0.515625 0.234375 0.765625q0.25 0.234375 0.640625 0.234375q0.234375 0 0.390625 -0.046875q0.171875 -0.0625 0.28125 -0.125q0.125 -0.078125 0.203125 -0.140625q0.09375 -0.0625 0.15625 -0.0625q0.109375 0 0.203125 0.140625l0.40625 0.671875q-0.359375 0.34375 -0.890625 0.546875q-0.515625 0.1875 -1.0625 0.1875zm6.6027527 2.625l0 -10.859375l0.84375 0q0.296875 0 0.390625 0.296875l0.109375 0.96875q0.53125 -0.640625 1.1875 -1.015625q0.671875 -0.390625 1.546875 -0.390625q0.6875 0 1.25 0.265625q0.578125 0.265625 0.96875 0.796875q0.40625 0.53125 0.625 1.3125q0.21875 0.765625 0.21875 1.765625q0 0.90625 -0.25 1.6875q-0.234375 0.765625 -0.6875 1.328125q-0.4375 0.5625 -1.09375 0.890625q-0.65625 0.3125 -1.46875 0.3125q-0.75 0 -1.28125 -0.25q-0.53125 -0.25 -0.9375 -0.703125l0 3.59375l-1.421875 0zm3.609375 -9.84375q-0.703125 0 -1.234375 0.328125q-0.515625 0.3125 -0.953125 0.890625l0 3.921875q0.390625 0.53125 0.859375 0.75q0.46875 0.21875 1.046875 0.21875q1.125 0 1.734375 -0.8125q0.609375 -0.8125 0.609375 -2.3125q0 -0.78125 -0.140625 -1.34375q-0.140625 -0.578125 -0.40625 -0.9375q-0.265625 -0.375 -0.65625 -0.53125q-0.375 -0.171875 -0.859375 -0.171875zm5.222534 7.09375l0 -8.109375l0.8125 0q0.234375 0 0.3125 0.09375q0.09375 0.09375 0.125 0.296875l0.09375 1.265625q0.421875 -0.84375 1.03125 -1.3125q0.609375 -0.484375 1.4375 -0.484375q0.328125 0 0.59375 0.078125q0.28125 0.078125 0.515625 0.21875l-0.1875 1.0625q-0.046875 0.1875 -0.25 0.1875q-0.109375 0 -0.34375 -0.0625q-0.21875 -0.078125 -0.640625 -0.078125q-0.75 0 -1.25 0.4375q-0.5 0.421875 -0.828125 1.25l0 5.15625l-1.421875 0zm9.7291565 -8.234375q0.875 0 1.59375 0.296875q0.71875 0.296875 1.21875 0.84375q0.5 0.546875 0.765625 1.3125q0.265625 0.765625 0.265625 1.71875q0 0.96875 -0.265625 1.734375q-0.265625 0.765625 -0.765625 1.3125q-0.5 0.546875 -1.21875 0.84375q-0.71875 0.28125 -1.59375 0.28125q-0.890625 0 -1.609375 -0.28125q-0.71875 -0.296875 -1.21875 -0.84375q-0.5 -0.546875 -0.78125 -1.3125q-0.265625 -0.765625 -0.265625 -1.734375q0 -0.953125 0.265625 -1.71875q0.28125 -0.765625 0.78125 -1.3125q0.5 -0.546875 1.21875 -0.84375q0.71875 -0.296875 1.609375 -0.296875zm0 7.234375q1.1875 0 1.78125 -0.796875q0.59375 -0.8125 0.59375 -2.25q0 -1.453125 -0.59375 -2.25q-0.59375 -0.8125 -1.78125 -0.8125q-0.609375 0 -1.0625 0.203125q-0.453125 0.203125 -0.75 0.609375q-0.296875 0.390625 -0.453125 0.96875q-0.140625 0.5625 -0.140625 1.28125q0 0.71875 0.140625 1.296875q0.15625 0.5625 0.453125 0.953125q0.296875 0.375 0.75 0.59375q0.453125 0.203125 1.0625 0.203125zm5.9271545 1.0l0 -6.890625l-0.890625 -0.09375q-0.171875 -0.046875 -0.28125 -0.125q-0.109375 -0.09375 -0.109375 -0.25l0 -0.578125l1.28125 0l0 -0.796875q0 -0.6875 0.1875 -1.21875q0.203125 -0.546875 0.5625 -0.921875q0.375 -0.375 0.875 -0.5625q0.515625 -0.1875 1.15625 -0.1875q0.546875 0 1.015625 0.15625l-0.03125 0.703125q-0.015625 0.171875 -0.140625 0.203125q-0.125 0.03125 -0.359375 0.03125l-0.25 0q-0.359375 0 -0.671875 0.09375q-0.296875 0.09375 -0.515625 0.3125q-0.203125 0.21875 -0.328125 0.578125q-0.109375 0.34375 -0.109375 0.859375l0 0.75l2.34375 0l0 1.03125l-2.296875 0l0 6.90625l-1.4375 0zm6.6575623 -8.109375l0 8.109375l-1.421875 0l0 -8.109375l1.421875 0zm0.328125 -2.53125q0 0.203125 -0.09375 0.390625q-0.078125 0.171875 -0.21875 0.3125q-0.140625 0.140625 -0.328125 0.21875q-0.1875 0.078125 -0.390625 0.078125q-0.203125 0 -0.390625 -0.078125q-0.171875 -0.078125 -0.3125 -0.21875q-0.140625 -0.140625 -0.21875 -0.3125q-0.078125 -0.1875 -0.078125 -0.390625q0 -0.21875 0.078125 -0.40625q0.078125 -0.1875 0.21875 -0.328125q0.140625 -0.140625 0.3125 -0.21875q0.1875 -0.078125 0.390625 -0.078125q0.203125 0 0.390625 0.078125q0.1875 0.078125 0.328125 0.21875q0.140625 0.140625 0.21875 0.328125q0.09375 0.1875 0.09375 0.40625zm3.7678223 -1.140625l0 11.78125l-1.421875 0l0 -11.78125l1.421875 0zm5.7209473 3.546875q0.734375 0 1.34375 0.25q0.609375 0.234375 1.0625 0.703125q0.453125 0.453125 0.703125 1.140625q0.25 0.671875 0.25 1.53125q0 0.34375 -0.078125 0.453125q-0.0625 0.109375 -0.265625 0.109375l-5.390625 0q0.015625 0.765625 0.203125 1.34375q0.203125 0.5625 0.53125 0.9375q0.34375 0.375 0.796875 0.5625q0.46875 0.1875 1.046875 0.1875q0.53125 0 0.921875 -0.109375q0.390625 -0.125 0.671875 -0.265625q0.28125 -0.15625 0.46875 -0.28125q0.1875 -0.125 0.3125 -0.125q0.1875 0 0.28125 0.140625l0.390625 0.515625q-0.25 0.328125 -0.625 0.5625q-0.375 0.234375 -0.796875 0.390625q-0.40625 0.140625 -0.859375 0.21875q-0.453125 0.078125 -0.890625 0.078125q-0.84375 0 -1.546875 -0.28125q-0.703125 -0.28125 -1.21875 -0.828125q-0.515625 -0.546875 -0.8125 -1.359375q-0.28125 -0.8125 -0.28125 -1.859375q0 -0.84375 0.25 -1.578125q0.265625 -0.734375 0.75 -1.265625q0.5 -0.546875 1.203125 -0.859375q0.703125 -0.3125 1.578125 -0.3125zm0.03125 1.046875q-1.03125 0 -1.625 0.609375q-0.59375 0.59375 -0.734375 1.640625l4.40625 0q0 -0.5 -0.140625 -0.90625q-0.125 -0.40625 -0.390625 -0.703125q-0.265625 -0.3125 -0.65625 -0.46875q-0.375 -0.171875 -0.859375 -0.171875z" fill-rule="nonzero"/><path fill="#000000" fill-opacity="0.0" d="m165.37877 335.22278l641.31696 0" fill-rule="evenodd"/><path stroke="#434343" stroke-width="1.0" stroke-linejoin="round" stroke-linecap="butt" d="m171.37877 335.22278l635.3169 0" fill-rule="evenodd"/><path fill="#434343" stroke="#434343" stroke-width="1.0" stroke-linecap="butt" d="m171.37877 333.57104l-4.538101 1.6517334l4.538101 1.6517334z" fill-rule="evenodd"/><path fill="#000000" fill-opacity="0.0" d="m188.22572 304.54724l543.65356 0l0 33.7323l-543.65356 0z" fill-rule="evenodd"/><path fill="#000000" d="m201.72572 325.78226q0.46875 0 0.859375 -0.046875q0.390625 -0.046875 0.734375 -0.125q0.34375 -0.09375 0.640625 -0.21875q0.3125 -0.125 0.609375 -0.28125l0 -2.53125l-1.78125 0q-0.140625 0 -0.234375 -0.078125q-0.09375 -0.09375 -0.09375 -0.21875l0 -0.890625l3.515625 0l0 4.40625q-0.4375 0.3125 -0.90625 0.546875q-0.453125 0.21875 -1.0 0.375q-0.53125 0.15625 -1.140625 0.234375q-0.59375 0.078125 -1.3125 0.078125q-1.25 0 -2.296875 -0.421875q-1.03125 -0.4375 -1.78125 -1.203125q-0.75 -0.765625 -1.171875 -1.84375q-0.421875 -1.09375 -0.421875 -2.390625q0 -1.3125 0.40625 -2.390625q0.421875 -1.078125 1.1875 -1.84375q0.765625 -0.78125 1.84375 -1.203125q1.078125 -0.421875 2.421875 -0.421875q0.6875 0 1.265625 0.109375q0.59375 0.09375 1.09375 0.28125q0.5 0.1875 0.921875 0.453125q0.421875 0.265625 0.78125 0.609375l-0.4375 0.703125q-0.125 0.21875 -0.34375 0.21875q-0.125 0 -0.28125 -0.09375q-0.203125 -0.109375 -0.453125 -0.265625q-0.25 -0.171875 -0.609375 -0.3125q-0.34375 -0.15625 -0.828125 -0.25q-0.484375 -0.109375 -1.15625 -0.109375q-0.96875 0 -1.75 0.328125q-0.78125 0.3125 -1.34375 0.90625q-0.546875 0.578125 -0.84375 1.421875q-0.296875 0.828125 -0.296875 1.859375q0 1.09375 0.3125 1.953125q0.3125 0.84375 0.875 1.4375q0.5625 0.59375 1.328125 0.90625q0.765625 0.3125 1.6875 0.3125zm9.618851 -7.109375q0.734375 0 1.34375 0.25q0.609375 0.234375 1.0625 0.703125q0.453125 0.453125 0.703125 1.140625q0.25 0.671875 0.25 1.53125q0 0.34375 -0.078125 0.453125q-0.0625 0.109375 -0.265625 0.109375l-5.390625 0q0.015625 0.765625 0.203125 1.34375q0.203125 0.5625 0.53125 0.9375q0.34375 0.375 0.796875 0.5625q0.46875 0.1875 1.046875 0.1875q0.53125 0 0.921875 -0.109375q0.390625 -0.125 0.671875 -0.265625q0.28125 -0.15625 0.46875 -0.28125q0.1875 -0.125 0.3125 -0.125q0.1875 0 0.28125 0.140625l0.390625 0.515625q-0.25 0.328125 -0.625 0.5625q-0.375 0.234375 -0.796875 0.390625q-0.40625 0.140625 -0.859375 0.21875q-0.453125 0.078125 -0.890625 0.078125q-0.84375 0 -1.546875 -0.28125q-0.703125 -0.28125 -1.21875 -0.828125q-0.515625 -0.546875 -0.8125 -1.359375q-0.28125 -0.8125 -0.28125 -1.859375q0 -0.84375 0.25 -1.578125q0.265625 -0.734375 0.75 -1.265625q0.5 -0.546875 1.203125 -0.859375q0.703125 -0.3125 1.578125 -0.3125zm0.03125 1.046875q-1.03125 0 -1.625 0.609375q-0.59375 0.59375 -0.734375 1.640625l4.40625 0q0 -0.5 -0.140625 -0.90625q-0.125 -0.40625 -0.390625 -0.703125q-0.265625 -0.3125 -0.65625 -0.46875q-0.375 -0.171875 -0.859375 -0.171875zm7.602646 7.3125q-0.96875 0 -1.484375 -0.53125q-0.515625 -0.53125 -0.515625 -1.546875l0 -4.953125l-0.96875 0q-0.125 0 -0.21875 -0.078125q-0.078125 -0.078125 -0.078125 -0.234375l0 -0.578125l1.328125 -0.15625l0.328125 -2.515625q0.015625 -0.109375 0.09375 -0.1875q0.09375 -0.078125 0.234375 -0.078125l0.71875 0l0 2.796875l2.3125 0l0 1.03125l-2.3125 0l0 4.859375q0 0.515625 0.234375 0.765625q0.25 0.234375 0.640625 0.234375q0.234375 0 0.390625 -0.046875q0.171875 -0.0625 0.28125 -0.125q0.125 -0.078125 0.203125 -0.140625q0.09375 -0.0625 0.15625 -0.0625q0.109375 0 0.203125 0.140625l0.40625 0.671875q-0.359375 0.34375 -0.890625 0.546875q-0.515625 0.1875 -1.0625 0.1875zm6.602768 2.625l0 -10.859375l0.84375 0q0.296875 0 0.390625 0.296875l0.109375 0.96875q0.53125 -0.640625 1.1875 -1.015625q0.671875 -0.390625 1.546875 -0.390625q0.6875 0 1.25 0.265625q0.578125 0.265625 0.96875 0.796875q0.40625 0.53125 0.625 1.3125q0.21875 0.765625 0.21875 1.765625q0 0.90625 -0.25 1.6875q-0.234375 0.765625 -0.6875 1.328125q-0.4375 0.5625 -1.09375 0.890625q-0.65625 0.3125 -1.46875 0.3125q-0.75 0 -1.28125 -0.25q-0.53125 -0.25 -0.9375 -0.703125l0 3.59375l-1.421875 0zm3.609375 -9.84375q-0.703125 0 -1.234375 0.328125q-0.515625 0.3125 -0.953125 0.890625l0 3.921875q0.390625 0.53125 0.859375 0.75q0.46875 0.21875 1.046875 0.21875q1.125 0 1.734375 -0.8125q0.609375 -0.8125 0.609375 -2.3125q0 -0.78125 -0.140625 -1.34375q-0.140625 -0.578125 -0.40625 -0.9375q-0.265625 -0.375 -0.65625 -0.53125q-0.375 -0.171875 -0.859375 -0.171875zm5.222519 7.09375l0 -8.109375l0.8125 0q0.234375 0 0.3125 0.09375q0.09375 0.09375 0.125 0.296875l0.09375 1.265625q0.421875 -0.84375 1.03125 -1.3125q0.609375 -0.484375 1.4375 -0.484375q0.328125 0 0.59375 0.078125q0.28125 0.078125 0.515625 0.21875l-0.1875 1.0625q-0.046875 0.1875 -0.25 0.1875q-0.109375 0 -0.34375 -0.0625q-0.21875 -0.078125 -0.640625 -0.078125q-0.75 0 -1.25 0.4375q-0.5 0.421875 -0.828125 1.25l0 5.15625l-1.421875 0zm9.729172 -8.234375q0.875 0 1.59375 0.296875q0.71875 0.296875 1.21875 0.84375q0.5 0.546875 0.765625 1.3125q0.265625 0.765625 0.265625 1.71875q0 0.96875 -0.265625 1.734375q-0.265625 0.765625 -0.765625 1.3125q-0.5 0.546875 -1.21875 0.84375q-0.71875 0.28125 -1.59375 0.28125q-0.890625 0 -1.609375 -0.28125q-0.71875 -0.296875 -1.21875 -0.84375q-0.5 -0.546875 -0.78125 -1.3125q-0.265625 -0.765625 -0.265625 -1.734375q0 -0.953125 0.265625 -1.71875q0.28125 -0.765625 0.78125 -1.3125q0.5 -0.546875 1.21875 -0.84375q0.71875 -0.296875 1.609375 -0.296875zm0 7.234375q1.1875 0 1.78125 -0.796875q0.59375 -0.8125 0.59375 -2.25q0 -1.453125 -0.59375 -2.25q-0.59375 -0.8125 -1.78125 -0.8125q-0.609375 0 -1.0625 0.203125q-0.453125 0.203125 -0.75 0.609375q-0.296875 0.390625 -0.453125 0.96875q-0.140625 0.5625 -0.140625 1.28125q0 0.71875 0.140625 1.296875q0.15625 0.5625 0.453125 0.953125q0.296875 0.375 0.75 0.59375q0.453125 0.203125 1.0625 0.203125zm5.9271393 1.0l0 -6.890625l-0.890625 -0.09375q-0.171875 -0.046875 -0.28125 -0.125q-0.109375 -0.09375 -0.109375 -0.25l0 -0.578125l1.28125 0l0 -0.796875q0 -0.6875 0.1875 -1.21875q0.203125 -0.546875 0.5625 -0.921875q0.375 -0.375 0.875 -0.5625q0.515625 -0.1875 1.15625 -0.1875q0.546875 0 1.015625 0.15625l-0.03125 0.703125q-0.015625 0.171875 -0.140625 0.203125q-0.125 0.03125 -0.359375 0.03125l-0.25 0q-0.359375 0 -0.671875 0.09375q-0.296875 0.09375 -0.515625 0.3125q-0.203125 0.21875 -0.328125 0.578125q-0.109375 0.34375 -0.109375 0.859375l0 0.75l2.34375 0l0 1.03125l-2.296875 0l0 6.90625l-1.4375 0zm6.657547 -8.109375l0 8.109375l-1.4218597 0l0 -8.109375l1.4218597 0zm0.328125 -2.53125q0 0.203125 -0.09375 0.390625q-0.078125 0.171875 -0.21875 0.3125q-0.140625 0.140625 -0.328125 0.21875q-0.1875 0.078125 -0.390625 0.078125q-0.20310974 0 -0.39060974 -0.078125q-0.171875 -0.078125 -0.3125 -0.21875q-0.140625 -0.140625 -0.21875 -0.3125q-0.078125 -0.1875 -0.078125 -0.390625q0 -0.21875 0.078125 -0.40625q0.078125 -0.1875 0.21875 -0.328125q0.140625 -0.140625 0.3125 -0.21875q0.1875 -0.078125 0.39060974 -0.078125q0.203125 0 0.390625 0.078125q0.1875 0.078125 0.328125 0.21875q0.140625 0.140625 0.21875 0.328125q0.09375 0.1875 0.09375 0.40625zm3.7678223 -1.140625l0 11.78125l-1.421875 0l0 -11.78125l1.421875 0zm5.7209473 3.546875q0.734375 0 1.34375 0.25q0.609375 0.234375 1.0625 0.703125q0.453125 0.453125 0.703125 1.140625q0.25 0.671875 0.25 1.53125q0 0.34375 -0.078125 0.453125q-0.0625 0.109375 -0.265625 0.109375l-5.390625 0q0.015625 0.765625 0.203125 1.34375q0.203125 0.5625 0.53125 0.9375q0.34375 0.375 0.796875 0.5625q0.46875 0.1875 1.046875 0.1875q0.53125 0 0.921875 -0.109375q0.390625 -0.125 0.671875 -0.265625q0.28125 -0.15625 0.46875 -0.28125q0.1875 -0.125 0.3125 -0.125q0.1875 0 0.28125 0.140625l0.390625 0.515625q-0.25 0.328125 -0.625 0.5625q-0.375 0.234375 -0.796875 0.390625q-0.40625 0.140625 -0.859375 0.21875q-0.453125 0.078125 -0.890625 0.078125q-0.84375 0 -1.546875 -0.28125q-0.703125 -0.28125 -1.21875 -0.828125q-0.515625 -0.546875 -0.8125 -1.359375q-0.28125 -0.8125 -0.28125 -1.859375q0 -0.84375 0.25 -1.578125q0.265625 -0.734375 0.75 -1.265625q0.5 -0.546875 1.203125 -0.859375q0.703125 -0.3125 1.578125 -0.3125zm0.03125 1.046875q-1.03125 0 -1.625 0.609375q-0.59375 0.59375 -0.734375 1.640625l4.40625 0q0 -0.5 -0.140625 -0.90625q-0.125 -0.40625 -0.390625 -0.703125q-0.265625 -0.3125 -0.65625 -0.46875q-0.375 -0.171875 -0.859375 -0.171875z" fill-rule="nonzero"/><path fill="#000000" fill-opacity="0.0" d="m164.34958 333.6378c-7.8263397 4.737091 -46.751976 20.390656 -46.958008 28.422577c-0.20603943 8.031952 38.101486 16.474182 45.721786 19.769043" fill-rule="evenodd"/><path stroke="#595959" stroke-width="1.0" stroke-linejoin="round" stroke-linecap="butt" d="m164.34958 333.6378c-7.8263397 4.7371216 -46.751976 20.390625 -46.958008 28.422577c-0.103019714 4.015991 9.422356 8.1345215 19.92601 11.660919c5.2518463 1.7632141 10.748245 3.378418 15.407959 4.7586975c1.1649323 0.34506226 2.2775726 0.67544556 3.3209991 0.98983765l1.3882904 0.42196655" fill-rule="evenodd"/><path fill="#595959" stroke="#595959" stroke-width="1.0" stroke-linecap="butt" d="m156.90143 381.45502l4.828354 -0.097717285l-3.761551 -3.0287476z" fill-rule="evenodd"/><path fill="#000000" fill-opacity="0.0" d="m9.884515 336.11023l107.49606 0l0 38.614166l-107.49606 0z" fill-rule="evenodd"/><path fill="#000000" d="m26.27935 355.35025l0 -7.625l2.625 0q0.890625 0 1.359375 0.109375q0.65625 0.140625 1.109375 0.546875q0.609375 0.5 0.90625 1.296875q0.296875 0.796875 0.296875 1.8125q0 0.875 -0.203125 1.546875q-0.203125 0.671875 -0.515625 1.109375q-0.3125 0.4375 -0.703125 0.6875q-0.375 0.25 -0.90625 0.390625q-0.53125 0.125 -1.21875 0.125l-2.75 0zm1.0 -0.90625l1.625 0q0.765625 0 1.1875 -0.140625q0.4375 -0.140625 0.6875 -0.390625q0.359375 -0.359375 0.5625 -0.953125q0.203125 -0.609375 0.203125 -1.484375q0 -1.1875 -0.40625 -1.828125q-0.390625 -0.65625 -0.953125 -0.875q-0.40625 -0.15625 -1.296875 -0.15625l-1.609375 0l0 5.828125zm6.2268524 -1.859375q0 -1.53125 0.84375 -2.265625q0.71875 -0.625 1.734375 -0.625q1.140625 0 1.859375 0.75q0.734375 0.75 0.734375 2.0625q0 1.0625 -0.328125 1.6875q-0.3125 0.609375 -0.921875 0.953125q-0.609375 0.328125 -1.34375 0.328125q-1.15625 0 -1.875 -0.734375q-0.703125 -0.75 -0.703125 -2.15625zm0.953125 0q0 1.0625 0.46875 1.59375q0.46875 0.53125 1.15625 0.53125q0.703125 0 1.15625 -0.53125q0.46875 -0.53125 0.46875 -1.625q0 -1.015625 -0.46875 -1.546875q-0.453125 -0.53125 -1.15625 -0.53125q-0.6875 0 -1.15625 0.53125q-0.46875 0.515625 -0.46875 1.578125zm9.098373 0.984375l0.96875 0.125q-0.234375 0.84375 -0.859375 1.3125q-0.609375 0.46875 -1.578125 0.46875q-1.203125 0 -1.921875 -0.75q-0.703125 -0.75 -0.703125 -2.09375q0 -1.390625 0.71875 -2.15625q0.71875 -0.78125 1.859375 -0.78125q1.109375 0 1.8125 0.765625q0.703125 0.75 0.703125 2.125q0 0.078125 0 0.234375l-4.125 0q0.046875 0.921875 0.515625 1.40625q0.46875 0.484375 1.15625 0.484375q0.515625 0 0.875 -0.265625q0.359375 -0.28125 0.578125 -0.875zm-3.078125 -1.515625l3.09375 0q-0.0625 -0.6875 -0.359375 -1.046875q-0.453125 -0.53125 -1.15625 -0.53125q-0.640625 0 -1.09375 0.4375q-0.4375 0.421875 -0.484375 1.140625zm4.8483734 1.640625l0.921875 -0.140625q0.078125 0.5625 0.4375 0.859375q0.359375 0.296875 1.0 0.296875q0.640625 0 0.953125 -0.265625q0.3125 -0.265625 0.3125 -0.625q0 -0.3125 -0.28125 -0.5q-0.1875 -0.125 -0.953125 -0.3125q-1.03125 -0.265625 -1.4375 -0.453125q-0.390625 -0.1875 -0.59375 -0.515625q-0.203125 -0.34375 -0.203125 -0.75q0 -0.359375 0.171875 -0.671875q0.171875 -0.328125 0.453125 -0.53125q0.21875 -0.15625 0.59375 -0.265625q0.390625 -0.125 0.8125 -0.125q0.65625 0 1.140625 0.1875q0.5 0.1875 0.734375 0.515625q0.234375 0.3125 0.3125 0.859375l-0.90625 0.125q-0.0625 -0.4375 -0.375 -0.671875q-0.296875 -0.234375 -0.828125 -0.234375q-0.65625 0 -0.9375 0.21875q-0.265625 0.203125 -0.265625 0.484375q0 0.1875 0.109375 0.328125q0.125 0.15625 0.359375 0.25q0.140625 0.0625 0.828125 0.25q1.0 0.265625 1.390625 0.4375q0.390625 0.15625 0.609375 0.484375q0.234375 0.3125 0.234375 0.796875q0 0.46875 -0.28125 0.890625q-0.265625 0.40625 -0.78125 0.640625q-0.515625 0.21875 -1.171875 0.21875q-1.078125 0 -1.640625 -0.4375q-0.5625 -0.453125 -0.71875 -1.34375zm8.663773 3.78125l0 -7.65625l0.859375 0l0 0.71875q0.296875 -0.421875 0.671875 -0.625q0.390625 -0.21875 0.921875 -0.21875q0.703125 0 1.25 0.375q0.546875 0.359375 0.8125 1.03125q0.28125 0.65625 0.28125 1.453125q0 0.84375 -0.3125 1.53125q-0.296875 0.671875 -0.875 1.03125q-0.578125 0.359375 -1.21875 0.359375q-0.46875 0 -0.84375 -0.1875q-0.375 -0.203125 -0.609375 -0.515625l0 2.703125l-0.9375 0zm0.84375 -4.859375q0 1.0625 0.4375 1.578125q0.4375 0.515625 1.046875 0.515625q0.625 0 1.0625 -0.53125q0.453125 -0.53125 0.453125 -1.640625q0 -1.046875 -0.4375 -1.578125q-0.4375 -0.53125 -1.046875 -0.53125q-0.59375 0 -1.0625 0.5625q-0.453125 0.5625 -0.453125 1.625zm5.0671234 2.734375l0 -5.53125l0.84375 0l0 0.84375q0.328125 -0.59375 0.59375 -0.78125q0.28125 -0.1875 0.609375 -0.1875q0.46875 0 0.953125 0.3125l-0.3125 0.859375q-0.34375 -0.203125 -0.6875 -0.203125q-0.3125 0 -0.5625 0.1875q-0.234375 0.1875 -0.34375 0.515625q-0.15625 0.5 -0.15625 1.09375l0 2.890625l-0.9375 0zm3.2204895 -2.765625q0 -1.53125 0.84375 -2.265625q0.71875 -0.625 1.734375 -0.625q1.140625 0 1.859375 0.75q0.734375 0.75 0.734375 2.0625q0 1.0625 -0.328125 1.6875q-0.3125 0.609375 -0.921875 0.953125q-0.609375 0.328125 -1.34375 0.328125q-1.15625 0 -1.875 -0.734375q-0.703125 -0.75 -0.703125 -2.15625zm0.953125 0q0 1.0625 0.46875 1.59375q0.46875 0.53125 1.15625 0.53125q0.703125 0 1.15625 -0.53125q0.46875 -0.53125 0.46875 -1.625q0 -1.015625 -0.46875 -1.546875q-0.453125 -0.53125 -1.15625 -0.53125q-0.6875 0 -1.15625 0.53125q-0.46875 0.515625 -0.46875 1.578125zm5.5358734 2.765625l0 -4.796875l-0.828125 0l0 -0.734375l0.828125 0l0 -0.578125q0 -0.5625 0.109375 -0.828125q0.125 -0.375 0.46875 -0.59375q0.34375 -0.234375 0.953125 -0.234375q0.390625 0 0.875 0.09375l-0.140625 0.828125q-0.296875 -0.0625 -0.546875 -0.0625q-0.421875 0 -0.609375 0.1875q-0.171875 0.1875 -0.171875 0.6875l0 0.5l1.078125 0l0 0.734375l-1.078125 0l0 4.796875l-0.9375 0zm2.7418976 -6.546875l0 -1.078125l0.9375 0l0 1.078125l-0.9375 0zm0 6.546875l0 -5.53125l0.9375 0l0 5.53125l-0.9375 0zm2.3518524 0l0 -7.625l0.9375 0l0 7.625l-0.9375 0zm6.1643524 -1.78125l0.96875 0.125q-0.234375 0.84375 -0.859375 1.3125q-0.609375 0.46875 -1.578125 0.46875q-1.203125 0 -1.921875 -0.75q-0.703125 -0.75 -0.703125 -2.09375q0 -1.390625 0.71875 -2.15625q0.71875 -0.78125 1.859375 -0.78125q1.109375 0 1.8125 0.765625q0.703125 0.75 0.703125 2.125q0 0.078125 0 0.234375l-4.125 0q0.046875 0.921875 0.515625 1.40625q0.46875 0.484375 1.15625 0.484375q0.515625 0 0.875 -0.265625q0.359375 -0.28125 0.578125 -0.875zm-3.078125 -1.515625l3.09375 0q-0.0625 -0.6875 -0.359375 -1.046875q-0.453125 -0.53125 -1.15625 -0.53125q-0.640625 0 -1.09375 0.4375q-0.4375 0.421875 -0.484375 1.140625zm8.184021 3.296875l0 -7.625l0.9375 0l0 2.734375q0.65625 -0.765625 1.65625 -0.765625q0.609375 0 1.0625 0.25q0.453125 0.234375 0.640625 0.671875q0.203125 0.421875 0.203125 1.234375l0 3.5l-0.9375 0l0 -3.5q0 -0.703125 -0.3125 -1.015625q-0.296875 -0.328125 -0.859375 -0.328125q-0.40625 0 -0.78125 0.21875q-0.359375 0.21875 -0.515625 0.59375q-0.15625 0.359375 -0.15625 1.015625l0 3.015625l-0.9375 0zm9.535873 -0.6875q-0.53125 0.453125 -1.015625 0.640625q-0.46875 0.171875 -1.015625 0.171875q-0.921875 0 -1.40625 -0.4375q-0.484375 -0.453125 -0.484375 -1.140625q0 -0.40625 0.171875 -0.734375q0.1875 -0.34375 0.484375 -0.546875q0.3125 -0.203125 0.6875 -0.3125q0.265625 -0.0625 0.828125 -0.140625q1.125 -0.125 1.671875 -0.3125q0 -0.203125 0 -0.25q0 -0.578125 -0.265625 -0.8125q-0.359375 -0.3125 -1.0625 -0.3125q-0.65625 0 -0.984375 0.234375q-0.3125 0.234375 -0.453125 0.8125l-0.921875 -0.125q0.125 -0.578125 0.40625 -0.9375q0.296875 -0.375 0.828125 -0.5625q0.546875 -0.203125 1.25 -0.203125q0.71875 0 1.15625 0.171875q0.4375 0.171875 0.640625 0.421875q0.21875 0.25 0.296875 0.640625q0.046875 0.234375 0.046875 0.859375l0 1.25q0 1.296875 0.0625 1.65625q0.0625 0.34375 0.234375 0.65625l-0.96875 0q-0.15625 -0.296875 -0.1875 -0.6875zm-0.078125 -2.078125q-0.515625 0.203125 -1.53125 0.34375q-0.578125 0.078125 -0.828125 0.1875q-0.234375 0.109375 -0.359375 0.3125q-0.125 0.1875 -0.125 0.4375q0 0.375 0.28125 0.625q0.28125 0.25 0.828125 0.25q0.53125 0 0.953125 -0.234375q0.421875 -0.234375 0.625 -0.65625q0.15625 -0.3125 0.15625 -0.9375l0 -0.328125zm3.9264984 2.765625l-2.09375 -5.53125l0.984375 0l1.1875 3.3125q0.1875 0.53125 0.359375 1.109375q0.109375 -0.4375 0.34375 -1.046875l1.21875 -3.375l0.96875 0l-2.09375 5.53125l-0.875 0zm7.578125 -1.78125l0.96875 0.125q-0.234375 0.84375 -0.859375 1.3125q-0.609375 0.46875 -1.578125 0.46875q-1.203125 0 -1.921875 -0.75q-0.703125 -0.75 -0.703125 -2.09375q0 -1.390625 0.71875 -2.15625q0.71875 -0.78125 1.859375 -0.78125q1.109375 0 1.8125 0.765625q0.703125 0.75 0.703125 2.125q0 0.078125 0 0.234375l-4.125 0q0.046875 0.921875 0.515625 1.40625q0.46875 0.484375 1.15625 0.484375q0.515625 0 0.875 -0.265625q0.359375 -0.28125 0.578125 -0.875zm-3.078125 -1.515625l3.09375 0q-0.0625 -0.6875 -0.359375 -1.046875q-0.453125 -0.53125 -1.15625 -0.53125q-0.640625 0 -1.09375 0.4375q-0.4375 0.421875 -0.484375 1.140625z" fill-rule="nonzero"/><path fill="#000000" d="m61.154915 366.31897l0.921875 0.125q-0.15625 0.953125 -0.78125 1.5q-0.625 0.53125 -1.53125 0.53125q-1.125 0 -1.8125 -0.734375q-0.6875 -0.75 -0.6875 -2.125q0 -0.90625 0.296875 -1.578125q0.296875 -0.671875 0.890625 -1.0q0.609375 -0.34375 1.328125 -0.34375q0.890625 0 1.46875 0.46875q0.578125 0.453125 0.734375 1.28125l-0.90625 0.140625q-0.140625 -0.546875 -0.46875 -0.828125q-0.328125 -0.28125 -0.796875 -0.28125q-0.703125 0 -1.15625 0.515625q-0.4375 0.5 -0.4375 1.59375q0 1.109375 0.421875 1.625q0.4375 0.5 1.125 0.5q0.546875 0 0.90625 -0.34375q0.375 -0.34375 0.484375 -1.046875zm1.375 -0.734375q0 -1.53125 0.84375 -2.265625q0.71875 -0.625 1.734375 -0.625q1.140625 0 1.859375 0.75q0.734375 0.75 0.734375 2.0625q0 1.0625 -0.328125 1.6875q-0.3125 0.609375 -0.921875 0.953125q-0.609375 0.328125 -1.34375 0.328125q-1.15625 0 -1.875 -0.734375q-0.703125 -0.75 -0.703125 -2.15625zm0.953125 0q0 1.0625 0.46875 1.59375q0.46875 0.53125 1.15625 0.53125q0.703125 0 1.15625 -0.53125q0.46875 -0.53125 0.46875 -1.625q0 -1.015625 -0.46875 -1.546875q-0.453125 -0.53125 -1.15625 -0.53125q-0.6875 0 -1.15625 0.53125q-0.46875 0.515625 -0.46875 1.578125zm5.3171234 2.765625l0 -5.53125l0.84375 0l0 0.796875q0.609375 -0.921875 1.75 -0.921875q0.5 0 0.921875 0.1875q0.421875 0.171875 0.625 0.46875q0.21875 0.296875 0.296875 0.6875q0.046875 0.265625 0.046875 0.921875l0 3.390625l-0.9375 0l0 -3.359375q0 -0.578125 -0.109375 -0.859375q-0.109375 -0.28125 -0.390625 -0.453125q-0.265625 -0.171875 -0.640625 -0.171875q-0.59375 0 -1.03125 0.390625q-0.4375 0.375 -0.4375 1.4375l0 3.015625l-0.9375 0zm5.5514984 -1.65625l0.921875 -0.140625q0.078125 0.5625 0.4375 0.859375q0.359375 0.296875 1.0 0.296875q0.640625 0 0.953125 -0.265625q0.3125 -0.265625 0.3125 -0.625q0 -0.3125 -0.28125 -0.5q-0.1875 -0.125 -0.953125 -0.3125q-1.03125 -0.265625 -1.4375 -0.453125q-0.390625 -0.1875 -0.59375 -0.515625q-0.203125 -0.34375 -0.203125 -0.75q0 -0.359375 0.171875 -0.671875q0.171875 -0.328125 0.453125 -0.53125q0.21875 -0.15625 0.59375 -0.265625q0.390625 -0.125 0.8125 -0.125q0.65625 0 1.140625 0.1875q0.5 0.1875 0.734375 0.515625q0.234375 0.3125 0.3125 0.859375l-0.90625 0.125q-0.0625 -0.4375 -0.375 -0.671875q-0.296875 -0.234375 -0.828125 -0.234375q-0.65625 0 -0.9375 0.21875q-0.265625 0.203125 -0.265625 0.484375q0 0.1875 0.109375 0.328125q0.125 0.15625 0.359375 0.25q0.140625 0.0625 0.828125 0.25q1.0 0.265625 1.390625 0.4375q0.390625 0.15625 0.609375 0.484375q0.234375 0.3125 0.234375 0.796875q0 0.46875 -0.28125 0.890625q-0.265625 0.40625 -0.78125 0.640625q-0.515625 0.21875 -1.171875 0.21875q-1.078125 0 -1.640625 -0.4375q-0.5625 -0.453125 -0.71875 -1.34375zm9.484375 -0.125l0.96875 0.125q-0.234375 0.84375 -0.859375 1.3125q-0.609375 0.46875 -1.578125 0.46875q-1.203125 0 -1.921875 -0.75q-0.703125 -0.75 -0.703125 -2.09375q0 -1.390625 0.71875 -2.15625q0.71875 -0.78125 1.859375 -0.78125q1.109375 0 1.8125 0.765625q0.703125 0.75 0.703125 2.125q0 0.078125 0 0.234375l-4.125 0q0.046875 0.921875 0.515625 1.40625q0.46875 0.484375 1.15625 0.484375q0.515625 0 0.875 -0.265625q0.359375 -0.28125 0.578125 -0.875zm-3.078125 -1.515625l3.09375 0q-0.0625 -0.6875 -0.359375 -1.046875q-0.453125 -0.53125 -1.15625 -0.53125q-0.640625 0 -1.09375 0.4375q-0.4375 0.421875 -0.484375 1.140625zm5.2233734 3.296875l0 -5.53125l0.84375 0l0 0.796875q0.609375 -0.921875 1.75 -0.921875q0.5 0 0.921875 0.1875q0.421875 0.171875 0.625 0.46875q0.21875 0.296875 0.296875 0.6875q0.046875 0.265625 0.046875 0.921875l0 3.390625l-0.9375 0l0 -3.359375q0 -0.578125 -0.109375 -0.859375q-0.109375 -0.28125 -0.390625 -0.453125q-0.265625 -0.171875 -0.640625 -0.171875q-0.59375 0 -1.03125 0.390625q-0.4375 0.375 -0.4375 1.4375l0 3.015625l-0.9375 0zm7.9733734 -0.84375l0.125 0.828125q-0.390625 0.09375 -0.703125 0.09375q-0.5 0 -0.78125 -0.15625q-0.28125 -0.171875 -0.40625 -0.4375q-0.109375 -0.265625 -0.109375 -1.109375l0 -3.171875l-0.6875 0l0 -0.734375l0.6875 0l0 -1.359375l0.9375 -0.5625l0 1.921875l0.9375 0l0 0.734375l-0.9375 0l0 3.234375q0 0.390625 0.046875 0.515625q0.046875 0.109375 0.15625 0.1875q0.109375 0.0625 0.328125 0.0625q0.15625 0 0.40625 -0.046875zm0.5387726 -0.8125l0.921875 -0.140625q0.078125 0.5625 0.4375 0.859375q0.359375 0.296875 1.0 0.296875q0.640625 0 0.953125 -0.265625q0.3125 -0.265625 0.3125 -0.625q0 -0.3125 -0.28125 -0.5q-0.1875 -0.125 -0.953125 -0.3125q-1.03125 -0.265625 -1.4375 -0.453125q-0.390625 -0.1875 -0.59375 -0.515625q-0.203125 -0.34375 -0.203125 -0.75q0 -0.359375 0.171875 -0.671875q0.171875 -0.328125 0.453125 -0.53125q0.21875 -0.15625 0.59375 -0.265625q0.390625 -0.125 0.8125 -0.125q0.65625 0 1.140625 0.1875q0.5 0.1875 0.734375 0.515625q0.234375 0.3125 0.3125 0.859375l-0.90625 0.125q-0.0625 -0.4375 -0.375 -0.671875q-0.296875 -0.234375 -0.828125 -0.234375q-0.65625 0 -0.9375 0.21875q-0.265625 0.203125 -0.265625 0.484375q0 0.1875 0.109375 0.328125q0.125 0.15625 0.359375 0.25q0.140625 0.0625 0.828125 0.25q1.0 0.265625 1.390625 0.4375q0.390625 0.15625 0.609375 0.484375q0.234375 0.3125 0.234375 0.796875q0 0.46875 -0.28125 0.890625q-0.265625 0.40625 -0.78125 0.640625q-0.515625 0.21875 -1.171875 0.21875q-1.078125 0 -1.640625 -0.4375q-0.5625 -0.453125 -0.71875 -1.34375zm10.413773 -0.21875q0 -0.1875 0 -0.28125q0 -0.546875 0.15625 -0.953125q0.109375 -0.296875 0.359375 -0.609375q0.1875 -0.21875 0.671875 -0.640625q0.5 -0.4375 0.640625 -0.6875q0.140625 -0.265625 0.140625 -0.5625q0 -0.546875 -0.421875 -0.953125q-0.421875 -0.421875 -1.046875 -0.421875q-0.59375 0 -1.0 0.375q-0.390625 0.375 -0.515625 1.171875l-0.96875 -0.125q0.125 -1.0625 0.765625 -1.625q0.65625 -0.578125 1.703125 -0.578125q1.125 0 1.78125 0.609375q0.671875 0.609375 0.671875 1.484375q0 0.5 -0.234375 0.921875q-0.234375 0.421875 -0.921875 1.015625q-0.453125 0.40625 -0.59375 0.609375q-0.140625 0.1875 -0.21875 0.4375q-0.0625 0.25 -0.0625 0.8125l-0.90625 0zm-0.046875 1.875l0 -1.0625l1.0625 0l0 1.0625l-1.0625 0z" fill-rule="nonzero"/><path fill="#000000" fill-opacity="0.0" d="m165.37572 387.88248l641.3228 0" fill-rule="evenodd"/><path stroke="#434343" stroke-width="1.0" stroke-linejoin="round" stroke-linecap="butt" d="m165.37572 387.88248l635.3228 0" fill-rule="evenodd"/><path fill="#434343" stroke="#434343" stroke-width="1.0" stroke-linecap="butt" d="m800.69855 389.5342l4.538147 -1.6517334l-4.538147 -1.6517334z" fill-rule="evenodd"/><path fill="#000000" fill-opacity="0.0" d="m188.2441 354.13385l476.56696 0l0 33.7323l-476.56696 0z" fill-rule="evenodd"/><path fill="#000000" d="m202.50972 366.822q-0.078125 0.125 -0.15625 0.1875q-0.078125 0.046875 -0.203125 0.046875q-0.140625 0 -0.328125 -0.125q-0.171875 -0.140625 -0.453125 -0.296875q-0.265625 -0.171875 -0.65625 -0.296875q-0.390625 -0.140625 -0.9375 -0.140625q-0.515625 0 -0.921875 0.140625q-0.40625 0.125 -0.671875 0.375q-0.265625 0.234375 -0.40625 0.5625q-0.125 0.328125 -0.125 0.703125q0 0.46875 0.234375 0.796875q0.234375 0.3125 0.609375 0.546875q0.390625 0.21875 0.875 0.390625q0.5 0.15625 1.015625 0.328125q0.515625 0.171875 1.0 0.390625q0.5 0.21875 0.890625 0.5625q0.390625 0.328125 0.625 0.828125q0.234375 0.484375 0.234375 1.1875q0 0.75 -0.25 1.421875q-0.25 0.65625 -0.75 1.140625q-0.484375 0.484375 -1.203125 0.765625q-0.71875 0.28125 -1.625 0.28125q-1.125 0 -2.046875 -0.40625q-0.90625 -0.40625 -1.546875 -1.09375l0.4375 -0.734375q0.0625 -0.078125 0.15625 -0.140625q0.09375 -0.0625 0.203125 -0.0625q0.171875 0 0.390625 0.1875q0.21875 0.171875 0.53125 0.390625q0.328125 0.21875 0.78125 0.40625q0.46875 0.171875 1.140625 0.171875q0.546875 0 0.96875 -0.15625q0.4375 -0.15625 0.734375 -0.421875q0.3125 -0.28125 0.46875 -0.65625q0.15625 -0.390625 0.15625 -0.859375q0 -0.53125 -0.234375 -0.859375q-0.234375 -0.328125 -0.625 -0.546875q-0.375 -0.234375 -0.875 -0.390625q-0.484375 -0.15625 -1.0 -0.3125q-0.515625 -0.171875 -1.015625 -0.375q-0.484375 -0.21875 -0.875 -0.5625q-0.375 -0.34375 -0.625 -0.859375q-0.234375 -0.53125 -0.234375 -1.28125q0 -0.609375 0.234375 -1.171875q0.25 -0.578125 0.6875 -1.015625q0.453125 -0.4375 1.109375 -0.703125q0.65625 -0.265625 1.515625 -0.265625q0.96875 0 1.75 0.3125q0.796875 0.296875 1.390625 0.875l-0.375 0.734375zm5.589264 1.4375q0.734375 0 1.34375 0.25q0.609375 0.234375 1.0625 0.703125q0.453125 0.453125 0.703125 1.140625q0.25 0.671875 0.25 1.53125q0 0.34375 -0.078125 0.453125q-0.0625 0.109375 -0.265625 0.109375l-5.390625 0q0.015625 0.765625 0.203125 1.34375q0.203125 0.5625 0.53125 0.9375q0.34375 0.375 0.796875 0.5625q0.46875 0.1875 1.046875 0.1875q0.53125 0 0.921875 -0.109375q0.390625 -0.125 0.671875 -0.265625q0.28125 -0.15625 0.46875 -0.28125q0.1875 -0.125 0.3125 -0.125q0.1875 0 0.28125 0.140625l0.390625 0.515625q-0.25 0.328125 -0.625 0.5625q-0.375 0.234375 -0.796875 0.390625q-0.40625 0.140625 -0.859375 0.21875q-0.453125 0.078125 -0.890625 0.078125q-0.84375 0 -1.546875 -0.28125q-0.703125 -0.28125 -1.21875 -0.828125q-0.515625 -0.546875 -0.8125 -1.359375q-0.28125 -0.8125 -0.28125 -1.859375q0 -0.84375 0.25 -1.578125q0.265625 -0.734375 0.75 -1.265625q0.5 -0.546875 1.203125 -0.859375q0.703125 -0.3125 1.578125 -0.3125zm0.03125 1.046875q-1.03125 0 -1.625 0.609375q-0.59375 0.59375 -0.734375 1.640625l4.40625 0q0 -0.5 -0.140625 -0.90625q-0.125 -0.40625 -0.390625 -0.703125q-0.265625 -0.3125 -0.65625 -0.46875q-0.375 -0.171875 -0.859375 -0.171875zm5.149521 7.1875l0 -8.109375l0.84375 0q0.296875 0 0.390625 0.296875l0.109375 0.890625q0.53125 -0.59375 1.171875 -0.953125q0.65625 -0.359375 1.515625 -0.359375q0.65625 0 1.15625 0.21875q0.515625 0.21875 0.859375 0.625q0.34375 0.40625 0.515625 0.984375q0.171875 0.5625 0.171875 1.25l0 5.15625l-1.421875 0l0 -5.15625q0 -0.921875 -0.421875 -1.421875q-0.421875 -0.515625 -1.28125 -0.515625q-0.625 0 -1.171875 0.3125q-0.546875 0.296875 -1.015625 0.8125l0 5.96875l-1.421875 0zm14.599014 0q-0.3125 0 -0.390625 -0.296875l-0.125 -0.984375q-0.515625 0.640625 -1.1875 1.015625q-0.671875 0.375 -1.53125 0.375q-0.703125 0 -1.265625 -0.265625q-0.5625 -0.265625 -0.96875 -0.78125q-0.390625 -0.53125 -0.609375 -1.296875q-0.21875 -0.78125 -0.21875 -1.796875q0 -0.890625 0.234375 -1.65625q0.25 -0.78125 0.6875 -1.34375q0.453125 -0.5625 1.09375 -0.890625q0.65625 -0.328125 1.484375 -0.328125q0.75 0 1.265625 0.25q0.53125 0.25 0.953125 0.71875l0 -4.5l1.421875 0l0 11.78125l-0.84375 0zm-2.765625 -1.046875q0.703125 0 1.21875 -0.3125q0.53125 -0.328125 0.96875 -0.90625l0 -3.921875q-0.390625 -0.53125 -0.859375 -0.734375q-0.46875 -0.21875 -1.03125 -0.21875q-1.140625 0 -1.75 0.8125q-0.609375 0.8125 -0.609375 2.296875q0 0.796875 0.125 1.359375q0.140625 0.5625 0.40625 0.9375q0.265625 0.359375 0.640625 0.53125q0.390625 0.15625 0.890625 0.15625zm10.32872 -7.0625l0 5.171875q0 0.921875 0.421875 1.421875q0.421875 0.5 1.28125 0.5q0.625 0 1.171875 -0.28125q0.546875 -0.296875 1.015625 -0.828125l0 -5.984375l1.421875 0l0 8.109375l-0.84375 0q-0.3125 0 -0.390625 -0.296875l-0.109375 -0.875q-0.53125 0.59375 -1.1875 0.953125q-0.65625 0.34375 -1.5 0.34375q-0.65625 0 -1.171875 -0.21875q-0.5 -0.21875 -0.859375 -0.609375q-0.34375 -0.40625 -0.515625 -0.96875q-0.171875 -0.578125 -0.171875 -1.265625l0 -5.171875l1.4375 0zm7.6615143 10.859375l0 -10.859375l0.84375 0q0.296875 0 0.390625 0.296875l0.109375 0.96875q0.53125 -0.640625 1.1875 -1.015625q0.671875 -0.390625 1.546875 -0.390625q0.6875 0 1.25 0.265625q0.578125 0.265625 0.96875 0.796875q0.40625 0.53125 0.625 1.3125q0.21875 0.765625 0.21875 1.765625q0 0.90625 -0.25 1.6875q-0.234375 0.765625 -0.6875 1.328125q-0.4375 0.5625 -1.09375 0.890625q-0.65625 0.3125 -1.46875 0.3125q-0.75 0 -1.28125 -0.25q-0.53125 -0.25 -0.9375 -0.703125l0 3.59375l-1.421875 0zm3.609375 -9.84375q-0.703125 0 -1.234375 0.328125q-0.515625 0.3125 -0.953125 0.890625l0 3.921875q0.390625 0.53125 0.859375 0.75q0.46875 0.21875 1.046875 0.21875q1.125 0 1.734375 -0.8125q0.609375 -0.8125 0.609375 -2.3125q0 -0.78125 -0.140625 -1.34375q-0.140625 -0.578125 -0.40625 -0.9375q-0.265625 -0.375 -0.65625 -0.53125q-0.375 -0.171875 -0.859375 -0.171875zm10.925644 7.09375q-0.3125 0 -0.390625 -0.296875l-0.125 -0.984375q-0.515625 0.640625 -1.1875 1.015625q-0.671875 0.375 -1.53125 0.375q-0.703125 0 -1.265625 -0.265625q-0.5625 -0.265625 -0.96875 -0.78125q-0.390625 -0.53125 -0.609375 -1.296875q-0.21875 -0.78125 -0.21875 -1.796875q0 -0.890625 0.234375 -1.65625q0.25 -0.78125 0.6875 -1.34375q0.453125 -0.5625 1.09375 -0.890625q0.65625 -0.328125 1.484375 -0.328125q0.75 0 1.265625 0.25q0.53125 0.25 0.953125 0.71875l0 -4.5l1.421875 0l0 11.78125l-0.84375 0zm-2.765625 -1.046875q0.703125 0 1.21875 -0.3125q0.53125 -0.328125 0.96875 -0.90625l0 -3.921875q-0.390625 -0.53125 -0.859375 -0.734375q-0.46875 -0.21875 -1.03125 -0.21875q-1.140625 0 -1.75 0.8125q-0.609375 0.8125 -0.609375 2.296875q0 0.796875 0.125 1.359375q0.140625 0.5625 0.40625 0.9375q0.265625 0.359375 0.640625 0.53125q0.390625 0.15625 0.890625 0.15625zm11.959503 1.046875l-0.640625 0q-0.203125 0 -0.328125 -0.0625q-0.125 -0.0625 -0.171875 -0.28125l-0.15625 -0.75q-0.328125 0.296875 -0.640625 0.53125q-0.296875 0.21875 -0.640625 0.375q-0.328125 0.15625 -0.703125 0.234375q-0.375 0.078125 -0.84375 0.078125q-0.46875 0 -0.890625 -0.125q-0.40625 -0.140625 -0.71875 -0.390625q-0.296875 -0.265625 -0.484375 -0.671875q-0.171875 -0.40625 -0.171875 -0.96875q0 -0.46875 0.265625 -0.90625q0.265625 -0.453125 0.84375 -0.796875q0.59375 -0.34375 1.546875 -0.5625q0.953125 -0.21875 2.328125 -0.25l0 -0.640625q0 -0.9375 -0.40625 -1.421875q-0.40625 -0.484375 -1.1875 -0.484375q-0.53125 0 -0.890625 0.140625q-0.34375 0.125 -0.609375 0.296875q-0.25 0.15625 -0.453125 0.296875q-0.1875 0.125 -0.359375 0.125q-0.15625 0 -0.265625 -0.078125q-0.09375 -0.078125 -0.15625 -0.1875l-0.265625 -0.453125q0.671875 -0.65625 1.453125 -0.96875q0.78125 -0.328125 1.71875 -0.328125q0.671875 0 1.203125 0.234375q0.53125 0.21875 0.890625 0.625q0.359375 0.390625 0.546875 0.96875q0.1875 0.5625 0.1875 1.234375l0 5.1875zm-3.703125 -0.875q0.375 0 0.6875 -0.078125q0.3125 -0.078125 0.578125 -0.203125q0.28125 -0.140625 0.53125 -0.34375q0.265625 -0.203125 0.5 -0.453125l0 -1.6875q-0.984375 0.03125 -1.671875 0.15625q-0.6875 0.109375 -1.125 0.3125q-0.421875 0.203125 -0.625 0.484375q-0.1875 0.265625 -0.1875 0.59375q0 0.328125 0.09375 0.5625q0.109375 0.234375 0.28125 0.375q0.171875 0.140625 0.40625 0.21875q0.25 0.0625 0.53125 0.0625zm8.315002 1.0q-0.96875 0 -1.484375 -0.53125q-0.515625 -0.53125 -0.515625 -1.546875l0 -4.953125l-0.96875 0q-0.125 0 -0.21875 -0.078125q-0.078125 -0.078125 -0.078125 -0.234375l0 -0.578125l1.328125 -0.15625l0.328125 -2.515625q0.015625 -0.109375 0.09375 -0.1875q0.09375 -0.078125 0.234375 -0.078125l0.71875 0l0 2.796875l2.3125 0l0 1.03125l-2.3125 0l0 4.859375q0 0.515625 0.234375 0.765625q0.25 0.234375 0.640625 0.234375q0.234375 0 0.390625 -0.046875q0.171875 -0.0625 0.28125 -0.125q0.125 -0.078125 0.203125 -0.140625q0.09375 -0.0625 0.15625 -0.0625q0.109375 0 0.203125 0.140625l0.40625 0.671875q-0.359375 0.34375 -0.890625 0.546875q-0.515625 0.1875 -1.0625 0.1875zm6.717926 -8.359375q0.734375 0 1.34375 0.25q0.609375 0.234375 1.0625 0.703125q0.453125 0.453125 0.703125 1.140625q0.25 0.671875 0.25 1.53125q0 0.34375 -0.078125 0.453125q-0.0625 0.109375 -0.265625 0.109375l-5.390625 0q0.015625 0.765625 0.203125 1.34375q0.203125 0.5625 0.53125 0.9375q0.34375 0.375 0.796875 0.5625q0.46875 0.1875 1.046875 0.1875q0.53125 0 0.921875 -0.109375q0.390625 -0.125 0.671875 -0.265625q0.28125 -0.15625 0.46875 -0.28125q0.1875 -0.125 0.3125 -0.125q0.1875 0 0.28125 0.140625l0.390625 0.515625q-0.25 0.328125 -0.625 0.5625q-0.375 0.234375 -0.796875 0.390625q-0.40625 0.140625 -0.859375 0.21875q-0.453125 0.078125 -0.890625 0.078125q-0.84375 0 -1.546875 -0.28125q-0.703125 -0.28125 -1.21875 -0.828125q-0.515625 -0.546875 -0.8125 -1.359375q-0.28125 -0.8125 -0.28125 -1.859375q0 -0.84375 0.25 -1.578125q0.265625 -0.734375 0.75 -1.265625q0.5 -0.546875 1.203125 -0.859375q0.703125 -0.3125 1.578125 -0.3125zm0.03125 1.046875q-1.03125 0 -1.625 0.609375q-0.59375 0.59375 -0.734375 1.640625l4.40625 0q0 -0.5 -0.140625 -0.90625q-0.125 -0.40625 -0.390625 -0.703125q-0.265625 -0.3125 -0.65625 -0.46875q-0.375 -0.171875 -0.859375 -0.171875zm13.768738 0.53125q-0.078125 0.078125 -0.140625 0.125q-0.0625 0.046875 -0.171875 0.046875q-0.125 0 -0.265625 -0.09375q-0.140625 -0.109375 -0.359375 -0.21875q-0.21875 -0.125 -0.53125 -0.21875q-0.296875 -0.109375 -0.75 -0.109375q-0.59375 0 -1.046875 0.21875q-0.453125 0.203125 -0.765625 0.609375q-0.296875 0.40625 -0.453125 0.96875q-0.15625 0.5625 -0.15625 1.265625q0 0.75 0.15625 1.328125q0.171875 0.5625 0.46875 0.953125q0.3125 0.375 0.75 0.59375q0.4375 0.203125 0.984375 0.203125q0.515625 0 0.84375 -0.125q0.34375 -0.125 0.5625 -0.28125q0.234375 -0.15625 0.375 -0.28125q0.140625 -0.125 0.28125 -0.125q0.1875 0 0.28125 0.140625l0.390625 0.515625q-0.53125 0.65625 -1.328125 0.953125q-0.78125 0.296875 -1.65625 0.296875q-0.765625 0 -1.421875 -0.28125q-0.640625 -0.28125 -1.125 -0.8125q-0.484375 -0.53125 -0.765625 -1.296875q-0.265625 -0.78125 -0.265625 -1.78125q0 -0.890625 0.25 -1.65625q0.25 -0.78125 0.734375 -1.328125q0.484375 -0.5625 1.1875 -0.875q0.71875 -0.3125 1.640625 -0.3125q0.84375 0 1.5 0.28125q0.65625 0.265625 1.171875 0.78125l-0.375 0.515625zm5.221924 -1.578125q0.875 0 1.59375 0.296875q0.71875 0.296875 1.21875 0.84375q0.5 0.546875 0.765625 1.3125q0.265625 0.765625 0.265625 1.71875q0 0.96875 -0.265625 1.734375q-0.265625 0.765625 -0.765625 1.3125q-0.5 0.546875 -1.21875 0.84375q-0.71875 0.28125 -1.59375 0.28125q-0.890625 0 -1.609375 -0.28125q-0.71875 -0.296875 -1.21875 -0.84375q-0.5 -0.546875 -0.78125 -1.3125q-0.265625 -0.765625 -0.265625 -1.734375q0 -0.953125 0.265625 -1.71875q0.28125 -0.765625 0.78125 -1.3125q0.5 -0.546875 1.21875 -0.84375q0.71875 -0.296875 1.609375 -0.296875zm0 7.234375q1.1875 0 1.78125 -0.796875q0.59375 -0.8125 0.59375 -2.25q0 -1.453125 -0.59375 -2.25q-0.59375 -0.8125 -1.78125 -0.8125q-0.609375 0 -1.0625 0.203125q-0.453125 0.203125 -0.75 0.609375q-0.296875 0.390625 -0.453125 0.96875q-0.140625 0.5625 -0.140625 1.28125q0 0.71875 0.140625 1.296875q0.15625 0.5625 0.453125 0.953125q0.296875 0.375 0.75 0.59375q0.453125 0.203125 1.0625 0.203125zm5.614624 1.0l0 -8.109375l0.84375 0q0.296875 0 0.390625 0.296875l0.109375 0.890625q0.53125 -0.59375 1.171875 -0.953125q0.65625 -0.359375 1.515625 -0.359375q0.65625 0 1.15625 0.21875q0.515625 0.21875 0.859375 0.625q0.34375 0.40625 0.515625 0.984375q0.171875 0.5625 0.171875 1.25l0 5.15625l-1.421875 0l0 -5.15625q0 -0.921875 -0.421875 -1.421875q-0.421875 -0.515625 -1.28125 -0.515625q-0.625 0 -1.171875 0.3125q-0.546875 0.296875 -1.015625 0.8125l0 5.96875l-1.421875 0zm13.53653 -6.765625q-0.09375 0.171875 -0.296875 0.171875q-0.125 0 -0.28125 -0.078125q-0.140625 -0.09375 -0.375 -0.203125q-0.21875 -0.109375 -0.515625 -0.203125q-0.296875 -0.09375 -0.71875 -0.09375q-0.359375 0 -0.65625 0.09375q-0.28125 0.09375 -0.484375 0.265625q-0.203125 0.15625 -0.3125 0.375q-0.109375 0.203125 -0.109375 0.453125q0 0.296875 0.171875 0.515625q0.1875 0.203125 0.484375 0.359375q0.296875 0.15625 0.671875 0.265625q0.375 0.109375 0.765625 0.25q0.40625 0.125 0.78125 0.296875q0.375 0.15625 0.671875 0.40625q0.296875 0.234375 0.46875 0.578125q0.1875 0.34375 0.1875 0.828125q0 0.5625 -0.203125 1.046875q-0.203125 0.46875 -0.59375 0.828125q-0.390625 0.34375 -0.96875 0.546875q-0.5625 0.1875 -1.296875 0.1875q-0.84375 0 -1.546875 -0.265625q-0.6875 -0.28125 -1.15625 -0.71875l0.328125 -0.546875q0.0625 -0.09375 0.15625 -0.140625q0.09375 -0.0625 0.234375 -0.0625q0.140625 0 0.296875 0.109375q0.171875 0.109375 0.390625 0.25q0.234375 0.125 0.546875 0.25q0.328125 0.109375 0.8125 0.109375q0.421875 0 0.734375 -0.109375q0.3125 -0.109375 0.515625 -0.296875q0.21875 -0.1875 0.3125 -0.421875q0.09375 -0.234375 0.09375 -0.515625q0 -0.328125 -0.1875 -0.546875q-0.171875 -0.234375 -0.46875 -0.375q-0.296875 -0.15625 -0.671875 -0.265625q-0.375 -0.125 -0.78125 -0.25q-0.390625 -0.140625 -0.78125 -0.296875q-0.375 -0.171875 -0.671875 -0.40625q-0.28125 -0.25 -0.46875 -0.609375q-0.171875 -0.375 -0.171875 -0.890625q0 -0.46875 0.1875 -0.890625q0.1875 -0.4375 0.546875 -0.75q0.375 -0.328125 0.90625 -0.515625q0.546875 -0.203125 1.234375 -0.203125q0.796875 0 1.421875 0.25q0.640625 0.25 1.109375 0.703125l-0.3125 0.515625zm5.5064087 -1.46875q0.734375 0 1.34375 0.25q0.609375 0.234375 1.0625 0.703125q0.453125 0.453125 0.703125 1.140625q0.25 0.671875 0.25 1.53125q0 0.34375 -0.078125 0.453125q-0.0625 0.109375 -0.265625 0.109375l-5.390625 0q0.015625 0.765625 0.203125 1.34375q0.203125 0.5625 0.53125 0.9375q0.34375 0.375 0.796875 0.5625q0.46875 0.1875 1.046875 0.1875q0.53125 0 0.921875 -0.109375q0.390625 -0.125 0.671875 -0.265625q0.28125 -0.15625 0.46875 -0.28125q0.1875 -0.125 0.3125 -0.125q0.1875 0 0.28125 0.140625l0.390625 0.515625q-0.25 0.328125 -0.625 0.5625q-0.375 0.234375 -0.796875 0.390625q-0.40625 0.140625 -0.859375 0.21875q-0.453125 0.078125 -0.890625 0.078125q-0.84375 0 -1.546875 -0.28125q-0.703125 -0.28125 -1.21875 -0.828125q-0.515625 -0.546875 -0.8125 -1.359375q-0.28125 -0.8125 -0.28125 -1.859375q0 -0.84375 0.25 -1.578125q0.265625 -0.734375 0.75 -1.265625q0.5 -0.546875 1.203125 -0.859375q0.703125 -0.3125 1.578125 -0.3125zm0.03125 1.046875q-1.03125 0 -1.625 0.609375q-0.59375 0.59375 -0.734375 1.640625l4.40625 0q0 -0.5 -0.140625 -0.90625q-0.125 -0.40625 -0.390625 -0.703125q-0.265625 -0.3125 -0.65625 -0.46875q-0.375 -0.171875 -0.859375 -0.171875zm5.1495056 7.1875l0 -8.109375l0.84375 0q0.296875 0 0.390625 0.296875l0.109375 0.890625q0.53125 -0.59375 1.171875 -0.953125q0.65625 -0.359375 1.515625 -0.359375q0.65625 0 1.15625 0.21875q0.515625 0.21875 0.859375 0.625q0.34375 0.40625 0.515625 0.984375q0.171875 0.5625 0.171875 1.25l0 5.15625l-1.421875 0l0 -5.15625q0 -0.921875 -0.421875 -1.421875q-0.421875 -0.515625 -1.28125 -0.515625q-0.625 0 -1.171875 0.3125q-0.546875 0.296875 -1.015625 0.8125l0 5.96875l-1.421875 0zm11.34903 0.125q-0.96875 0 -1.484375 -0.53125q-0.515625 -0.53125 -0.515625 -1.546875l0 -4.953125l-0.96875 0q-0.125 0 -0.21875 -0.078125q-0.078125 -0.078125 -0.078125 -0.234375l0 -0.578125l1.328125 -0.15625l0.328125 -2.515625q0.015625 -0.109375 0.09375 -0.1875q0.09375 -0.078125 0.234375 -0.078125l0.71875 0l0 2.796875l2.3125 0l0 1.03125l-2.3125 0l0 4.859375q0 0.515625 0.234375 0.765625q0.25 0.234375 0.640625 0.234375q0.234375 0 0.390625 -0.046875q0.171875 -0.0625 0.28125 -0.125q0.125 -0.078125 0.203125 -0.140625q0.09375 -0.0625 0.15625 -0.0625q0.109375 0 0.203125 0.140625l0.40625 0.671875q-0.359375 0.34375 -0.890625 0.546875q-0.515625 0.1875 -1.0625 0.1875zm9.805878 -8.359375q0.734375 0 1.34375 0.25q0.609375 0.234375 1.0625 0.703125q0.453125 0.453125 0.703125 1.140625q0.25 0.671875 0.25 1.53125q0 0.34375 -0.078125 0.453125q-0.0625 0.109375 -0.265625 0.109375l-5.390625 0q0.015625 0.765625 0.203125 1.34375q0.203125 0.5625 0.53125 0.9375q0.34375 0.375 0.796875 0.5625q0.46875 0.1875 1.046875 0.1875q0.53125 0 0.921875 -0.109375q0.390625 -0.125 0.671875 -0.265625q0.28125 -0.15625 0.46875 -0.28125q0.1875 -0.125 0.3125 -0.125q0.1875 0 0.28125 0.140625l0.390625 0.515625q-0.25 0.328125 -0.625 0.5625q-0.375 0.234375 -0.796875 0.390625q-0.40625 0.140625 -0.859375 0.21875q-0.453125 0.078125 -0.890625 0.078125q-0.84375 0 -1.546875 -0.28125q-0.703125 -0.28125 -1.21875 -0.828125q-0.515625 -0.546875 -0.8125 -1.359375q-0.28125 -0.8125 -0.28125 -1.859375q0 -0.84375 0.25 -1.578125q0.265625 -0.734375 0.75 -1.265625q0.5 -0.546875 1.203125 -0.859375q0.703125 -0.3125 1.578125 -0.3125zm0.03125 1.046875q-1.03125 0 -1.625 0.609375q-0.59375 0.59375 -0.734375 1.640625l4.40625 0q0 -0.5 -0.140625 -0.90625q-0.125 -0.40625 -0.390625 -0.703125q-0.265625 -0.3125 -0.65625 -0.46875q-0.375 -0.171875 -0.859375 -0.171875zm4.118286 -0.921875l1.171875 0q0.171875 0 0.28125 0.09375q0.109375 0.09375 0.15625 0.203125l2.0625 5.21875q0.109375 0.296875 0.171875 0.578125q0.0625 0.28125 0.125 0.5625q0.0625 -0.28125 0.125 -0.5625q0.078125 -0.28125 0.1875 -0.578125l2.078125 -5.21875q0.046875 -0.125 0.15625 -0.203125q0.109375 -0.09375 0.265625 -0.09375l1.125 0l-3.3125 8.109375l-1.28125 0l-3.3125 -8.109375zm12.42627 -0.125q0.734375 0 1.34375 0.25q0.609375 0.234375 1.0625 0.703125q0.453125 0.453125 0.703125 1.140625q0.25 0.671875 0.25 1.53125q0 0.34375 -0.078125 0.453125q-0.0625 0.109375 -0.265625 0.109375l-5.390625 0q0.015625 0.765625 0.203125 1.34375q0.203125 0.5625 0.53125 0.9375q0.34375 0.375 0.796875 0.5625q0.46875 0.1875 1.046875 0.1875q0.53125 0 0.921875 -0.109375q0.390625 -0.125 0.671875 -0.265625q0.28125 -0.15625 0.46875 -0.28125q0.1875 -0.125 0.3125 -0.125q0.1875 0 0.28125 0.140625l0.390625 0.515625q-0.25 0.328125 -0.625 0.5625q-0.375 0.234375 -0.796875 0.390625q-0.40625 0.140625 -0.859375 0.21875q-0.453125 0.078125 -0.890625 0.078125q-0.84375 0 -1.546875 -0.28125q-0.703125 -0.28125 -1.21875 -0.828125q-0.515625 -0.546875 -0.8125 -1.359375q-0.28125 -0.8125 -0.28125 -1.859375q0 -0.84375 0.25 -1.578125q0.265625 -0.734375 0.75 -1.265625q0.5 -0.546875 1.203125 -0.859375q0.703125 -0.3125 1.578125 -0.3125zm0.03125 1.046875q-1.03125 0 -1.625 0.609375q-0.59375 0.59375 -0.734375 1.640625l4.40625 0q0 -0.5 -0.140625 -0.90625q-0.125 -0.40625 -0.390625 -0.703125q-0.265625 -0.3125 -0.65625 -0.46875q-0.375 -0.171875 -0.859375 -0.171875zm5.1495056 7.1875l0 -8.109375l0.84375 0q0.296875 0 0.390625 0.296875l0.109375 0.890625q0.53125 -0.59375 1.171875 -0.953125q0.65625 -0.359375 1.515625 -0.359375q0.65625 0 1.15625 0.21875q0.515625 0.21875 0.859375 0.625q0.34375 0.40625 0.515625 0.984375q0.171875 0.5625 0.171875 1.25l0 5.15625l-1.421875 0l0 -5.15625q0 -0.921875 -0.421875 -1.421875q-0.421875 -0.515625 -1.28125 -0.515625q-0.625 0 -1.171875 0.3125q-0.546875 0.296875 -1.015625 0.8125l0 5.96875l-1.421875 0zm11.34903 0.125q-0.96875 0 -1.484375 -0.53125q-0.515625 -0.53125 -0.515625 -1.546875l0 -4.953125l-0.96875 0q-0.125 0 -0.21875 -0.078125q-0.078125 -0.078125 -0.078125 -0.234375l0 -0.578125l1.328125 -0.15625l0.328125 -2.515625q0.015625 -0.109375 0.09375 -0.1875q0.09375 -0.078125 0.234375 -0.078125l0.71875 0l0 2.796875l2.3125 0l0 1.03125l-2.3125 0l0 4.859375q0 0.515625 0.234375 0.765625q0.25 0.234375 0.640625 0.234375q0.234375 0 0.390625 -0.046875q0.171875 -0.0625 0.28125 -0.125q0.125 -0.078125 0.203125 -0.140625q0.09375 -0.0625 0.15625 -0.0625q0.109375 0 0.203125 0.140625l0.40625 0.671875q-0.359375 0.34375 -0.890625 0.546875q-0.515625 0.1875 -1.0625 0.1875zm8.155426 -6.890625q-0.09375 0.171875 -0.296875 0.171875q-0.125 0 -0.28125 -0.078125q-0.140625 -0.09375 -0.375 -0.203125q-0.21875 -0.109375 -0.515625 -0.203125q-0.296875 -0.09375 -0.71875 -0.09375q-0.359375 0 -0.65625 0.09375q-0.28125 0.09375 -0.484375 0.265625q-0.203125 0.15625 -0.3125 0.375q-0.109375 0.203125 -0.109375 0.453125q0 0.296875 0.171875 0.515625q0.1875 0.203125 0.484375 0.359375q0.296875 0.15625 0.671875 0.265625q0.375 0.109375 0.765625 0.25q0.40625 0.125 0.78125 0.296875q0.375 0.15625 0.671875 0.40625q0.296875 0.234375 0.46875 0.578125q0.1875 0.34375 0.1875 0.828125q0 0.5625 -0.203125 1.046875q-0.203125 0.46875 -0.59375 0.828125q-0.390625 0.34375 -0.96875 0.546875q-0.5625 0.1875 -1.296875 0.1875q-0.84375 0 -1.546875 -0.265625q-0.6875 -0.28125 -1.15625 -0.71875l0.328125 -0.546875q0.0625 -0.09375 0.15625 -0.140625q0.09375 -0.0625 0.234375 -0.0625q0.140625 0 0.296875 0.109375q0.171875 0.109375 0.390625 0.25q0.234375 0.125 0.546875 0.25q0.328125 0.109375 0.8125 0.109375q0.421875 0 0.734375 -0.109375q0.3125 -0.109375 0.515625 -0.296875q0.21875 -0.1875 0.3125 -0.421875q0.09375 -0.234375 0.09375 -0.515625q0 -0.328125 -0.1875 -0.546875q-0.171875 -0.234375 -0.46875 -0.375q-0.296875 -0.15625 -0.671875 -0.265625q-0.375 -0.125 -0.78125 -0.25q-0.390625 -0.140625 -0.78125 -0.296875q-0.375 -0.171875 -0.671875 -0.40625q-0.28125 -0.25 -0.46875 -0.609375q-0.171875 -0.375 -0.171875 -0.890625q0 -0.46875 0.1875 -0.890625q0.1875 -0.4375 0.546875 -0.75q0.375 -0.328125 0.90625 -0.515625q0.546875 -0.203125 1.234375 -0.203125q0.796875 0 1.421875 0.25q0.640625 0.25 1.109375 0.703125l-0.3125 0.515625z" fill-rule="nonzero"/></g></svg>